<?xml version="1.0" encoding="utf-8"?>
<!-- Generator: Adobe Illustrator 12.0.0, SVG Export Plug-In . SVG Version: 6.00 Build 51448)  -->
<!DOCTYPE svg PUBLIC "-//W3C//DTD SVG 1.0//EN" "http://www.w3.org/TR/2001/REC-SVG-20010904/DTD/svg10.dtd" [
	<!ENTITY ns_svg "http://www.w3.org/2000/svg">
	<!ENTITY ns_xlink "http://www.w3.org/1999/xlink">
]>
<svg  version="1.0" id="Layer_1" xmlns="&ns_svg;" xmlns:xlink="&ns_xlink;" width="444.73" height="444.73"
	 viewBox="0 0 444.73 444.73" overflow="visible" enable-background="new 0 0 444.73 444.73" xml:space="preserve">
<rect x="-790.264" y="-502.217" fill="#C0E2F7" width="1510.654" height="1090.89"/>
<polygon fill="#F0DEAE" stroke="#2EA6DE" stroke-width="2.551" stroke-miterlimit="10" points="-275.292,-603.282 
	-265.268,-606.207 -257.333,-607.041 -247.309,-603.701 -241.461,-597.438 -241.044,-593.261 -243.549,-590.753 -246.057,-588.666 
	-252.738,-590.753 -270.279,-588.248 -276.546,-589.502 -281.138,-594.095 -279.885,-597.854 "/>
<polygon fill="#F0DEAE" stroke="#2EA6DE" stroke-width="2.551" stroke-miterlimit="10" points="-280.721,-556.509 
	-289.909,-561.103 -293.25,-564.025 -303.273,-562.772 -313.299,-557.344 -321.232,-548.156 -325.827,-540.639 -331.674,-536.043 
	-336.686,-531.451 -336.686,-524.353 -332.51,-519.339 -324.573,-514.327 -319.146,-515.998 -313.299,-520.594 -309.12,-526.857 
	-299.516,-530.197 -289.909,-532.286 -287.403,-536.463 -278.214,-540.639 -270.696,-541.891 -270.696,-545.233 "/>
<polygon fill="#F0DEAE" stroke="#2EA6DE" stroke-width="2.551" stroke-miterlimit="10" points="-133.292,-573.214 
	-126.611,-574.468 -113.66,-573.631 -101.549,-576.138 -92.78,-577.808 -85.678,-574.468 -80.25,-569.872 -79.417,-566.947 
	-79.834,-560.685 -80.667,-559.433 -85.262,-554.003 -92.78,-551.915 -99.462,-554.003 -104.055,-552.751 -111.573,-550.661 
	-114.076,-550.661 -122.85,-553.585 -130.369,-554.003 -134.961,-551.079 -137.048,-551.497 -139.973,-554.837 -142.479,-559.433 
	-140.39,-566.114 -136.631,-570.29 "/>
<polygon fill="#F0DEAE" stroke="#2EA6DE" stroke-width="2.551" stroke-miterlimit="10" points="-176.727,-512.24 -180.068,-516.834 
	-181.738,-517.668 -182.155,-520.594 -180.903,-522.681 -177.979,-530.615 -181.738,-533.956 -187.585,-533.539 -191.343,-531.451 
	-189.255,-521.428 -189.673,-519.339 -196.356,-517.668 -198.027,-518.921 -201.786,-522.262 -202.621,-520.594 -202.621,-513.492 
	-195.519,-507.229 -190.091,-501.798 -187.585,-500.546 -180.903,-501.382 -177.979,-505.557 -177.562,-507.229 -177.144,-506.393 
	"/>
<polygon fill="#F0DEAE" stroke="#2EA6DE" stroke-width="2.551" stroke-miterlimit="10" points="-691.688,-393.632 
	-685.005,-392.796 -679.991,-395.303 -676.234,-394.886 -672.894,-392.796 -672.476,-388.622 -674.981,-383.609 -682.916,-381.938 
	-687.93,-379.016 -689.181,-376.092 -693.358,-374.003 -697.116,-376.092 -698.786,-384.028 -696.699,-391.127 "/>
<polygon fill="#F0DEAE" stroke="#2EA6DE" stroke-width="2.551" stroke-miterlimit="10" points="-188.421,-464.211 -183.825,-464.63 
	-178.396,-456.694 -175.474,-446.254 -177.144,-444.166 -182.574,-442.495 -190.509,-445 -197.191,-451.684 -197.608,-453.772 
	-197.191,-454.606 -190.509,-462.541 "/>
<polygon fill="#F0DEAE" stroke="#2EA6DE" stroke-width="2.551" stroke-miterlimit="10" points="-33.893,-460.871 -29.715,-461.707 
	-28.46,-460.871 -25.956,-458.366 -24.284,-452.101 -25.119,-448.76 -31.802,-447.507 -37.23,-452.101 -39.321,-455.86 "/>
<polygon fill="#F0DEAE" stroke="#2EA6DE" stroke-width="2.551" stroke-miterlimit="10" points="-36.397,-399.062 -35.978,-404.491 
	-33.474,-408.25 -30.55,-410.337 -24.284,-409.503 -15.934,-409.085 -13.425,-406.998 -12.172,-405.745 -7.997,-398.226 
	-9.248,-396.555 -18.021,-394.052 -20.106,-392.379 -26.375,-391.961 -33.474,-392.796 -35.561,-395.303 "/>
<polygon fill="#F0DEAE" stroke="#2EA6DE" stroke-width="2.551" stroke-miterlimit="10" points="420.933,354.339 427.193,354.339 
	428.865,356.848 426.777,360.608 422.183,362.693 420.933,361.026 420.093,355.176 "/>
<polygon fill="#F0DEAE" stroke="#2EA6DE" stroke-width="2.551" stroke-miterlimit="10" points="433.041,363.951 436.382,365.202 
	436.8,366.871 434.292,371.883 430.533,373.136 428.865,371.464 429.283,368.958 430.533,365.617 "/>
<polygon fill="#F0DEAE" stroke="#2EA6DE" stroke-width="2.551" stroke-miterlimit="10" points="438.886,377.73 446.406,375.64 
	447.66,377.311 448.076,378.565 445.986,385.246 440.976,386.499 440.142,385.665 438.052,378.98 "/>
<polygon fill="#F0DEAE" stroke="#2EA6DE" stroke-width="2.551" stroke-miterlimit="10" points="445.568,390.258 450.164,389.842 
	451.835,391.511 452.253,393.599 451.417,396.94 446.82,398.193 445.152,396.523 444.318,393.599 "/>
<polygon fill="#F0DEAE" stroke="#2EA6DE" stroke-width="2.551" stroke-miterlimit="10" points="471.882,395.268 478.148,394.434 
	479.4,395.268 481.486,398.611 479.818,404.458 476.058,405.292 472.302,403.205 471.048,400.702 "/>
<polygon fill="#F0DEAE" stroke="#2EA6DE" stroke-width="2.551" stroke-miterlimit="10" points="50.891,332.208 55.069,330.536 
	68.435,328.451 76.369,327.617 82.218,327.195 93.073,325.942 99.341,328.867 101.428,330.12 108.947,330.953 113.125,332.208 
	119.804,333.876 130.663,340.142 137.344,342.23 147.788,342.646 153.632,342.23 155.722,342.23 162.404,345.57 169.085,347.659 
	175.351,347.242 194.563,351 196.232,352.673 195.816,354.758 193.729,358.517 186.21,361.442 181.198,365.202 169.922,368.542 
	162.822,371.046 146.532,374.805 144.447,374.386 141.941,371.883 141.104,370.211 142.357,367.705 144.447,359.768 
	141.941,357.683 134.838,358.517 128.154,356.432 125.234,353.088 118.55,348.914 112.285,349.333 105.606,349.333 100.172,346.824 
	94.744,346.408 87.646,348.08 82.634,347.242 77.62,344.739 73.444,345.57 68.435,349.333 61.75,349.333 59.246,346.824 
	58.826,345.155 60.497,343.483 62.587,340.142 60.082,338.473 57.991,338.889 51.307,342.23 45.463,346.824 41.704,351 
	35.438,354.758 29.175,358.517 25,365.617 23.326,366.455 21.238,366.036 19.985,362.277 21.238,355.593 25.416,349.333 
	30.428,344.739 35.438,341.395 41.704,337.22 46.713,334.295 "/>
<polygon fill="#F0DEAE" stroke="#2EA6DE" stroke-width="2.551" stroke-miterlimit="10" points="51.728,356.013 55.487,355.176 
	57.157,359.768 55.487,362.277 53.816,362.693 51.307,361.442 50.891,358.517 "/>
<polygon fill="#F0DEAE" stroke="#2EA6DE" stroke-width="2.551" stroke-miterlimit="10" points="148.622,406.961 141.941,404.877 
	140.269,404.458 140.269,403.205 146.113,398.611 149.038,397.777 161.15,395.686 167.834,396.523 171.175,401.118 168.25,405.711 
	166.579,406.961 161.569,410.721 158.226,409.471 "/>
<polygon fill="#F0DEAE" stroke="#2EA6DE" stroke-width="2.551" stroke-miterlimit="10" points="-620.268,-433.307 
	-615.675,-433.726 -612.334,-430.385 -606.903,-426.625 -604.398,-421.198 -603.981,-417.019 -607.74,-414.097 -614.421,-413.262 
	-618.6,-414.097 -625.699,-417.438 -633.215,-414.514 -637.811,-414.514 -639.899,-418.273 -638.646,-422.031 -636.558,-423.703 
	-631.545,-427.878 -626.116,-430.385 "/>
<polygon fill="#F0DEAE" stroke="#2EA6DE" stroke-width="2.551" stroke-miterlimit="10" points="-281.973,-475.071 -291.999,-480.5 
	-299.516,-482.171 -301.605,-482.588 -305.78,-480.5 -307.452,-477.994 -304.108,-472.982 -297.426,-468.388 -292.415,-465.884 
	-292.415,-457.53 -290.328,-453.772 -284.062,-452.935 -272.367,-455.023 -261.51,-457.111 -253.991,-458.366 -246.891,-457.948 
	-238.122,-459.619 -233.943,-454.606 -230.185,-452.519 -222.249,-449.595 -220.162,-449.177 -216.82,-449.177 -214.314,-450.847 
	-214.731,-454.606 -219.744,-459.619 -220.997,-460.454 -221.415,-461.288 -216.82,-463.795 -211.391,-461.707 -204.709,-463.795 
	-203.874,-465.047 -206.38,-469.64 -213.062,-475.071 -219.327,-475.907 -223.086,-477.994 -225.174,-485.928 -223.921,-492.194 
	-224.756,-498.458 -224.338,-504.306 -223.086,-510.985 -227.263,-525.186 -228.515,-526.021 -232.273,-524.769 -233.527,-522.262 
	-233.527,-514.327 -231.855,-508.482 -233.109,-506.393 -234.78,-505.975 -235.197,-507.229 -236.032,-516.417 -236.868,-520.594 
	-238.957,-523.098 -243.133,-523.933 -246.474,-521.01 -251.485,-511.404 -254.827,-510.151 -256.914,-511.404 -254.827,-518.921 
	-257.333,-523.933 -263.597,-525.186 -268.191,-530.197 -269.444,-531.034 -274.874,-529.363 -286.149,-518.921 -291.579,-516.417 
	-292.415,-515.998 -297.01,-513.492 -295.756,-512.24 -290.328,-508.482 -283.644,-505.557 -282.81,-503.469 -283.644,-502.217 
	-289.074,-500.546 -295.756,-501.798 -299.516,-500.963 -298.68,-498.039 -289.074,-492.61 -280.305,-490.106 -273.204,-485.928 
	-270.696,-483.005 -269.028,-479.663 -270.696,-475.907 -273.621,-474.235 -277.797,-474.235 "/>
<polygon fill="#F0DEAE" stroke="#2EA6DE" stroke-width="2.551" stroke-miterlimit="10" points="-233.943,-553.167 
	-228.096,-556.927 -226.008,-558.596 -222.249,-558.596 -217.238,-553.585 -215.986,-553.167 -211.81,-553.167 -209.302,-554.837 
	-207.214,-559.849 -215.15,-569.872 -220.162,-575.719 -218.91,-579.06 -216.402,-584.907 -218.492,-588.248 -224.756,-589.502 
	-227.68,-584.907 -227.263,-582.818 -227.263,-580.73 -226.008,-571.96 -227.263,-569.455 -232.273,-571.126 -236.45,-576.138 
	-243.133,-579.478 -250.65,-581.566 -253.991,-575.302 -255.662,-568.619 -251.485,-565.696 -246.057,-566.947 -242.715,-566.947 
	-241.461,-565.696 -240.209,-560.685 -239.374,-554.837 -237.286,-553.167 "/>
<polygon fill="#F0DEAE" stroke="#2EA6DE" stroke-width="2.551" stroke-miterlimit="10" points="-159.185,-532.286 
	-162.525,-523.098 -161.274,-519.339 -160.021,-518.505 -147.907,-521.01 -142.897,-524.353 -139.138,-526.439 -137.886,-528.945 
	-137.048,-530.197 -138.305,-533.956 -139.973,-535.626 -148.325,-537.297 -149.58,-538.55 -155.844,-536.881 "/>
<polygon fill="#F0DEAE" stroke="#2EA6DE" stroke-width="2.551" stroke-miterlimit="10" points="-88.187,-690.986 -91.944,-686.809 
	-96.956,-683.051 -101.549,-676.786 -105.307,-673.861 -110.323,-674.281 -114.497,-677.203 -120.761,-678.038 -126.192,-675.951 
	-129.114,-670.939 -128.279,-665.093 -125.775,-661.75 -122.85,-659.663 -116.584,-660.08 -111.156,-661.75 -101.966,-665.093 
	-98.625,-664.259 -97.373,-662.587 -90.69,-661.333 -86.096,-666.764 -83.592,-667.597 -81.502,-667.18 -79.417,-664.676 
	-78.997,-662.587 -79.417,-659.663 -80.667,-656.74 -84.011,-651.727 -89.021,-650.475 -94.869,-650.893 -99.462,-645.464 
	-96.538,-634.188 -99.045,-633.352 -103.639,-636.276 -106.143,-641.287 -110.74,-645.464 -112.825,-645.046 -114.497,-641.287 
	-112.825,-627.504 -107.398,-622.912 -104.891,-617.065 -108.65,-616.229 -115.333,-616.229 -119.092,-613.306 -120.344,-608.712 
	-120.344,-602.865 -117.42,-600.777 -115.333,-599.525 -110.323,-600.36 -106.143,-602.03 -106.564,-594.095 -103.222,-589.918 
	-97.373,-589.502 -89.021,-586.995 -85.262,-586.995 -82.754,-589.502 -83.592,-594.93 -84.427,-595.346 -90.69,-599.525 
	-89.439,-602.03 -79.417,-605.79 -76.909,-608.712 -74.401,-616.646 -73.984,-618.735 -73.984,-622.493 -77.325,-629.176 
	-82.337,-631.264 -80.25,-635.021 -70.227,-640.453 -68.975,-642.123 -68.556,-645.883 -64.798,-647.969 -62.707,-651.309 
	-64.38,-657.993 -63.125,-663.003 -57.697,-669.686 -57.281,-670.939 -56.025,-677.203 -56.025,-678.456 -57.281,-678.874 
	-63.542,-678.456 -64.38,-679.292 -64.798,-680.962 -64.38,-682.214 -53.938,-685.972 -52.265,-690.569 -57.281,-694.326 
	-64.798,-695.161 -76.909,-690.986 -80.667,-690.15 -84.011,-695.161 "/>
<polygon fill="#F0DEAE" stroke="#2EA6DE" stroke-width="2.551" stroke-miterlimit="10" points="106.022,-543.144 112.285,-542.728 
	117.716,-540.22 119.385,-534.373 118.55,-528.109 116.044,-524.353 113.957,-524.769 112.704,-527.692 108.526,-529.363 
	103.097,-527.692 101.428,-529.779 102.682,-537.297 104.351,-540.639 "/>
<polygon fill="#F0DEAE" stroke="#2EA6DE" stroke-width="2.551" stroke-miterlimit="10" points="61.75,-377.762 56.322,-379.016 
	50.475,-378.599 43.793,-384.028 42.538,-385.698 39.618,-385.698 29.175,-385.698 27.919,-386.534 24.581,-391.544 
	21.238,-399.062 12.885,-401.568 6.203,-403.238 -3.403,-407.416 -5.072,-414.097 -4.656,-416.184 -6.323,-422.031 -3.403,-429.131 
	2.028,-434.978 5.788,-440.825 0.772,-457.948 -5.072,-467.553 -11.756,-470.894 -19.69,-472.147 -25.956,-470.06 -29.715,-472.147 
	-28.878,-478.411 -32.22,-482.588 -33.474,-483.422 -40.992,-480.082 -41.827,-480.082 -46.839,-483.422 -48.928,-489.27 
	-53.104,-490.94 -58.95,-487.182 -61.455,-482.588 -72.733,-480.5 -79.834,-480.5 -86.514,-482.588 -94.869,-481.335 
	-101.549,-482.588 -119.092,-494.282 -125.354,-499.71 -129.952,-504.306 -130.369,-510.151 -124.102,-519.339 -119.925,-529.779 
	-112.408,-538.969 -106.564,-539.803 -104.474,-536.463 -104.474,-533.122 -107.815,-526.857 -112.408,-521.428 -111.992,-519.758 
	-108.231,-514.746 -108.65,-508.063 -106.98,-495.535 -101.549,-489.688 -98.625,-494.699 -97.373,-503.469 -99.045,-510.151 
	-100.297,-517.668 -100.714,-523.933 -98.625,-530.615 -97.373,-533.122 -84.011,-538.969 -82.754,-538.55 -78.577,-527.275 
	-78.577,-520.594 -74.82,-516.834 -68.14,-515.581 -60.622,-514.746 -53.938,-519.758 -46.839,-522.681 -42.244,-521.01 
	-38.902,-515.581 -33.474,-510.985 -22.199,-514.327 -17.6,-513.075 -14.26,-511.404 -10.921,-505.975 -5.491,-502.217 
	-2.147,-501.382 3.278,-503.887 6.622,-502.635 9.962,-497.622 8.707,-490.94 19.569,-481.752 24.163,-475.907 30.428,-471.731 
	50.891,-475.071 57.572,-472.982 58.41,-472.147 59.246,-470.477 70.94,-471.731 76.369,-470.06 79.709,-461.707 79.294,-460.454 
	75.532,-455.442 79.709,-448.343 78.875,-447.088 73.444,-445.836 71.775,-442.913 73.444,-437.484 72.61,-436.231 68.851,-434.978 
	64.675,-437.066 61.75,-439.153 55.487,-443.749 42.122,-447.926 38.363,-447.088 37.528,-445.836 37.944,-441.661 45.046,-435.814 
	50.057,-430.802 57.157,-426.625 64.256,-423.703 65.51,-422.866 70.94,-417.019 72.61,-412.427 72.191,-406.161 76.785,-401.151 
	75.532,-394.886 74.7,-394.468 65.51,-396.974 55.069,-401.568 44.209,-400.313 43.373,-399.062 48.388,-396.555 55.487,-393.217 
	72.191,-384.445 75.116,-380.268 74.279,-377.762 71.356,-377.346 66.763,-377.762 "/>
<polygon fill="#F0DEAE" stroke="#2EA6DE" stroke-width="2.551" stroke-miterlimit="10" points="-96.956,-402.403 -90.272,-397.809 
	-85.262,-398.226 -81.919,-393.632 -75.654,-393.217 -73.149,-391.961 -66.467,-386.534 -64.38,-379.016 -65.631,-376.51 
	-71.897,-374.003 -78.577,-375.257 -84.011,-373.586 -84.844,-372.332 -85.262,-365.652 -85.262,-363.563 -88.603,-361.058 
	-93.613,-359.386 -95.705,-359.805 -100.297,-366.905 -104.891,-367.74 -102.803,-374.423 -103.639,-381.522 -102.382,-389.04 
	-101.966,-397.809 -100.714,-401.568 "/>
<polygon fill="#F0DEAE" stroke="#2EA6DE" stroke-width="2.551" stroke-miterlimit="10" points="251.783,-217.811 252.617,-211.545 
	252.199,-203.193 253.867,-199.852 251.783,-192.753 253.867,-190.248 255.123,-184.401 259.3,-184.401 262.642,-187.74 
	267.235,-193.17 272.664,-195.677 277.673,-195.26 283.522,-200.271 289.789,-202.359 292.294,-201.106 294.798,-196.512 
	294.382,-195.26 294.382,-192.753 296.886,-193.17 298.142,-195.677 298.56,-200.687 300.646,-207.787 303.152,-209.458 
	308.162,-206.536 310.253,-203.193 312.339,-197.764 313.595,-198.181 317.351,-199.852 318.605,-198.181 323.617,-194.424 
	326.542,-199.436 325.289,-207.369 321.529,-213.635 319.023,-214.887 311.505,-212.801 309.417,-213.217 308.582,-216.559 
	309.417,-218.646 309.835,-220.316 308.582,-223.24 303.152,-223.658 298.56,-226.58 295.216,-230.759 293.126,-237.439 
	291.873,-239.111 288.949,-237.856 287.283,-236.186 285.191,-229.505 282.271,-226.58 275.169,-228.25 273.498,-232.846 
	273.914,-237.022 271.83,-238.691 265.979,-237.022 263.476,-230.339 262.642,-227.416 260.55,-226.999 258.878,-229.505 
	258.044,-236.604 257.21,-242.45 257.21,-250.802 255.96,-258.32 253.867,-258.738 249.694,-257.069 247.188,-248.714 
	247.188,-239.111 251.783,-229.922 250.11,-222.404 "/>
<polygon fill="#F0DEAE" stroke="#2EA6DE" stroke-width="2.551" stroke-miterlimit="10" points="175.769,-196.094 188.297,-199.436 
	194.147,-199.852 202.916,-197.764 208.344,-191.916 207.51,-190.665 201.247,-188.994 194.563,-187.74 179.113,-188.578 
	177.859,-189.412 174.516,-193.589 "/>
<polygon fill="#F0DEAE" stroke="#2EA6DE" stroke-width="2.551" stroke-miterlimit="10" points="204.169,-149.737 210.851,-147.23 
	215.444,-148.485 220.454,-153.078 224.218,-154.332 228.394,-153.495 228.81,-152.243 227.138,-146.813 223.798,-143.89 
	215.026,-140.131 208.765,-140.967 200.826,-143.471 199.157,-146.396 199.991,-147.23 "/>
<polygon fill="#F0DEAE" stroke="#2EA6DE" stroke-width="2.551" stroke-miterlimit="10" points="238.832,-163.518 243.425,-162.684 
	245.517,-154.749 246.77,-154.332 248.44,-154.749 253.451,-154.332 253.451,-149.318 252.199,-144.726 248.44,-143.471 
	245.933,-145.142 243.425,-147.65 242.591,-146.396 240.923,-141.385 238.416,-143.055 236.748,-148.902 238.416,-154.749 
	238.416,-162.267 "/>
<polygon fill="#F0DEAE" stroke="#2EA6DE" stroke-width="2.551" stroke-miterlimit="10" points="130.247,-17.768 131.916,-17.768 
	131.079,-16.511 126.069,-11.918 117.716,-6.489 116.465,-6.908 116.465,-8.16 117.716,-10.25 122.726,-14.007 126.069,-16.93 "/>
<polygon fill="#F0DEAE" stroke="#2EA6DE" stroke-width="2.551" stroke-miterlimit="10" points="-527.968,-149.737 
	-530.893,-154.332 -535.069,-156.837 -538.828,-159.342 -541.333,-162.684 -548.434,-171.873 -551.356,-171.873 -553.027,-170.201 
	-553.027,-165.606 -549.269,-164.771 -547.598,-162.267 -550.104,-159.762 -549.687,-156.837 -543.84,-151.407 -537.574,-143.471 
	-530.475,-130.525 -528.805,-127.185 -521.705,-113.405 -518.362,-110.062 -514.186,-107.557 -509.593,-108.81 -508.34,-112.15 
	-512.933,-117.997 -515.857,-120.503 -520.45,-128.438 -525.045,-143.471 "/>
<polygon fill="#F0DEAE" stroke="#2EA6DE" stroke-width="2.551" stroke-miterlimit="10" points="-577.668,-242.868 
	-571.405,-243.286 -568.063,-237.439 -567.228,-231.176 -568.48,-224.911 -572.239,-223.658 -574.327,-224.494 -575.581,-225.746 
	-578.086,-230.339 -578.504,-239.527 "/>
<polygon fill="#F0DEAE" stroke="#2EA6DE" stroke-width="2.551" stroke-miterlimit="10" points="-582.681,-221.987 
	-573.909,-219.481 -568.48,-210.712 -565.975,-201.94 -565.558,-196.094 -566.812,-193.589 -569.317,-191.916 -571.405,-193.17 
	-576.834,-202.776 -580.176,-212.384 -581.011,-218.227 "/>
<polygon fill="#F0DEAE" stroke="#2EA6DE" stroke-width="2.551" stroke-miterlimit="10" points="-560.965,-299.248 
	-555.952,-299.248 -553.863,-292.567 -552.611,-280.873 -553.863,-274.191 -553.445,-268.345 -554.697,-261.663 -555.952,-259.156 
	-558.874,-255.397 -563.887,-263.333 -564.723,-269.18 -564.303,-275.445 -563.052,-282.126 -564.723,-287.555 -563.052,-295.073 
	"/>
<polygon fill="#F0DEAE" stroke="#2EA6DE" stroke-width="2.551" stroke-miterlimit="10" points="113.957,249.932 119.804,249.098 
	120.641,247.847 122.31,247.428 126.904,252.441 126.485,254.947 124.819,256.618 122.726,257.035 116.881,253.275 "/>
<polygon fill="#F0DEAE" stroke="#2EA6DE" stroke-width="2.551" stroke-miterlimit="10" points="133.588,269.145 139.016,268.312 
	141.522,268.312 144.028,269.982 144.863,272.485 144.863,273.738 141.522,274.573 139.853,273.738 136.513,270.818 "/>
<polygon fill="#F0DEAE" stroke="#2EA6DE" stroke-width="2.551" stroke-miterlimit="10" points="124.819,297.125 123.979,299.216 
	124.4,301.72 126.069,305.479 127.738,305.895 130.247,305.479 130.663,304.226 129.41,299.634 127.322,297.544 126.485,297.125 "/>
<polygon fill="#F0DEAE" stroke="#2EA6DE" stroke-width="2.551" stroke-miterlimit="10" points="112.704,282.091 114.375,282.091 
	115.628,283.763 119.385,286.267 121.475,289.607 119.385,292.115 119.804,295.875 118.55,297.125 117.3,297.544 115.628,297.96 
	113.957,295.875 111.866,292.531 111.035,287.941 "/>
<polygon fill="#F0DEAE" stroke="#2EA6DE" stroke-width="2.551" stroke-miterlimit="10" points="206.257,336.801 209.182,333.876 
	213.775,332.626 215.026,332.208 216.279,332.208 215.444,338.054 214.191,339.305 208.344,341.814 205.422,342.23 205.001,338.889 
	"/>
<polygon fill="#F0DEAE" stroke="#2EA6DE" stroke-width="2.551" stroke-miterlimit="10" points="322.365,345.989 327.792,345.155 
	341.16,341.395 349.091,340.142 350.345,340.979 351.601,344.739 349.929,347.242 345.333,351.835 323.617,358.517 322.365,358.101 
	319.023,352.673 319.855,347.242 "/>
<polygon fill="#F0DEAE" stroke="#2EA6DE" stroke-width="2.551" stroke-miterlimit="10" points="-534.234,-265.421 
	-537.993,-266.673 -539.245,-271.269 -536.74,-278.784 -541.752,-289.224 -541.333,-295.073 -540.499,-306.766 -536.74,-310.942 
	-535.903,-325.977 -539.662,-328.901 -540.917,-333.912 -549.269,-333.494 -551.356,-334.33 -551.356,-341.429 -554.281,-348.11 
	-557.206,-350.199 -563.052,-351.452 -566.812,-355.627 -565.558,-362.311 -559.711,-367.322 -558.04,-369.828 -560.128,-373.586 
	-564.723,-374.003 -570.568,-374.423 -572.239,-374.423 -576.417,-379.851 -582.263,-385.28 -586.023,-392.379 -591.034,-399.48 
	-589.78,-405.745 -590.198,-407.416 -594.792,-412.427 -595.629,-415.351 -594.792,-422.866 -601.056,-428.297 -604.815,-430.385 
	-603.981,-434.56 -602.728,-436.231 -603.146,-442.078 -607.74,-443.749 -618.6,-439.573 -639.899,-435.814 -646.164,-436.231 
	-649.506,-432.89 -651.174,-425.373 -655.769,-419.944 -674.146,-412.843 -695.864,-403.655 -714.658,-396.974 -719.669,-396.974 
	-726.771,-401.151 -731.781,-401.985 -746.816,-399.898 -750.575,-401.151 -758.509,-406.998 -763.939,-407.416 -771.457,-406.161 
	-779.393,-407.833 -782.317,-411.175 -783.569,-414.932 -781.064,-417.438 -774.8,-421.614 -768.953,-416.184 -753.5,-415.767 
	-748.905,-413.262 -745.564,-407.833 -735.122,-412.427 -728.858,-413.68 -723.846,-412.01 -707.975,-414.514 -701.293,-419.526 
	-696.699,-428.297 -692.106,-433.726 -684.17,-434.978 -671.222,-439.573 -671.222,-442.495 -685.005,-442.913 -688.347,-445.417 
	-688.347,-448.76 -687.092,-452.101 -689.599,-457.111 -694.193,-458.366 -701.293,-456.278 -704.216,-458.782 -702.545,-460.871 
	-694.193,-465.047 -695.864,-468.388 -695.028,-473.816 -691.269,-477.994 -686.259,-481.335 -679.575,-483.422 -677.905,-487.599 
	-686.259,-488.853 -691.269,-488.435 -693.776,-490.522 -689.599,-493.863 -689.181,-502.635 -686.675,-505.557 -683.751,-504.723 
	-679.158,-499.71 -673.311,-500.13 -671.222,-503.887 -674.146,-510.569 -676.234,-518.085 -675.815,-524.353 -674.146,-528.109 
	-665.792,-531.867 -642.822,-537.714 -639.899,-531.451 -633.634,-532.286 -631.545,-531.451 -627.369,-528.109 -619.017,-527.692 
	-610.246,-530.615 -606.068,-535.626 -604.815,-542.309 -596.881,-543.144 -593.122,-545.233 -593.539,-548.575 -601.056,-551.497 
	-606.487,-556.089 -614.84,-566.531 -615.675,-571.542 -614.84,-577.808 -611.082,-574.884 -606.903,-569.872 -601.892,-569.872 
	-599.388,-574.05 -600.222,-578.643 -603.981,-586.995 -604.398,-594.93 -599.805,-592.844 -593.959,-586.16 -586.858,-586.16 
	-579.34,-584.49 -577.668,-582.818 -574.745,-577.39 -579.34,-573.214 -581.011,-569.039 -578.921,-564.861 -575.164,-562.772 
	-568.898,-565.279 -562.217,-569.039 -560.545,-572.378 -561.381,-578.643 -566.392,-582.818 -563.052,-588.666 -557.622,-594.513 
	-555.534,-597.438 -553.445,-604.118 -553.027,-610.8 -549.687,-614.143 -542.587,-617.9 -538.411,-617.065 -535.903,-614.976 
	-532.981,-609.547 -529.639,-609.129 -514.603,-613.724 -506.251,-614.143 -489.126,-607.458 -477.434,-606.207 -475.346,-604.535 
	-473.674,-596.6 -468.663,-594.513 -466.993,-590.753 -464.486,-576.553 -461.563,-576.138 -459.056,-573.214 -459.475,-571.96 
	-464.486,-568.619 -464.904,-564.861 -463.234,-563.19 -456.134,-562.355 -453.627,-557.344 -448.198,-555.673 -443.603,-550.661 
	-438.593,-536.881 -563.468,-388.622 -563.468,-384.445 -560.128,-379.434 -555.534,-373.169 -550.104,-362.729 -546.763,-350.199 
	-540.081,-344.771 -535.903,-339.759 -532.145,-334.748 -530.475,-328.901 -529.639,-322.219 -529.222,-313.03 -530.475,-306.766 
	-530.056,-298.414 -530.056,-291.312 -532.145,-283.378 -532.981,-276.696 -533.815,-270.432 "/>
<polygon fill="#F0DEAE" stroke="#2EA6DE" stroke-width="2.551" stroke-miterlimit="10" points="-22.615,477.961 -21.778,474.202 
	-18.438,470.862 -18.856,464.178 -23.031,446.638 -24.284,438.286 -28.46,437.452 -30.968,439.119 -33.893,445.386 -43.078,447.89 
	-38.486,462.927 -34.309,480.882 -33.054,482.138 -28.46,481.297 -25.956,477.961 "/>
<polygon fill="#F0DEAE" stroke="#2EA6DE" stroke-width="2.551" stroke-miterlimit="10" points="-43.078,447.89 -58.533,452.066 
	-68.14,454.99 -66.883,461.674 -64.38,466.684 -61.874,470.862 -57.281,473.367 -53.521,473.786 -54.356,476.29 -57.281,479.631 
	-57.281,484.641 -59.784,486.313 -81.502,490.908 -84.427,493.832 -84.844,498.841 -84.011,502.603 -81.919,506.776 
	-82.754,513.041 -71.897,518.053 -63.958,519.722 -56.025,520.141 -43.078,521.395 -41.827,518.053 -39.737,515.547 -37.65,513.457 
	-33.474,511.788 -29.715,509.698 -27.628,506.776 -29.715,497.169 -26.791,490.908 -21.778,487.566 -14.681,483.807 
	-13.009,480.465 -18.438,480.465 -22.615,477.961 -25.956,477.544 -28.46,480.882 -33.054,482.138 -34.309,480.882 -38.486,462.927 
	"/>
<polygon fill="#F0DEAE" stroke="#2EA6DE" stroke-width="2.551" stroke-miterlimit="10" points="-43.078,521.395 -36.812,522.232 
	-29.715,524.316 -20.525,525.989 -12.172,528.075 -6.323,526.406 -2.147,523.066 0.356,521.81 -2.987,512.622 -6.744,508.864 
	-15.513,506.36 -27.628,506.776 -29.715,509.698 -33.474,512.203 -37.65,513.457 -39.737,515.547 -41.827,518.053 "/>
<polygon fill="#F0DEAE" stroke="#2EA6DE" stroke-width="2.551" stroke-miterlimit="10" points="-13.009,480.465 0.356,476.706 
	6.622,473.367 10.797,470.026 30.428,465.013 49.638,460.419 53.816,461.674 53.816,463.759 51.728,465.013 53.397,467.519 
	55.906,467.938 60.916,467.101 64.675,467.938 68.016,470.026 65.091,472.529 63.006,476.29 57.572,482.138 52.981,483.39 
	41.704,483.39 37.528,485.059 37.528,492.575 37.109,495.919 34.604,498.007 27.919,499.259 19.569,501.766 16.646,505.522 
	16.226,510.953 15.391,519.307 11.632,523.898 4.95,528.909 3.697,523.898 -0.062,521.81 -2.987,512.203 -6.744,508.864 
	-15.513,506.36 -27.628,506.776 -29.715,497.169 -26.791,490.908 -21.778,487.566 -14.681,483.807 "/>
<polygon fill="#F0DEAE" stroke="#2EA6DE" stroke-width="2.551" stroke-miterlimit="10" points="72.61,548.954 72.191,540.185 
	69.266,534.759 69.266,529.326 70.104,526.823 72.61,523.898 74.279,520.141 71.775,514.296 69.685,505.107 69.685,495.084 
	71.775,487.566 70.94,480.465 70.94,474.202 68.016,470.026 65.51,472.947 63.006,476.29 57.572,482.138 52.981,483.39 
	41.704,483.39 37.944,485.059 37.528,492.994 37.109,495.919 34.604,498.007 27.919,499.678 19.569,501.766 17.065,505.522 
	16.226,511.371 15.391,519.307 11.632,524.316 4.95,528.909 4.532,529.745 4.95,532.669 7.875,535.176 22.075,542.278 
	27.503,546.869 35.438,550.628 40.869,556.057 48.803,551.047 52.144,548.538 55.487,546.453 60.497,547.288 63.838,549.791 
	67.181,549.791 "/>
<polygon fill="#F0DEAE" stroke="#2EA6DE" stroke-width="2.551" stroke-miterlimit="10" points="40.869,556.057 40.034,564.826 
	41.704,569.839 47.971,573.179 52.144,573.595 55.906,571.926 59.665,573.595 62.587,580.698 65.091,578.61 75.116,581.948 
	82.634,587.797 84.722,593.642 87.646,596.152 91.819,595.733 97.248,597.402 99.757,598.237 97.248,597.402 94.328,591.554 
	93.913,586.963 94.744,584.872 96.416,582.785 95.582,580.279 91.819,577.354 94.744,569.42 95.998,567.75 88.479,562.74 
	72.61,548.954 67.181,549.791 63.422,549.791 60.082,547.288 55.487,546.453 52.144,548.538 48.803,551.463 "/>
<polygon fill="#F0DEAE" stroke="#2EA6DE" stroke-width="2.551" stroke-miterlimit="10" points="95.998,567.75 104.767,572.345 
	109.363,578.61 115.207,577.773 121.894,579.029 132.334,574.851 137.344,569.42 142.772,566.916 147.371,562.74 153.216,559.816 
	159.065,560.233 167.419,558.145 182.869,562.74 193.729,568.166 197.066,569 198.741,570.676 197.904,571.926 193.312,574.014 
	194.147,576.939 197.904,580.279 198.741,583.62 198.322,587.382 194.563,587.797 188.713,586.963 183.285,588.633 181.198,584.872 
	180.363,580.279 182.453,575.27 184.122,573.179 183.704,571.926 179.113,569.839 168.669,569.839 165.326,568.585 158.226,568.585 
	153.216,569.42 151.963,570.254 151.963,574.851 151.547,577.773 145.697,581.532 145.282,584.872 151.963,589.467 154.051,594.477 
	152.8,598.655 146.951,601.995 141.104,599.491 134.838,593.642 131.079,594.898 129.829,596.567 121.057,591.554 113.125,588.633 
	110.2,589.467 105.188,592.808 102.263,596.983 99.757,598.237 97.248,597.402 94.328,591.554 93.913,586.963 94.744,584.872 
	96.416,582.785 95.582,580.279 91.819,577.354 94.744,569.42 "/>
<polygon fill="#F0DEAE" stroke="#2EA6DE" stroke-width="2.551" stroke-miterlimit="10" points="244.265,349.333 234.654,353.088 
	223.798,353.923 218.369,355.593 216.279,358.936 217.116,362.277 218.369,363.951 222.128,365.617 229.229,366.036 
	234.654,369.379 235.492,373.552 235.076,374.805 225.054,376.061 217.116,377.311 210.435,378.565 203.75,380.236 201.665,382.74 
	201.665,389.008 202.082,391.092 201.247,392.348 204.585,393.599 205.841,394.015 229.229,389.842 236.748,388.589 
	243.425,384.415 249.272,382.74 255.541,385.665 260.97,388.589 260.97,383.574 255.96,378.148 250.526,376.477 248.022,375.64 
	247.188,373.971 249.272,371.464 251.365,368.958 251.365,366.455 249.272,364.783 245.933,362.277 246.351,358.936 
	248.022,356.848 247.606,354.758 246.77,351.417 "/>
<polygon fill="#F0DEAE" stroke="#2EA6DE" stroke-width="2.551" stroke-miterlimit="10" points="244.265,349.333 254.701,345.155 
	263.058,345.155 270.16,345.989 278.095,344.739 283.522,344.739 285.612,345.57 286.863,349.333 282.271,352.254 283.522,355.593 
	289.789,353.507 295.216,350.167 298.56,352.673 299.81,357.264 298.56,359.768 289.789,363.112 276.003,366.036 271.83,368.958 
	263.476,373.136 260.134,377.73 260.97,383.574 255.96,378.148 250.526,376.477 248.022,375.64 247.188,373.971 249.272,371.464 
	251.365,368.958 251.365,366.455 249.272,364.783 245.933,362.277 246.351,358.936 248.022,356.848 247.606,354.758 246.77,351.417 
	"/>
<polygon fill="#F0DEAE" stroke="#2EA6DE" stroke-width="2.551" stroke-miterlimit="10" points="282.271,-439.573 280.179,-449.595 
	281.017,-455.86 276.423,-466.301 271.41,-475.488 265.145,-478.411 263.476,-488.017 262.22,-490.94 257.21,-495.535 
	253.451,-502.635 254.701,-511.404 252.199,-516.417 246.351,-521.01 245.517,-526.857 246.77,-531.034 245.098,-535.21 
	240.503,-541.057 241.757,-543.562 247.606,-545.233 249.272,-546.484 249.272,-549.827 248.856,-555.673 252.617,-559.849 
	257.21,-565.279 257.21,-571.126 253.451,-578.643 251.783,-584.907 249.272,-589.084 244.682,-591.589 241.341,-597.438 
	236.33,-599.105 235.076,-602.03 236.33,-603.701 243.007,-601.193 244.265,-600.777 249.694,-602.03 251.783,-605.79 
	252.617,-613.306 254.285,-615.813 258.878,-620.823 260.134,-627.504 260.55,-640.035 263.058,-649.222 262.642,-654.651 
	262.22,-657.993 260.55,-661.75 259.3,-663.421 256.792,-663.839 249.694,-660.499 243.845,-656.74 240.503,-650.059 
	238.832,-642.123 237.164,-639.617 233.403,-640.035 229.645,-645.046 224.218,-647.135 222.962,-654.651 215.444,-655.486 
	213.775,-658.411 215.444,-662.168 225.054,-663.839 232.569,-660.08 239.671,-660.08 245.098,-662.587 246.77,-663.839 
	246.77,-666.764 246.351,-668.85 244.265,-672.611 242.591,-673.861 234.654,-676.786 227.558,-681.38 222.128,-681.797 
	216.7,-680.125 210.851,-675.116 206.257,-670.104 201.665,-672.611 199.991,-674.697 194.563,-671.774 192.891,-671.356 
	190.388,-672.611 186.21,-679.292 182.869,-682.214 181.198,-685.972 183.285,-688.061 189.551,-685.972 190.806,-685.139 
	193.729,-685.972 195.816,-688.897 197.488,-694.744 196.651,-698.503 193.729,-701.427 187.881,-699.755 182.869,-695.997 
	179.528,-695.578 178.694,-699.338 184.122,-703.097 186.21,-708.526 184.122,-713.121 181.616,-715.208 175.769,-713.538 
	171.175,-708.526 162.404,-706.855 161.15,-707.691 160.732,-708.526 161.569,-709.777 167.419,-711.451 169.085,-716.042 
	164.075,-719.385 157.391,-721.055 152.379,-717.297 145.282,-714.372 139.016,-714.791 141.104,-725.649 141.104,-731.496 
	133.588,-732.748 127.738,-728.989 125.234,-728.154 122.726,-729.826 116.465,-734.001 113.541,-738.177 109.781,-739.848 
	101.01,-739.848 95.582,-747.783 82.634,-751.958 80.128,-749.454 76.369,-743.19 71.356,-751.126 69.266,-759.476 66.341,-766.994 
	57.991,-769.917 52.144,-768.247 48.803,-761.565 51.728,-754.466 59.665,-746.112 62.587,-739.013 59.665,-736.925 
	57.157,-736.925 52.144,-745.696 41.704,-755.302 39.197,-753.629 41.704,-749.454 42.538,-741.936 40.034,-739.848 36.694,-743.19 
	34.604,-739.013 32.932,-729.826 27.919,-729.826 25.834,-734.001 26.25,-739.013 31.679,-744.024 32.1,-749.871 35.438,-753.629 
	35.02,-758.224 31.263,-759.058 24.163,-755.302 21.238,-750.289 14.972,-749.454 12.466,-752.794 11.216,-751.542 4.532,-748.618 
	-5.072,-740.265 -9.248,-725.649 -7.997,-719.385 -8.831,-716.042 -0.062,-711.866 2.446,-708.944 1.194,-704.768 -3.819,-702.26 
	-15.097,-706.02 -13.009,-695.578 -15.513,-693.074 -24.703,-696.414 -29.294,-695.997 -29.715,-693.908 -33.893,-686.809 
	-35.978,-679.708 -35.145,-671.774 -35.561,-670.521 -38.486,-670.104 -40.574,-670.521 -44.748,-671.356 -48.506,-670.521 
	-51.431,-668.015 -53.521,-663.839 -54.356,-660.08 -53.104,-655.486 -49.761,-653.397 -44.748,-653.815 -39.321,-655.903 
	-36.812,-653.397 -35.561,-648.805 -36.812,-643.792 -41.827,-639.198 -46.003,-639.617 -48.506,-637.528 -50.18,-634.188 
	-51.431,-630.012 -54.773,-624.165 -57.697,-621.241 -55.608,-617.9 -48.506,-615.393 -40.154,-614.976 -34.309,-618.318 
	-31.384,-619.152 -30.134,-617.065 -30.968,-614.559 -39.321,-607.877 -40.574,-605.372 -40.154,-604.535 -38.902,-603.701 
	-30.134,-600.36 -28.46,-597.854 -23.031,-592.844 -18.856,-594.095 -14.26,-597.438 -0.062,-602.865 6.203,-605.372 
	14.972,-609.966 19.985,-609.547 30.428,-602.03 32.516,-601.613 40.034,-596.6 46.297,-595.346 49.638,-594.095 53.816,-587.415 
	62.587,-585.325 65.091,-584.071 68.016,-579.896 73.028,-574.05 75.532,-567.367 76.785,-560.685 80.128,-558.596 82.218,-559.014 
	85.138,-562.772 91.819,-569.872 94.328,-569.872 95.998,-567.785 101.01,-562.355 108.947,-558.596 111.451,-555.256 
	111.451,-554.003 107.275,-551.915 99.341,-551.915 92.657,-549.827 92.657,-547.739 94.744,-545.233 98.503,-543.979 
	113.541,-547.739 119.804,-546.484 123.979,-543.144 126.904,-536.881 127.322,-531.867 129.41,-529.779 128.994,-526.439 
	124.819,-523.933 123.56,-520.594 125.65,-516.834 133.169,-511.822 134.838,-505.557 135.257,-498.875 137.763,-495.116 
	139.853,-493.446 146.113,-492.61 150.292,-486.765 154.466,-481.752 163.241,-480.082 164.91,-480.5 169.085,-476.741 
	174.095,-465.884 182.032,-462.959 188.297,-462.541 192.057,-459.2 197.904,-446.672 202.916,-446.254 210.851,-447.088 
	214.191,-442.495 217.116,-439.573 223.378,-438.319 229.229,-441.241 233.403,-439.573 236.748,-436.231 239.671,-435.814 
	243.425,-437.066 245.517,-443.749 248.44,-448.343 250.11,-449.177 263.476,-441.661 271.41,-437.484 278.095,-435.397 
	283.104,-437.484 "/>
<polygon fill="#F0DEAE" stroke="#2EA6DE" stroke-width="2.551" stroke-miterlimit="10" points="174.095,-104.633 170.759,-106.303 
	167,-108.391 161.569,-112.985 154.888,-123.427 153.216,-129.273 146.951,-138.461 140.688,-138.879 135.257,-135.119 
	131.079,-129.273 128.154,-123.008 125.65,-123.008 126.904,-128.021 126.904,-130.943 131.916,-144.726 140.269,-157.254 
	145.282,-163.937 146.113,-165.19 151.126,-168.531 156.975,-173.125 164.075,-176.465 177.438,-178.971 181.616,-176.048 
	182.453,-170.201 180.779,-166.442 177.859,-163.518 167.834,-160.179 167,-156.837 168.25,-154.332 170.759,-152.662 
	179.113,-156.419 182.453,-156.002 183.704,-153.495 180.363,-150.155 180.779,-147.65 185.373,-145.142 187.047,-143.89 
	189.551,-136.79 195.397,-134.702 200.826,-130.109 216.7,-133.868 224.218,-136.79 233.822,-138.461 240.503,-135.957 
	244.682,-136.373 244.265,-134.702 240.087,-130.943 232.569,-128.021 227.558,-124.261 221.712,-120.503 215.863,-114.656 
	212.101,-110.062 209.598,-101.709 208.344,-95.862 206.257,-91.269 202.916,-89.18 197.066,-88.345 192.057,-91.269 
	189.551,-97.949 189.969,-104.633 194.147,-110.062 199.991,-113.821 210.851,-118.415 212.522,-120.086 211.685,-123.008 
	209.598,-123.427 201.665,-120.086 200.826,-124.679 197.904,-124.679 192.057,-120.503 187.463,-115.91 182.032,-115.073 
	179.113,-111.733 "/>
<polygon fill="#F0DEAE" stroke="#2EA6DE" stroke-width="2.551" stroke-miterlimit="10" points="243.007,-274.608 238.832,-276.279 
	235.914,-282.96 233.403,-287.973 230.897,-289.224 228.81,-288.807 225.47,-284.63 222.962,-285.048 221.712,-286.302 
	221.294,-290.478 219.204,-291.312 215.026,-289.224 209.598,-281.292 204.585,-274.191 199.157,-268.345 196.651,-269.18 
	194.979,-273.356 197.066,-280.039 202.082,-286.72 207.51,-290.061 209.598,-296.743 208.765,-299.666 205.422,-300.918 
	204.169,-300.501 201.247,-298.414 192.476,-298.414 184.122,-294.237 180.363,-295.073 169.922,-302.59 159.481,-304.677 
	156.141,-320.13 146.532,-326.812 140.688,-338.923 126.069,-346.023 114.791,-355.627 108.526,-358.135 103.513,-361.893 
	97.248,-364.817 96.832,-359.386 93.494,-353.124 92.657,-346.023 97.669,-343.517 101.428,-336.418 99.341,-327.229 
	92.657,-320.548 85.554,-318.459 79.709,-318.459 71.775,-323.888 65.51,-322.219 62.167,-324.306 62.167,-334.748 59.665,-338.923 
	53.816,-346.858 56.322,-352.286 55.069,-355.211 52.981,-358.552 45.046,-356.045 37.944,-355.627 30.844,-357.717 
	25.834,-361.058 20.401,-367.74 9.128,-373.169 3.697,-371.915 -6.744,-365.652 -17.6,-368.577 -22.199,-369.41 -25.535,-367.74 
	-26.375,-359.386 -22.199,-351.452 -20.941,-343.934 -19.69,-337.67 -17.6,-334.748 -12.172,-329.735 -7.997,-318.459 
	-10.505,-313.448 -18.021,-310.107 -20.106,-304.26 -19.69,-297.16 -11.337,-292.148 -3.403,-284.63 2.863,-275.862 7.038,-264.585 
	6.203,-249.969 -0.478,-237.439 -8.415,-231.176 -10.921,-226.999 -8.831,-219.064 4.95,-199.852 7.457,-191.916 7.038,-179.389 
	3.278,-173.541 -2.987,-171.453 -5.491,-177.717 -9.666,-170.618 -15.934,-169.783 -23.45,-181.061 -30.55,-186.069 
	-38.068,-203.193 -40.574,-211.964 -45.168,-217.394 -46.003,-223.24 -41.827,-228.668 -43.078,-232.846 -49.345,-235.352 
	-55.189,-234.935 -67.719,-236.186 -75.236,-237.856 -89.439,-237.439 -101.966,-237.856 -106.143,-246.21 -111.156,-249.551 
	-117.001,-252.055 -123.268,-252.473 -131.619,-257.486 -138.305,-259.574 -142.062,-258.32 -147.074,-254.145 -151.667,-252.473 
	-155.425,-255.816 -157.096,-261.245 -158.35,-269.598 -162.525,-281.708 -164.196,-282.96 -165.868,-283.378 -176.308,-282.96 
	-180.486,-285.885 -180.486,-293.82 -179.233,-300.501 -182.991,-305.514 -177.144,-311.359 -172.968,-317.624 -168.373,-323.053 
	-165.033,-329.317 -162.944,-335.164 -146.239,-352.286 -144.987,-356.045 -151.25,-360.641 -147.907,-366.488 -134.961,-366.488 
	-119.092,-378.18 -115.333,-386.115 -119.092,-391.127 -124.938,-391.961 -133.709,-396.555 -130.369,-405.745 -124.519,-404.491 
	-117.84,-401.151 -109.902,-401.568 -102.803,-406.161 -104.474,-412.01 -105.307,-417.019 -94.031,-414.932 -87.769,-419.944 
	-85.262,-423.284 -81.919,-419.944 -78.161,-419.109 -75.236,-421.614 -67.719,-434.56 -71.477,-438.319 -74.82,-442.078 
	-79.417,-441.661 -81.502,-447.088 -81.502,-455.86 -79.417,-459.619 -74.82,-462.959 -74.82,-465.884 -79.834,-466.718 
	-84.427,-464.211 -87.769,-471.31 -94.449,-474.235 -98.208,-473.816 -100.714,-468.388 -98.208,-456.278 -98.208,-450.847 
	-101.966,-445.836 -104.474,-435.814 -111.573,-433.307 -114.076,-434.978 -117.001,-440.407 -117.84,-450.431 -123.268,-460.454 
	-130.369,-462.125 -126.611,-453.354 -124.938,-448.343 -127.444,-442.495 -132.455,-442.913 -136.213,-448.343 -139.973,-462.125 
	-147.907,-468.388 -148.325,-472.147 -142.897,-475.071 -140.39,-478.411 -143.314,-482.588 -148.325,-485.094 -149.999,-491.359 
	-152.503,-494.699 -157.933,-503.469 -165.868,-501.382 -170.461,-496.37 -171.297,-489.688 -175.474,-482.171 -176.727,-475.907 
	-175.056,-470.894 -168.791,-461.707 -168.791,-459.2 -170.879,-452.935 -169.627,-451.684 -162.944,-449.595 -161.274,-447.926 
	-162.109,-442.913 -166.285,-438.736 -171.297,-435.397 -179.649,-427.878 -177.979,-422.031 -177.562,-417.855 -178.815,-415.767 
	-182.991,-414.514 -185.915,-422.031 -185.08,-429.551 -185.915,-437.066 -189.255,-437.066 -193.432,-434.144 -213.062,-429.968 
	-220.162,-435.814 -223.503,-437.066 -229.35,-436.231 -234.78,-440.825 -241.461,-450.013 -246.057,-450.847 -259.838,-446.254 
	-259.002,-442.495 -250.233,-440.825 -256.497,-437.903 -261.927,-435.814 -263.597,-431.637 -262.344,-417.855 -264.433,-418.273 
	-266.104,-420.778 -269.862,-429.551 -276.126,-434.56 -286.149,-438.736 -296.592,-440.407 -305.361,-440.825 -309.12,-443.749 
	-305.78,-449.595 -307.452,-458.366 -319.562,-467.135 -324.993,-472.147 -329.168,-480.5 -332.927,-485.51 -338.356,-486.765 
	-349.633,-484.677 -349.215,-493.863 -351.722,-498.458 -355.062,-499.293 -360.074,-492.194 -362.581,-498.458 -368.427,-509.315 
	-371.352,-512.24 -376.78,-508.899 -383.045,-509.734 -391.398,-508.899 -397.663,-505.975 -406.016,-505.975 -408.521,-513.91 
	-417.709,-515.581 -421.051,-512.659 -422.303,-508.063 -426.48,-508.063 -429.821,-512.24 -433.162,-519.758 -436.087,-530.197 
	-438.593,-536.881 -563.468,-388.622 -563.468,-384.445 -560.128,-379.434 -555.534,-373.169 -550.104,-362.729 -546.763,-350.199 
	-540.081,-344.771 -535.903,-339.759 -532.145,-334.748 -530.475,-328.901 -529.639,-322.219 -529.222,-313.03 -530.475,-306.348 
	-530.056,-298.414 -530.056,-291.312 -532.145,-283.378 -532.981,-276.696 -533.398,-270.432 -534.234,-265.421 -533.398,-259.156 
	-535.486,-251.639 -538.828,-242.45 -540.917,-235.352 -539.662,-227.416 -537.574,-226.163 -530.475,-219.898 -532.981,-211.128 
	-535.486,-204.447 -535.903,-198.181 -535.069,-196.094 -536.74,-187.323 -542.587,-179.806 -541.752,-173.541 -537.993,-170.618 
	-531.311,-165.606 -523.792,-160.179 -516.692,-157.254 -513.351,-151.825 -511.681,-145.561 -512.098,-135.957 -508.34,-130.525 
	-501.657,-117.162 -447.781,-110.062 -362.581,-103.798 -261.093,-99.622 -165.868,-99.622 -158.35,-102.544 -154.591,-101.709 
	-149.163,-96.697 -140.808,-94.611 -127.027,-96.697 -118.258,-96.281 -108.231,-97.949 -103.222,-102.128 -100.297,-102.961 
	-85.678,-97.115 -73.568,-90.018 -60.201,-84.169 -48.506,-77.906 -43.078,-73.309 -34.725,-64.124 -27.628,-55.354 
	-20.941,-43.659 -16.766,-36.141 -14.681,-28.625 -14.681,-18.184 -16.35,-9.833 -20.106,-1.479 -19.69,0.609 -15.513,4.369 
	-11.337,3.534 -4.237,-1.897 4.95,-8.577 14.14,-14.425 25.416,-20.687 35.02,-25.285 30.01,-33.638 38.363,-38.23 57.991,-48.252 
	62.167,-52.429 63.422,-58.694 67.181,-68.715 73.028,-76.234 80.544,-81.662 88.479,-84.169 95.998,-83.334 107.275,-85.42 
	116.881,-91.686 123.56,-101.292 126.904,-108.391 126.904,-115.493 128.154,-123.008 125.65,-123.008 122.726,-120.503 
	121.057,-120.086 120.22,-120.503 118.55,-122.591 118.55,-124.679 123.145,-138.043 128.994,-150.155 130.247,-156.419 
	131.079,-163.937 133.169,-168.113 137.763,-173.125 142.357,-178.137 142.357,-185.236 146.951,-194.005 168.669,-201.106 
	185.373,-206.953 193.729,-209.458 206.675,-214.052 220.875,-220.316 226.304,-226.58 230.481,-240.363 232.569,-247.88 
	237.164,-250.385 242.591,-255.816 244.265,-260.826 244.682,-266.255 "/>
<polyline fill="#F0DEAE" stroke="#2EA6DE" stroke-width="2.551" stroke-miterlimit="10" points="125.234,-123.008 126.904,-128.021 
	126.904,-130.943 131.498,-144.726 140.269,-157.254 145.282,-163.937 146.113,-165.19 151.126,-168.531 156.975,-173.125 
	164.075,-176.465 177.438,-178.554 181.616,-176.048 182.453,-170.201 180.779,-166.442 177.859,-163.101 167.419,-159.762 
	167,-156.837 168.25,-154.332 170.759,-152.243 179.113,-156.002 182.453,-155.583 183.704,-153.495 180.363,-150.155 
	180.779,-147.65 185.373,-145.142 187.047,-143.89 189.551,-136.79 195.397,-134.286 200.826,-130.109 216.7,-133.45 
	224.218,-136.79 233.822,-138.461 240.503,-135.957 244.682,-136.373 244.265,-134.702 240.087,-130.525 232.569,-127.603 
	227.558,-124.261 221.712,-120.503 215.863,-114.656 212.101,-110.062 209.598,-101.709 208.344,-95.862 206.257,-91.269 
	202.916,-89.18 197.066,-88.345 192.057,-91.269 189.551,-97.949 189.969,-104.633 194.147,-110.062 199.991,-113.821 
	210.851,-118.415 212.522,-120.086 211.685,-123.008 209.598,-123.427 201.665,-120.086 200.826,-124.679 197.904,-124.679 
	192.057,-120.503 187.463,-115.91 "/>
<polyline fill="#F0DEAE" stroke="#2EA6DE" stroke-width="2.551" stroke-miterlimit="10" points="187.463,-115.91 182.032,-115.073 
	179.113,-111.733 174.095,-104.633 170.343,-106.303 167,-108.391 161.569,-112.985 154.888,-123.427 153.216,-128.855 
	146.951,-138.043 140.688,-138.879 135.257,-134.702 131.079,-129.273 128.154,-123.008 "/>
<polygon fill="#F0DEAE" stroke="#2EA6DE" stroke-width="2.551" stroke-miterlimit="10" points="-16.766,424.921 -15.513,419.074 
	-15.934,416.149 -18.438,413.228 -23.031,404.877 -21.778,400.28 -15.934,393.183 -13.009,385.665 -13.425,377.73 -16.35,374.805 
	-23.45,375.223 -31.802,376.061 -51.849,381.071 -64.798,386.083 -70.644,389.842 -71.897,392.348 -73.568,398.611 -71.897,404.458 
	-67.719,408.215 -66.883,412.39 -68.975,416.986 -75.654,419.491 -80.25,428.261 -78.161,433.274 -81.086,437.033 -86.514,438.286 
	-90.69,435.362 -102.382,436.615 -107.398,439.955 -113.66,442.043 -126.192,446.638 -131.619,446.638 -135.38,444.968 
	-138.305,439.119 -144.149,439.539 -152.503,440.79 -155.844,439.955 -165.868,427.009 -167.957,422.832 -174.638,416.986 
	-179.233,413.228 -182.991,412.39 -184.663,404.458 -188.421,394.434 -191.343,393.183 -196.356,389.008 -197.608,383.574 
	-196.356,377.311 -200.115,362.693 -203.038,347.242 -202.621,334.71 -197.608,324.692 -196.356,321.767 -200.949,316.757 
	-201.786,315.922 -209.302,315.922 -212.227,315.503 -226.844,307.569 -233.943,297.125 -236.868,290.861 -251.485,269.145 
	-254.827,264.969 -258.168,259.959 -267.356,254.11 -269.444,252.857 -278.633,253.275 -284.062,255.365 -288.24,262.044 
	-290.328,265.804 -297.01,266.638 -302.438,262.044 -309.12,257.035 -312.462,251.606 -316.221,245.341 -320.816,240.329 
	-325.409,234.484 -328.752,229.469 -334.18,224.459 -340.446,220.284 -349.215,218.612 -350.886,219.031 -356.315,218.612 
	-362.997,217.359 -370.515,218.612 -375.11,220.7 -378.033,228.635 -383.879,229.053 -390.146,229.053 -396.41,227.799 
	-403.51,225.293 -412.279,224.875 -418.963,223.625 -425.645,221.535 -431.909,220.284 -439.845,217.359 -447.781,215.69 
	-454.046,214.439 -462.398,209.006 -467.827,204.829 -472.003,201.487 -484.117,201.072 -492.051,201.487 -499.987,202.323 
	-494.557,225.712 -489.963,234.484 -486.205,243.672 -485.368,254.947 -477.85,265.804 -467.827,273.738 -461.979,277.498 
	-459.056,282.091 -458.639,287.104 -461.146,290.445 -470.333,290.026 -473.257,290.445 -472.84,291.281 -465.322,296.71 
	-457.387,302.554 -450.287,311.745 -443.603,315.922 -437.756,323.857 -432.746,333.46 -431.074,343.064 -428.569,348.495 
	-421.886,354.339 -413.951,361.026 -408.939,366.036 -405.599,373.136 -399.333,381.905 -395.156,384.415 -389.728,382.322 
	-388.057,378.148 -391.398,371.883 -395.993,366.455 -401.004,360.608 -407.269,360.608 -409.357,356.013 -407.269,350.167 
	-409.357,346.408 -413.116,343.064 -419.38,318.842 -421.469,316.757 -421.886,320.097 -438.593,285.851 -442.351,280.838 
	-456.968,268.312 -461.979,260.375 -467.411,247.847 -467.827,236.988 -470.751,227.381 -469.498,221.953 -464.486,220.284 
	-460.727,223.208 -445.693,230.306 -444.022,235.318 -446.11,238.66 -441.515,243.672 -439.845,254.11 -432.328,272.069 
	-426.48,277.498 -421.051,285.016 -409.775,290.445 -406.851,295.875 -408.104,299.216 -403.092,303.391 -397.245,311.329 
	-389.309,319.679 -383.462,328.031 -385.551,332.626 -374.274,338.889 -362.162,352.673 -352.557,363.112 -342.532,375.223 
	-338.356,379.815 -331.674,386.917 -324.573,403.622 -319.146,409.471 -314.969,417.405 -315.387,418.656 -320.816,421.999 
	-322.903,424.921 -319.98,434.528 -313.299,440.371 -307.868,444.968 -298.262,450.815 -291.579,452.901 -286.985,457.915 
	-278.633,462.927 -271.115,463.759 -263.181,463.343 -257.333,465.849 -250.65,468.772 -243.133,473.367 -236.032,476.29 
	-232.691,477.544 -226.008,480.465 -218.91,482.555 -212.643,484.222 -203.874,483.39 -192.597,490.072 -183.41,490.072 
	-173.386,493.413 -165.868,494.25 -157.516,492.994 -149.58,492.159 -135.796,486.313 -129.114,485.48 -124.938,486.313 
	-117.42,487.147 -112.408,490.908 -104.474,496.753 -98.208,501.347 -90.272,507.195 -85.262,511.788 -82.754,513.041 
	-81.919,506.776 -84.011,502.603 -84.844,498.841 -84.427,493.832 -81.919,490.908 -59.784,486.313 -57.281,484.641 
	-57.281,479.631 -54.356,476.29 -53.521,473.786 -57.281,473.367 -61.874,470.862 -64.38,466.684 -66.883,461.674 -68.14,454.99 
	-58.533,452.066 -43.078,447.89 -33.893,445.386 -30.968,439.119 -28.46,437.452 -24.284,438.286 -23.031,433.691 -20.941,437.033 
	-18.438,439.539 -15.513,438.702 -13.841,435.778 -15.513,430.349 "/>
<polygon fill="#F0DEAE" stroke="#2EA6DE" stroke-width="2.551" stroke-miterlimit="10" points="175.351,-103.798 174.095,-104.633 
	170.343,-106.303 167,-108.391 161.569,-112.985 154.888,-123.427 153.216,-128.855 146.951,-138.461 140.688,-138.879 
	135.257,-135.119 131.079,-129.273 128.154,-123.008 126.904,-115.493 126.904,-108.391 123.145,-101.292 116.881,-91.686 
	107.275,-85.42 95.998,-83.334 88.479,-84.169 80.544,-81.662 73.028,-76.234 67.181,-68.715 63.422,-58.694 61.75,-52.429 
	57.991,-48.252 38.363,-38.23 30.01,-33.638 35.02,-25.285 25.416,-20.687 14.14,-14.425 4.95,-8.577 -4.237,-1.897 -11.337,3.534 
	-15.513,4.369 -19.69,0.609 -20.106,-1.479 -16.35,-9.833 -14.681,-18.184 -14.681,-28.625 -16.766,-36.141 -21.36,-43.659 
	-27.628,-54.934 -34.725,-64.124 -43.078,-72.892 -48.506,-77.906 -60.201,-84.169 -73.568,-90.018 -85.678,-97.115 
	-100.297,-102.961 -103.222,-102.128 -108.231,-97.949 -118.258,-96.281 -127.027,-96.697 -140.808,-94.611 -149.163,-96.697 
	-154.591,-101.709 -158.35,-102.544 -165.868,-99.622 -261.093,-99.622 -362.581,-103.381 -447.781,-110.062 -501.657,-117.162 
	-500.821,-110.48 -500.404,-109.645 -500.821,-103.381 -502.075,-96.697 -504.58,-91.269 -509.174,-85.42 -510.011,-85.42 
	-515.021,-85.841 -517.945,-91.269 -517.945,-96.697 -515.021,-100.039 -515.44,-102.544 -522.122,-107.975 -527.134,-110.062 
	-530.056,-109.645 -532.145,-105.469 -530.893,-102.128 -529.222,-93.356 -530.475,-86.677 -530.893,-79.575 -530.893,-73.309 
	-532.981,-66.629 -535.486,-60.782 -539.662,-53.682 -546.345,-45.332 -549.269,-37.396 -548.434,-30.297 -551.774,-21.108 
	-554.697,-14.007 -559.293,-7.741 -559.711,-3.149 -558.04,0.193 -558.458,3.534 -563.052,19.822 -565.975,33.602 -568.898,37.778 
	-572.239,41.121 -572.659,45.297 -570.987,47.8 -566.812,59.079 -566.812,73.278 -565.14,79.123 -563.052,83.717 -557.206,86.223 
	-556.369,89.985 -557.622,92.488 -563.468,96.246 -562.633,100.842 -558.874,105.852 -556.369,111.28 -558.874,114.205 
	-557.206,122.558 -547.18,141.77 -544.257,148.448 -548.017,153.043 -545.928,156.799 -536.321,160.978 -527.134,169.331 
	-513.351,179.355 -512.515,180.19 -507.921,188.125 -503.328,193.972 -499.987,202.323 -492.051,201.487 -484.117,201.072 
	-472.003,201.487 -467.827,204.829 -462.398,209.422 -454.046,214.439 -447.781,215.69 -439.845,217.359 -431.909,220.284 
	-425.645,221.535 -418.963,223.625 -412.279,224.875 -403.51,225.293 -396.41,227.799 -390.146,229.053 -383.879,229.053 
	-378.033,228.635 -375.11,220.7 -370.515,218.612 -362.997,217.359 -356.315,218.612 -350.886,219.031 -349.215,218.612 
	-340.446,220.284 -334.18,224.459 -328.752,229.469 -325.409,234.484 -320.816,240.329 -316.221,245.341 -312.462,251.606 
	-309.12,257.035 -302.438,262.044 -297.01,266.638 -290.328,265.804 -288.24,262.044 -284.062,255.365 -278.633,253.275 
	-269.444,252.857 -267.356,254.11 -258.585,259.959 -254.827,264.969 -251.485,269.145 -236.868,290.861 -233.943,297.125 
	-226.844,307.569 -212.227,315.503 -209.302,315.922 -201.786,315.922 -200.949,316.757 -196.356,321.351 -195.939,315.922 
	-197.608,310.073 -200.949,303.391 -202.203,296.294 -200.533,290.445 -195.939,283.347 -190.927,276.663 -184.663,270.398 
	-176.727,264.551 -165.868,260.792 -162.525,257.451 -164.615,247.847 -164.615,244.088 -162.944,241.163 -159.185,241.163 
	-157.516,242.837 -155.008,248.266 -148.747,246.175 -141.646,242 -134.544,241.163 -125.354,242 -119.925,239.075 
	-115.333,237.822 -109.483,240.747 -105.725,246.593 -99.462,247.847 -93.613,246.175 -82.754,237.404 -77.325,235.735 
	-76.909,233.647 -78.161,231.143 -81.919,229.469 -94.449,230.724 -93.613,227.799 -90.272,225.712 -62.291,216.106 -58.95,218.196 
	-55.189,218.612 -31.802,213.182 -24.284,217.359 -18.856,224.041 -13.841,225.293 -6.744,223.208 -3.403,216.943 -0.478,214.018 
	4.113,214.855 11.216,218.612 20.401,225.293 25,231.56 26.666,236.988 30.428,247.428 32.1,247.847 35.02,246.593 38.363,247.847 
	38.781,250.772 35.438,254.947 36.277,257.869 40.034,263.3 45.878,264.135 48.803,267.06 53.397,274.573 58.826,279.171 
	63.006,283.347 66.763,289.607 74.7,292.115 77.62,291.281 80.544,284.179 80.544,278.333 80.96,267.476 79.709,260.375 
	72.191,244.503 65.091,234.484 61.75,225.293 57.572,214.855 53.397,206.502 49.638,199.821 45.046,194.808 40.45,188.959 
	40.869,182.696 41.704,175.18 45.046,168.496 47.971,162.233 56.741,158.058 60.916,154.296 64.256,147.198 72.61,133.417 
	72.61,131.327 73.86,127.567 79.294,127.567 84.722,122.142 88.063,112.954 92.657,107.523 98.503,105.852 99.757,100.42 
	95.163,97.917 96.832,94.158 100.591,92.07 100.591,87.892 98.503,84.136 95.582,83.298 96.832,78.707 92.238,69.519 88.063,64.925 
	83.469,53.65 79.294,48.638 77.204,42.372 80.544,38.196 85.554,40.287 88.479,46.131 90.152,51.558 91.403,60.332 93.073,62.419 
	96.416,62.419 98.087,57.825 96.832,50.725 99.341,44.045 98.922,39.03 95.163,33.602 93.073,32.768 91.403,26.502 95.163,24.833 
	98.922,29.425 100.591,30.261 104.351,27.757 106.856,23.581 106.022,16.48 110.2,10.214 111.035,3.534 108.526,0.609 
	108.526,-5.656 112.704,-13.174 117.716,-17.768 122.726,-19.854 128.154,-26.12 139.437,-29.878 144.447,-34.054 145.282,-38.647 
	143.188,-42.407 139.853,-44.492 140.688,-52.012 137.763,-60.362 139.016,-67.881 143.607,-76.234 149.457,-80.827 153.632,-86.26 
	159.9,-90.434 164.91,-93.773 171.175,-97.115 174.935,-98.37 175.769,-99.622 "/>
<polyline fill="#F0DEAE" stroke="#2EA6DE" stroke-width="2.551" stroke-miterlimit="10" points="101.01,-739.848 109.781,-739.848 
	113.541,-738.177 116.465,-734.001 122.726,-729.826 125.234,-728.154 127.738,-728.989 133.588,-732.748 141.104,-731.496 
	141.104,-725.649 139.016,-714.791 145.282,-714.372 152.379,-717.297 157.391,-721.055 164.075,-719.385 169.085,-716.042 
	167.419,-711.451 161.569,-709.777 160.732,-708.526 161.15,-707.691 162.404,-706.855 171.175,-708.526 175.769,-713.538 
	181.616,-715.208 184.122,-713.121 186.21,-708.526 184.122,-703.097 178.694,-699.338 179.528,-695.578 182.869,-695.997 
	187.881,-699.755 193.729,-701.427 196.651,-698.503 197.488,-694.744 195.816,-688.897 193.729,-685.972 190.806,-685.139 
	189.551,-685.972 183.285,-688.061 181.198,-685.972 182.869,-682.214 186.21,-679.292 190.388,-672.611 192.891,-671.356 
	194.563,-671.774 199.991,-674.697 201.665,-672.611 206.257,-670.104 210.851,-675.116 216.7,-680.125 222.128,-681.797 
	227.558,-681.38 234.654,-676.786 242.591,-673.861 244.265,-672.611 246.351,-668.85 246.77,-666.764 246.77,-663.839 
	245.098,-662.587 239.671,-660.08 "/>
<polyline fill="#F0DEAE" stroke="#2EA6DE" stroke-width="2.551" stroke-miterlimit="10" points="276.423,-466.301 281.017,-455.86 
	280.179,-449.595 282.271,-439.573 283.104,-437.484 278.095,-435.397 271.41,-437.484 263.476,-441.661 250.11,-449.177 
	248.44,-448.343 245.517,-443.749 243.425,-437.066 239.671,-435.814 236.748,-436.231 233.403,-439.573 229.229,-441.241 
	223.378,-438.319 217.116,-439.573 214.191,-442.495 210.851,-447.088 202.916,-446.254 197.904,-446.672 192.057,-459.2 
	188.297,-462.541 182.032,-462.959 174.095,-465.884 169.085,-476.741 164.91,-480.5 163.241,-480.082 154.466,-481.752 
	150.292,-486.765 146.113,-492.61 139.853,-493.446 137.763,-495.116 135.257,-498.875 134.838,-505.557 133.169,-511.822 
	125.65,-516.834 123.56,-520.594 124.819,-523.933 128.994,-526.439 129.41,-529.779 127.322,-531.867 126.904,-536.881 
	123.979,-543.144 119.804,-546.484 113.541,-547.739 105.188,-545.65 98.503,-543.979 94.744,-545.233 92.657,-547.739 
	92.657,-549.827 99.341,-551.915 107.275,-551.915 111.451,-554.003 111.451,-555.256 108.947,-558.596 101.01,-562.355 "/>
<polyline fill="#F0DEAE" stroke="#2EA6DE" stroke-width="2.551" stroke-miterlimit="10" points="101.01,-739.848 109.781,-739.848 
	113.541,-738.177 116.465,-734.001 122.726,-729.826 125.234,-728.154 127.738,-728.989 133.588,-732.748 141.104,-731.496 
	141.104,-725.649 139.016,-714.791 145.282,-714.372 152.379,-717.297 157.391,-721.055 164.075,-719.385 169.085,-716.042 
	167.419,-711.451 161.569,-709.777 160.732,-708.526 161.15,-707.691 162.404,-706.855 171.175,-708.526 175.769,-713.538 
	181.616,-715.208 184.122,-713.121 186.21,-708.526 184.122,-703.097 178.694,-699.338 179.528,-695.578 182.869,-695.997 
	187.881,-699.755 193.729,-701.427 196.651,-698.503 197.488,-694.744 195.816,-688.897 193.729,-685.972 190.806,-685.139 
	189.551,-685.972 183.285,-688.061 181.198,-685.972 182.869,-682.214 186.21,-679.292 190.388,-672.611 192.891,-671.356 
	194.563,-671.774 199.991,-674.697 201.665,-672.611 206.257,-670.104 210.851,-675.116 216.7,-680.125 222.128,-681.797 
	227.558,-681.38 234.654,-676.786 242.591,-673.861 244.265,-672.611 246.351,-668.85 246.77,-666.764 246.77,-663.839 
	245.098,-662.587 239.671,-660.08 "/>
<polyline fill="#F0DEAE" stroke="#2EA6DE" stroke-width="2.551" stroke-miterlimit="10" points="276.423,-466.301 281.017,-455.86 
	280.179,-449.595 282.271,-439.573 283.104,-437.484 278.095,-435.397 271.41,-437.484 263.476,-441.661 250.11,-449.177 
	248.44,-448.343 245.517,-443.749 243.425,-437.066 239.671,-435.814 236.748,-436.231 233.403,-439.573 229.229,-441.241 
	223.378,-438.319 217.116,-439.573 214.191,-442.495 210.851,-447.088 202.916,-446.254 197.904,-446.672 192.057,-459.2 
	188.297,-462.541 182.032,-462.959 174.095,-465.884 169.085,-476.741 164.91,-480.5 163.241,-480.082 154.466,-481.752 
	150.292,-486.765 146.113,-492.61 139.853,-493.446 137.763,-495.116 135.257,-498.875 134.838,-505.557 133.169,-511.822 
	125.65,-516.834 123.56,-520.594 124.819,-523.933 128.994,-526.439 129.41,-529.779 127.322,-531.867 126.904,-536.881 
	123.979,-543.144 119.804,-546.484 113.541,-547.739 105.188,-545.65 98.503,-543.979 94.744,-545.233 92.657,-547.739 
	92.657,-549.827 99.341,-551.915 107.275,-551.915 111.451,-554.003 111.451,-555.256 108.947,-558.596 101.01,-562.355 "/>
<polyline fill="#F0DEAE" stroke="#2EA6DE" stroke-width="2.551" stroke-miterlimit="10" points="101.01,-562.355 95.998,-567.785 
	94.328,-569.872 91.819,-569.872 85.138,-562.772 82.218,-559.014 80.128,-558.596 76.785,-560.685 75.532,-567.367 73.028,-574.05 
	68.016,-579.896 65.091,-584.071 62.587,-585.325 53.816,-587.415 49.638,-594.095 46.297,-595.346 40.034,-596.6 32.516,-601.613 
	30.428,-602.03 19.985,-609.547 14.972,-609.966 6.203,-605.372 -0.062,-602.865 -14.26,-597.438 -18.856,-594.095 
	-23.031,-592.844 -28.46,-597.854 -30.134,-600.36 -38.902,-603.701 -40.154,-604.535 -40.574,-605.372 -39.321,-607.877 
	-30.968,-614.559 -30.134,-617.065 -31.384,-619.152 -34.309,-618.318 -40.154,-614.976 -48.506,-615.393 -55.608,-617.9 
	-57.697,-621.241 -54.773,-624.165 -51.431,-630.012 -50.18,-634.188 -48.506,-637.528 -46.003,-639.617 -41.827,-639.198 
	-36.812,-643.792 -35.561,-648.805 -36.812,-653.397 -39.321,-655.903 -44.748,-653.815 -49.761,-653.397 -53.104,-655.486 
	-54.356,-660.08 -53.521,-663.839 -51.431,-668.015 -48.506,-670.521 -44.748,-671.356 -40.574,-670.521 -38.486,-670.104 "/>
<polyline fill="#F0DEAE" stroke="#2EA6DE" stroke-width="2.551" stroke-miterlimit="10" points="-38.486,-670.104 -35.561,-670.521 
	-35.145,-671.774 -35.978,-679.708 -33.893,-686.809 -29.715,-693.908 -29.294,-695.997 -24.703,-696.414 -15.513,-693.074 
	-13.009,-695.578 -15.097,-706.02 -3.819,-702.26 1.194,-704.768 2.446,-708.944 -0.062,-711.866 -8.831,-716.042 -7.997,-719.385 
	-9.248,-725.649 -5.072,-740.265 4.532,-748.618 11.216,-751.542 12.466,-752.794 14.972,-749.454 21.238,-750.289 24.163,-755.302 
	31.263,-759.058 35.02,-758.224 35.438,-753.629 32.1,-749.871 31.679,-744.024 26.25,-739.013 25.834,-734.001 27.919,-729.826 
	32.932,-729.826 34.604,-739.013 36.694,-743.19 40.034,-739.848 42.538,-741.936 41.704,-749.454 39.197,-753.629 41.704,-755.302 
	52.144,-745.696 57.157,-736.925 59.665,-736.925 62.587,-739.013 59.665,-746.112 51.728,-754.466 48.803,-761.565 
	52.144,-768.247 57.991,-769.917 66.341,-766.994 69.266,-759.476 71.356,-751.126 76.369,-743.19 80.128,-749.454 82.634,-751.958 
	95.582,-747.783 101.01,-739.848 "/>
<polyline fill="#F0DEAE" stroke="#2EA6DE" stroke-width="2.551" stroke-miterlimit="10" points="101.01,-562.355 95.998,-567.785 
	94.328,-569.872 91.819,-569.872 85.138,-562.772 82.218,-559.014 80.128,-558.596 76.785,-560.685 75.532,-567.367 73.028,-574.05 
	68.016,-579.896 65.091,-584.071 62.587,-585.325 53.816,-587.415 49.638,-594.095 46.297,-595.346 40.034,-596.6 32.516,-601.613 
	30.428,-602.03 19.985,-609.547 14.972,-609.966 6.203,-605.372 -0.062,-602.865 -14.26,-597.438 -18.856,-594.095 
	-23.031,-592.844 -28.46,-597.854 -30.134,-600.36 -38.902,-603.701 -40.154,-604.535 -40.574,-605.372 -39.321,-607.877 
	-30.968,-614.559 -30.134,-617.065 -31.384,-619.152 -34.309,-618.318 -40.154,-614.976 -48.506,-615.393 -55.608,-617.9 
	-57.697,-621.241 -54.773,-624.165 -51.431,-630.012 -50.18,-634.188 -48.506,-637.528 -46.003,-639.617 -41.827,-639.198 
	-36.812,-643.792 -35.561,-648.805 -36.812,-653.397 -39.321,-655.903 -44.748,-653.815 -49.761,-653.397 -53.104,-655.486 
	-54.356,-660.08 -53.521,-663.839 -51.431,-668.015 -48.506,-670.521 -44.748,-671.356 -40.574,-670.521 -38.486,-670.104 "/>
<polyline fill="#F0DEAE" stroke="#2EA6DE" stroke-width="2.551" stroke-miterlimit="10" points="-38.486,-670.104 -35.561,-670.521 
	-35.145,-671.774 -35.978,-679.708 -33.893,-686.809 -29.715,-693.908 -29.294,-695.997 -24.703,-696.414 -15.513,-693.074 
	-13.009,-695.578 -15.097,-706.02 -3.819,-702.26 1.194,-704.768 2.446,-708.944 -0.062,-711.866 -8.831,-716.042 -7.997,-719.385 
	-9.248,-725.649 -5.072,-740.265 4.532,-748.618 11.216,-751.542 12.466,-752.794 14.972,-749.454 21.238,-750.289 24.163,-755.302 
	31.263,-759.058 35.02,-758.224 35.438,-753.629 32.1,-749.871 31.679,-744.024 26.25,-739.013 25.834,-734.001 27.919,-729.826 
	32.932,-729.826 34.604,-739.013 36.694,-743.19 40.034,-739.848 42.538,-741.936 41.704,-749.454 39.197,-753.629 41.704,-755.302 
	52.144,-745.696 57.157,-736.925 59.665,-736.925 62.587,-739.013 59.665,-746.112 51.728,-754.466 48.803,-761.565 
	52.144,-768.247 57.991,-769.917 66.341,-766.994 69.266,-759.476 71.356,-751.126 76.369,-743.19 80.128,-749.454 82.634,-751.958 
	95.582,-747.783 101.01,-739.848 "/>
<polyline fill="#F0DEAE" stroke="#2EA6DE" stroke-width="2.551" stroke-miterlimit="10" points="228.81,-288.807 230.897,-289.224 
	233.403,-287.973 235.914,-282.96 238.832,-276.279 243.007,-274.608 244.682,-266.255 244.265,-260.826 242.591,-255.816 
	237.164,-250.385 232.569,-247.88 230.481,-240.363 226.304,-226.58 220.875,-220.316 206.675,-214.052 193.729,-209.458 
	185.373,-206.953 168.669,-201.106 146.951,-194.005 142.357,-185.236 142.357,-178.137 137.763,-173.125 133.169,-168.113 
	131.079,-163.937 130.247,-156.419 128.994,-150.155 123.145,-138.043 118.55,-124.679 118.55,-122.591 120.22,-120.503 
	121.057,-120.086 122.726,-120.503 125.65,-123.008 128.154,-123.008 126.904,-115.493 126.904,-108.391 123.56,-101.292 
	116.881,-91.686 107.275,-85.42 95.998,-83.334 88.479,-84.169 80.544,-81.662 73.028,-76.234 67.181,-68.715 63.422,-58.694 
	62.167,-52.429 57.991,-48.252 38.363,-38.23 30.01,-33.638 35.02,-25.285 25.416,-20.687 14.14,-14.425 4.95,-8.577 -4.237,-1.897 
	-11.337,3.534 -15.513,4.369 -19.69,0.609 -20.106,-1.479 -16.35,-9.833 -14.681,-18.184 "/>
<polyline fill="#F0DEAE" stroke="#2EA6DE" stroke-width="2.551" stroke-miterlimit="10" points="-14.681,-18.184 -14.681,-28.625 
	-16.766,-36.141 -20.941,-43.659 -27.628,-55.354 -34.725,-64.124 -43.078,-73.309 -48.506,-77.906 -60.201,-84.169 
	-73.568,-90.018 -85.678,-97.115 -100.297,-102.961 -103.222,-102.128 -108.231,-97.949 -118.258,-96.281 -127.027,-96.697 
	-140.808,-94.611 -149.163,-96.697 -154.591,-101.709 -158.35,-102.544 -165.868,-99.622 "/>
<polyline fill="#F0DEAE" stroke="#2EA6DE" stroke-width="2.551" stroke-miterlimit="10" points="228.81,-288.807 230.897,-289.224 
	233.403,-287.973 235.914,-282.96 238.832,-276.279 243.007,-274.608 244.682,-266.255 244.265,-260.826 242.591,-255.816 
	237.164,-250.385 232.569,-247.88 230.481,-240.363 226.304,-226.58 220.875,-220.316 206.675,-214.052 193.729,-209.458 
	185.373,-206.953 168.669,-201.106 146.951,-194.005 142.357,-185.236 142.357,-178.137 137.763,-173.125 133.169,-168.113 
	131.079,-163.937 130.247,-156.419 128.994,-150.155 123.145,-138.043 118.55,-124.679 118.55,-122.591 120.22,-120.503 
	121.057,-120.086 122.726,-120.503 125.65,-123.008 128.154,-123.008 126.904,-115.493 126.904,-108.391 123.56,-101.292 
	116.881,-91.686 107.275,-85.42 95.998,-83.334 88.479,-84.169 80.544,-81.662 73.028,-76.234 67.181,-68.715 63.422,-58.694 
	62.167,-52.429 57.991,-48.252 38.363,-38.23 30.01,-33.638 35.02,-25.285 25.416,-20.687 14.14,-14.425 4.95,-8.577 -4.237,-1.897 
	-11.337,3.534 -15.513,4.369 -19.69,0.609 -20.106,-1.479 -16.35,-9.833 -14.681,-18.184 "/>
<polyline fill="#F0DEAE" stroke="#2EA6DE" stroke-width="2.551" stroke-miterlimit="10" points="-14.681,-18.184 -14.681,-28.625 
	-16.766,-36.141 -20.941,-43.659 -27.628,-55.354 -34.725,-64.124 -43.078,-73.309 -48.506,-77.906 -60.201,-84.169 
	-73.568,-90.018 -85.678,-97.115 -100.297,-102.961 -103.222,-102.128 -108.231,-97.949 -118.258,-96.281 -127.027,-96.697 
	-140.808,-94.611 -149.163,-96.697 -154.591,-101.709 -158.35,-102.544 -165.868,-99.622 "/>
<polyline fill="#F0DEAE" stroke="#2EA6DE" stroke-width="2.551" stroke-miterlimit="10" points="-165.868,-99.622 -261.093,-99.622 
	-362.581,-103.798 -447.781,-110.062 -501.657,-117.162 -508.34,-130.525 -512.098,-135.957 -511.681,-145.561 -513.351,-151.825 
	-516.692,-157.254 -523.792,-160.179 -531.311,-165.606 -537.993,-170.618 -541.752,-173.541 -542.587,-179.806 -536.74,-187.323 
	-535.069,-196.094 -535.903,-198.181 -535.486,-204.447 -532.981,-211.128 -530.475,-219.898 -537.574,-226.163 -539.662,-227.416 
	-540.917,-235.352 -538.828,-242.45 -535.486,-251.639 -533.398,-259.156 -534.234,-265.421 -533.398,-270.432 -532.981,-276.696 
	-532.145,-283.378 -530.056,-291.312 -530.056,-298.414 -530.475,-306.348 -529.222,-313.03 -529.639,-322.219 -530.475,-328.901 
	-532.145,-334.748 -535.903,-339.759 -540.081,-344.771 -546.763,-350.199 -550.104,-362.729 -555.534,-373.169 -560.128,-379.434 
	-563.468,-384.445 -563.468,-388.622 -438.593,-536.881 -436.087,-530.197 -433.162,-519.758 -429.821,-512.24 -426.48,-508.063 
	-422.303,-508.063 -421.051,-512.659 -417.709,-515.581 -408.521,-513.91 -406.016,-505.975 -397.663,-505.975 -391.398,-508.899 
	-383.045,-509.734 -376.78,-508.899 "/>
<polyline fill="#F0DEAE" stroke="#2EA6DE" stroke-width="2.551" stroke-miterlimit="10" points="-175.474,-482.171 
	-171.297,-489.688 -170.461,-496.37 -165.868,-501.382 -157.933,-503.469 -152.503,-494.699 -149.999,-491.359 -148.325,-485.094 
	-143.314,-482.588 -140.39,-478.411 -142.897,-475.071 -148.325,-472.147 -147.907,-468.388 -139.973,-462.125 -136.213,-448.343 
	-132.455,-442.913 -127.444,-442.495 -124.938,-448.343 -126.611,-453.354 -130.369,-462.125 -123.268,-460.454 -117.84,-450.431 
	-117.001,-440.407 -114.076,-434.978 -111.573,-433.307 -104.474,-435.814 -101.966,-445.836 -98.208,-450.847 -98.208,-456.278 
	-100.714,-468.388 -98.208,-473.816 -94.449,-474.235 -87.769,-471.31 -84.427,-464.211 -79.834,-466.718 -74.82,-465.884 
	-74.82,-462.959 -79.417,-459.619 -81.502,-455.86 -81.502,-447.088 -79.417,-441.661 -74.82,-442.078 -71.477,-438.319 
	-67.719,-434.56 -75.236,-421.614 -78.161,-419.109 -81.919,-419.944 -85.262,-423.284 -87.769,-419.944 -94.031,-414.932 
	-105.307,-417.019 -104.474,-412.01 -102.803,-406.161 -109.902,-401.568 -117.84,-401.151 -124.519,-404.491 -130.369,-405.745 
	-133.709,-396.555 -124.938,-391.961 -119.092,-391.127 "/>
<polyline fill="#F0DEAE" stroke="#2EA6DE" stroke-width="2.551" stroke-miterlimit="10" points="-165.868,-99.622 -261.093,-99.622 
	-362.581,-103.798 -447.781,-110.062 -501.657,-117.162 -508.34,-130.525 -512.098,-135.957 -511.681,-145.561 -513.351,-151.825 
	-516.692,-157.254 -523.792,-160.179 -531.311,-165.606 -537.993,-170.618 -541.752,-173.541 -542.587,-179.806 -536.74,-187.323 
	-535.069,-196.094 -535.903,-198.181 -535.486,-204.447 -532.981,-211.128 -530.475,-219.898 -537.574,-226.163 -539.662,-227.416 
	-540.917,-235.352 -538.828,-242.45 -535.486,-251.639 -533.398,-259.156 -534.234,-265.421 -533.398,-270.432 -532.981,-276.696 
	-532.145,-283.378 -530.056,-291.312 -530.056,-298.414 -530.475,-306.348 -529.222,-313.03 -529.639,-322.219 -530.475,-328.901 
	-532.145,-334.748 -535.903,-339.759 -540.081,-344.771 -546.763,-350.199 -550.104,-362.729 -555.534,-373.169 -560.128,-379.434 
	-563.468,-384.445 -563.468,-388.622 -438.593,-536.881 -436.087,-530.197 -433.162,-519.758 -429.821,-512.24 -426.48,-508.063 
	-422.303,-508.063 -421.051,-512.659 -417.709,-515.581 -408.521,-513.91 -406.016,-505.975 -397.663,-505.975 -391.398,-508.899 
	-383.045,-509.734 -376.78,-508.899 "/>
<polyline fill="#F0DEAE" stroke="#2EA6DE" stroke-width="2.551" stroke-miterlimit="10" points="-175.474,-482.171 
	-171.297,-489.688 -170.461,-496.37 -165.868,-501.382 -157.933,-503.469 -152.503,-494.699 -149.999,-491.359 -148.325,-485.094 
	-143.314,-482.588 -140.39,-478.411 -142.897,-475.071 -148.325,-472.147 -147.907,-468.388 -139.973,-462.125 -136.213,-448.343 
	-132.455,-442.913 -127.444,-442.495 -124.938,-448.343 -126.611,-453.354 -130.369,-462.125 -123.268,-460.454 -117.84,-450.431 
	-117.001,-440.407 -114.076,-434.978 -111.573,-433.307 -104.474,-435.814 -101.966,-445.836 -98.208,-450.847 -98.208,-456.278 
	-100.714,-468.388 -98.208,-473.816 -94.449,-474.235 -87.769,-471.31 -84.427,-464.211 -79.834,-466.718 -74.82,-465.884 
	-74.82,-462.959 -79.417,-459.619 -81.502,-455.86 -81.502,-447.088 -79.417,-441.661 -74.82,-442.078 -71.477,-438.319 
	-67.719,-434.56 -75.236,-421.614 -78.161,-419.109 -81.919,-419.944 -85.262,-423.284 -87.769,-419.944 -94.031,-414.932 
	-105.307,-417.019 -104.474,-412.01 -102.803,-406.161 -109.902,-401.568 -117.84,-401.151 -124.519,-404.491 -130.369,-405.745 
	-133.709,-396.555 -124.938,-391.961 -119.092,-391.127 "/>
<polyline fill="#F0DEAE" stroke="#2EA6DE" stroke-width="2.551" stroke-miterlimit="10" points="-165.868,427.009 -167.957,422.832 
	-174.638,416.986 -179.233,413.228 -182.991,412.39 -184.663,404.458 -188.421,394.434 -191.343,393.183 -196.356,389.008 
	-197.608,383.574 -196.356,377.311 -200.115,362.693 -203.038,347.242 -202.621,334.71 -197.608,324.692 -196.356,321.767 
	-200.949,316.757 -201.786,315.922 -209.302,315.922 -212.227,315.503 -226.844,307.569 -233.943,297.125 -236.868,290.861 
	-251.485,269.145 -254.827,264.969 -258.168,259.959 -267.356,254.11 -269.444,252.857 -278.633,253.275 -284.062,255.365 
	-288.24,262.044 -290.328,265.804 -297.01,266.638 -302.438,262.044 -309.12,257.035 -312.462,251.606 -316.221,245.341 
	-320.816,240.329 -325.409,234.484 -328.752,229.469 -334.18,224.459 -340.446,220.284 -349.215,218.612 -350.886,219.031 
	-356.315,218.612 -362.997,217.359 -370.515,218.612 -375.11,220.7 -378.033,228.635 -383.879,229.053 -390.146,229.053 
	-396.41,227.799 -403.51,225.293 -412.279,224.875 -418.963,223.625 -425.645,221.535 -431.909,220.284 -439.845,217.359 
	-447.781,215.69 -454.046,214.439 "/>
<polyline fill="#F0DEAE" stroke="#2EA6DE" stroke-width="2.551" stroke-miterlimit="10" points="-454.046,214.439 -462.398,209.006 
	-467.827,204.829 -472.003,201.487 -484.117,201.072 -492.051,201.487 -499.987,202.323 -494.557,225.712 -489.963,234.484 
	-486.205,243.672 -485.368,254.947 -477.85,265.804 -467.827,273.738 -461.979,277.498 -459.056,282.091 -458.639,287.104 
	-461.146,290.445 -470.333,290.026 -473.257,290.445 -472.84,291.281 -465.322,296.71 -457.387,302.554 -450.287,311.745 
	-443.603,315.922 -437.756,323.857 -432.746,333.46 -431.074,343.064 -428.569,348.495 -421.886,354.339 -413.951,361.026 
	-408.939,366.036 -405.599,373.136 -399.333,381.905 -395.156,384.415 -389.728,382.322 -388.057,378.148 -391.398,371.883 
	-395.993,366.455 -401.004,360.608 -407.269,360.608 -409.357,356.013 -407.269,350.167 -409.357,346.408 -413.116,343.064 
	-419.38,318.842 -421.469,316.757 -421.886,320.097 -438.593,285.851 -442.351,280.838 -456.968,268.312 -461.979,260.375 
	-467.411,247.847 -467.827,236.988 -470.751,227.381 -469.498,221.953 -464.486,220.284 -460.727,223.208 -445.693,230.306 
	-444.022,235.318 -446.11,238.66 "/>
<polyline fill="#F0DEAE" stroke="#2EA6DE" stroke-width="2.551" stroke-miterlimit="10" points="-446.11,238.66 -441.515,243.672 
	-439.845,254.11 -432.328,272.069 -426.48,277.498 -421.051,285.016 -409.775,290.445 -406.851,295.875 -408.104,299.216 
	-403.092,303.391 -397.245,311.329 -389.309,319.679 -383.462,328.031 -385.551,332.626 -374.274,338.889 -362.162,352.673 
	-352.557,363.112 -342.532,375.223 -338.356,379.815 -331.674,386.917 -324.573,403.622 -319.146,409.471 -314.969,417.405 
	-315.387,418.656 -320.816,421.999 -322.903,424.921 -319.98,434.528 -313.299,440.371 -307.868,444.968 -298.262,450.815 
	-291.579,452.901 -286.985,457.915 -278.633,462.927 -271.115,463.759 -263.181,463.343 -257.333,465.849 -250.65,468.772 
	-243.133,473.367 -236.032,476.29 -232.691,477.544 -226.008,480.465 -218.91,482.555 -212.643,484.222 -203.874,483.39 
	-192.597,490.072 -183.41,490.072 -173.386,493.413 -165.868,494.25 "/>
<polyline fill="#F0DEAE" stroke="#2EA6DE" stroke-width="2.551" stroke-miterlimit="10" points="-165.868,427.009 -167.957,422.832 
	-174.638,416.986 -179.233,413.228 -182.991,412.39 -184.663,404.458 -188.421,394.434 -191.343,393.183 -196.356,389.008 
	-197.608,383.574 -196.356,377.311 -200.115,362.693 -203.038,347.242 -202.621,334.71 -197.608,324.692 -196.356,321.767 
	-200.949,316.757 -201.786,315.922 -209.302,315.922 -212.227,315.503 -226.844,307.569 -233.943,297.125 -236.868,290.861 
	-251.485,269.145 -254.827,264.969 -258.168,259.959 -267.356,254.11 -269.444,252.857 -278.633,253.275 -284.062,255.365 
	-288.24,262.044 -290.328,265.804 -297.01,266.638 -302.438,262.044 -309.12,257.035 -312.462,251.606 -316.221,245.341 
	-320.816,240.329 -325.409,234.484 -328.752,229.469 -334.18,224.459 -340.446,220.284 -349.215,218.612 -350.886,219.031 
	-356.315,218.612 -362.997,217.359 -370.515,218.612 -375.11,220.7 -378.033,228.635 -383.879,229.053 -390.146,229.053 
	-396.41,227.799 -403.51,225.293 -412.279,224.875 -418.963,223.625 -425.645,221.535 -431.909,220.284 -439.845,217.359 
	-447.781,215.69 -454.046,214.439 "/>
<polyline fill="#F0DEAE" stroke="#2EA6DE" stroke-width="2.551" stroke-miterlimit="10" points="-454.046,214.439 -462.398,209.006 
	-467.827,204.829 -472.003,201.487 -484.117,201.072 -492.051,201.487 -499.987,202.323 -494.557,225.712 -489.963,234.484 
	-486.205,243.672 -485.368,254.947 -477.85,265.804 -467.827,273.738 -461.979,277.498 -459.056,282.091 -458.639,287.104 
	-461.146,290.445 -470.333,290.026 -473.257,290.445 -472.84,291.281 -465.322,296.71 -457.387,302.554 -450.287,311.745 
	-443.603,315.922 -437.756,323.857 -432.746,333.46 -431.074,343.064 -428.569,348.495 -421.886,354.339 -413.951,361.026 
	-408.939,366.036 -405.599,373.136 -399.333,381.905 -395.156,384.415 -389.728,382.322 -388.057,378.148 -391.398,371.883 
	-395.993,366.455 -401.004,360.608 -407.269,360.608 -409.357,356.013 -407.269,350.167 -409.357,346.408 -413.116,343.064 
	-419.38,318.842 -421.469,316.757 -421.886,320.097 -438.593,285.851 -442.351,280.838 -456.968,268.312 -461.979,260.375 
	-467.411,247.847 -467.827,236.988 -470.751,227.381 -469.498,221.953 -464.486,220.284 -460.727,223.208 -445.693,230.306 
	-444.022,235.318 -446.11,238.66 "/>
<polyline fill="#F0DEAE" stroke="#2EA6DE" stroke-width="2.551" stroke-miterlimit="10" points="-446.11,238.66 -441.515,243.672 
	-439.845,254.11 -432.328,272.069 -426.48,277.498 -421.051,285.016 -409.775,290.445 -406.851,295.875 -408.104,299.216 
	-403.092,303.391 -397.245,311.329 -389.309,319.679 -383.462,328.031 -385.551,332.626 -374.274,338.889 -362.162,352.673 
	-352.557,363.112 -342.532,375.223 -338.356,379.815 -331.674,386.917 -324.573,403.622 -319.146,409.471 -314.969,417.405 
	-315.387,418.656 -320.816,421.999 -322.903,424.921 -319.98,434.528 -313.299,440.371 -307.868,444.968 -298.262,450.815 
	-291.579,452.901 -286.985,457.915 -278.633,462.927 -271.115,463.759 -263.181,463.343 -257.333,465.849 -250.65,468.772 
	-243.133,473.367 -236.032,476.29 -232.691,477.544 -226.008,480.465 -218.91,482.555 -212.643,484.222 -203.874,483.39 
	-192.597,490.072 -183.41,490.072 -173.386,493.413 -165.868,494.25 "/>
<polyline fill="#F0DEAE" stroke="#2EA6DE" stroke-width="2.551" stroke-miterlimit="10" points="-165.868,-99.622 -261.093,-99.622 
	-362.581,-103.381 -447.781,-110.062 -501.657,-117.162 -500.821,-110.48 -500.404,-109.645 -500.821,-103.381 -502.075,-96.697 
	-504.58,-91.269 -509.174,-85.42 -510.011,-85.42 -515.021,-85.841 -517.945,-91.269 -517.945,-96.697 -515.021,-100.039 
	-515.44,-102.544 -522.122,-107.975 -527.134,-110.062 -530.056,-109.645 -532.145,-105.469 -530.893,-102.128 -529.222,-93.356 
	-530.475,-86.677 -530.893,-79.575 -530.893,-73.309 -532.981,-66.629 -535.486,-60.782 -539.662,-53.682 -546.345,-45.332 
	-549.269,-37.396 -548.434,-30.297 -551.774,-21.108 -554.697,-14.007 -559.293,-7.741 -559.711,-3.149 -558.04,0.193 
	-558.458,3.534 -563.052,19.822 -565.975,33.602 -568.898,37.778 -572.239,41.121 -572.659,45.297 -570.987,47.8 -566.812,59.079 
	-566.812,67.013 -566.812,73.278 -565.14,79.123 -563.052,83.717 -557.206,86.223 -556.369,89.985 -557.622,92.488 -563.468,96.246 
	-562.633,100.842 -558.874,105.852 -556.369,111.28 -558.874,114.205 -557.206,122.558 -547.18,141.77 -544.257,148.448 "/>
<polyline fill="#F0DEAE" stroke="#2EA6DE" stroke-width="2.551" stroke-miterlimit="10" points="-544.257,148.448 -548.017,153.043 
	-545.928,156.799 -536.321,160.978 -527.134,169.331 -513.351,179.355 -512.515,180.19 -507.921,188.125 -503.328,193.972 
	-499.987,202.323 -492.051,201.487 -484.117,201.072 -472.003,201.487 -467.827,204.829 -462.398,209.422 -454.046,214.439 
	-447.781,215.69 -439.845,217.359 -431.909,220.284 -425.645,221.535 -418.963,223.625 -412.279,224.875 -403.51,225.293 
	-396.41,227.799 -390.146,229.053 -383.879,229.053 -378.033,228.635 -375.11,220.7 -370.515,218.612 -362.997,217.359 
	-356.315,218.612 -350.886,219.031 -349.215,218.612 -340.446,220.284 -334.18,224.459 -328.752,229.469 -325.409,234.484 
	-320.816,240.329 -316.221,245.341 -312.462,251.606 -309.12,257.035 -302.438,262.044 -297.01,266.638 -290.328,265.804 
	-288.24,262.044 -284.062,255.365 -278.633,253.275 -269.444,252.857 -267.356,254.11 -258.585,259.959 -254.827,264.969 
	-251.485,269.145 -236.868,290.861 -233.943,297.125 -226.844,307.569 -212.227,315.503 -209.302,315.922 -201.786,315.922 
	-200.949,316.757 -196.356,321.351 "/>
<polyline fill="#F0DEAE" stroke="#2EA6DE" stroke-width="2.551" stroke-miterlimit="10" points="-165.868,-99.622 -261.093,-99.622 
	-362.581,-103.381 -447.781,-110.062 -501.657,-117.162 -500.821,-110.48 -500.404,-109.645 -500.821,-103.381 -502.075,-96.697 
	-504.58,-91.269 -509.174,-85.42 -510.011,-85.42 -515.021,-85.841 -517.945,-91.269 -517.945,-96.697 -515.021,-100.039 
	-515.44,-102.544 -522.122,-107.975 -527.134,-110.062 -530.056,-109.645 -532.145,-105.469 -530.893,-102.128 -529.222,-93.356 
	-530.475,-86.677 -530.893,-79.575 -530.893,-73.309 -532.981,-66.629 -535.486,-60.782 -539.662,-53.682 -546.345,-45.332 
	-549.269,-37.396 -548.434,-30.297 -551.774,-21.108 -554.697,-14.007 -559.293,-7.741 -559.711,-3.149 -558.04,0.193 
	-558.458,3.534 -563.052,19.822 -565.975,33.602 -568.898,37.778 -572.239,41.121 -572.659,45.297 -570.987,47.8 -566.812,59.079 
	-566.812,67.013 -566.812,73.278 -565.14,79.123 -563.052,83.717 -557.206,86.223 -556.369,89.985 -557.622,92.488 -563.468,96.246 
	-562.633,100.842 -558.874,105.852 -556.369,111.28 -558.874,114.205 -557.206,122.558 -547.18,141.77 -544.257,148.448 "/>
<polyline fill="#F0DEAE" stroke="#2EA6DE" stroke-width="2.551" stroke-miterlimit="10" points="-544.257,148.448 -548.017,153.043 
	-545.928,156.799 -536.321,160.978 -527.134,169.331 -513.351,179.355 -512.515,180.19 -507.921,188.125 -503.328,193.972 
	-499.987,202.323 -492.051,201.487 -484.117,201.072 -472.003,201.487 -467.827,204.829 -462.398,209.422 -454.046,214.439 
	-447.781,215.69 -439.845,217.359 -431.909,220.284 -425.645,221.535 -418.963,223.625 -412.279,224.875 -403.51,225.293 
	-396.41,227.799 -390.146,229.053 -383.879,229.053 -378.033,228.635 -375.11,220.7 -370.515,218.612 -362.997,217.359 
	-356.315,218.612 -350.886,219.031 -349.215,218.612 -340.446,220.284 -334.18,224.459 -328.752,229.469 -325.409,234.484 
	-320.816,240.329 -316.221,245.341 -312.462,251.606 -309.12,257.035 -302.438,262.044 -297.01,266.638 -290.328,265.804 
	-288.24,262.044 -284.062,255.365 -278.633,253.275 -269.444,252.857 -267.356,254.11 -258.585,259.959 -254.827,264.969 
	-251.485,269.145 -236.868,290.861 -233.943,297.125 -226.844,307.569 -212.227,315.503 -209.302,315.922 -201.786,315.922 
	-200.949,316.757 -196.356,321.351 "/>
<polyline fill="#F0DEAE" stroke="#2EA6DE" stroke-width="2.551" stroke-miterlimit="10" points="111.035,3.534 108.526,0.609 
	108.526,-5.656 112.704,-13.174 117.716,-17.768 122.726,-19.854 128.154,-26.12 139.437,-29.878 144.447,-34.054 145.282,-38.647 
	143.188,-42.407 139.853,-44.492 140.688,-52.012 137.763,-60.362 139.016,-67.881 143.607,-76.234 149.457,-80.827 153.632,-86.26 
	159.9,-90.434 164.91,-93.773 171.175,-97.115 174.935,-98.37 175.769,-99.622 175.351,-103.798 174.095,-104.633 170.343,-106.303 
	167,-108.391 161.569,-112.985 154.888,-123.427 153.216,-128.855 146.951,-138.461 140.688,-138.879 135.257,-135.119 
	131.079,-129.273 128.154,-123.008 126.904,-115.493 126.904,-108.391 123.145,-101.292 116.881,-91.686 107.275,-85.42 
	95.998,-83.334 88.479,-84.169 80.544,-81.662 73.028,-76.234 67.181,-68.715 63.422,-58.694 61.75,-52.429 57.991,-48.252 
	38.363,-38.23 30.01,-33.638 35.02,-25.285 25.416,-20.687 14.14,-14.425 4.95,-8.577 -4.237,-1.897 -11.337,3.534 -15.513,4.369 
	-19.69,0.609 -20.106,-1.479 -16.35,-9.833 "/>
<polyline fill="#F0DEAE" stroke="#2EA6DE" stroke-width="2.551" stroke-miterlimit="10" points="-16.35,-9.833 -14.681,-18.184 
	-14.681,-28.625 -16.766,-36.141 -21.36,-43.659 -27.628,-54.934 -34.725,-64.124 -43.078,-72.892 -48.506,-77.906 -60.201,-84.169 
	-73.568,-90.018 -85.678,-97.115 -100.297,-102.961 -103.222,-102.128 -108.231,-97.949 -118.258,-96.281 -127.027,-96.697 
	-140.808,-94.611 -149.163,-96.697 -154.591,-101.709 -158.35,-102.544 -165.868,-99.622 "/>
<polyline fill="#F0DEAE" stroke="#2EA6DE" stroke-width="2.551" stroke-miterlimit="10" points="111.035,3.534 108.526,0.609 
	108.526,-5.656 112.704,-13.174 117.716,-17.768 122.726,-19.854 128.154,-26.12 139.437,-29.878 144.447,-34.054 145.282,-38.647 
	143.188,-42.407 139.853,-44.492 140.688,-52.012 137.763,-60.362 139.016,-67.881 143.607,-76.234 149.457,-80.827 153.632,-86.26 
	159.9,-90.434 164.91,-93.773 171.175,-97.115 174.935,-98.37 175.769,-99.622 175.351,-103.798 174.095,-104.633 170.343,-106.303 
	167,-108.391 161.569,-112.985 154.888,-123.427 153.216,-128.855 146.951,-138.461 140.688,-138.879 135.257,-135.119 
	131.079,-129.273 128.154,-123.008 126.904,-115.493 126.904,-108.391 123.145,-101.292 116.881,-91.686 107.275,-85.42 
	95.998,-83.334 88.479,-84.169 80.544,-81.662 73.028,-76.234 67.181,-68.715 63.422,-58.694 61.75,-52.429 57.991,-48.252 
	38.363,-38.23 30.01,-33.638 35.02,-25.285 25.416,-20.687 14.14,-14.425 4.95,-8.577 -4.237,-1.897 -11.337,3.534 -15.513,4.369 
	-19.69,0.609 -20.106,-1.479 -16.35,-9.833 "/>
<polyline fill="#F0DEAE" stroke="#2EA6DE" stroke-width="2.551" stroke-miterlimit="10" points="-16.35,-9.833 -14.681,-18.184 
	-14.681,-28.625 -16.766,-36.141 -21.36,-43.659 -27.628,-54.934 -34.725,-64.124 -43.078,-72.892 -48.506,-77.906 -60.201,-84.169 
	-73.568,-90.018 -85.678,-97.115 -100.297,-102.961 -103.222,-102.128 -108.231,-97.949 -118.258,-96.281 -127.027,-96.697 
	-140.808,-94.611 -149.163,-96.697 -154.591,-101.709 -158.35,-102.544 -165.868,-99.622 "/>
<polygon fill="none" stroke="#EC008C" stroke-width="2.551" stroke-miterlimit="10" points="78.818,273.731 341.16,341.395 
	280.548,86.054 "/>
<polygon opacity="0.2" fill="#EC008C" enable-background="new    " points="78.818,273.731 341.16,341.395 280.548,86.054 "/>
<polygon points="78.818,266.195 80.509,271.402 85.985,271.402 81.556,274.621 83.247,279.83 78.818,276.611 74.388,279.83 
	76.08,274.621 71.65,271.402 77.126,271.402 "/>
<polygon points="341.16,333.859 342.851,339.066 348.328,339.066 343.898,342.285 345.589,347.494 341.16,344.275 336.73,347.494 
	338.423,342.285 333.992,339.066 339.468,339.066 "/>
<polygon fill="#F0DEAE" stroke="#2EA6DE" stroke-width="2.551" stroke-miterlimit="10" points="285.009,75.77 287.098,76.186 
	287.517,79.11 287.098,80.364 282.923,86.629 279.998,87.463 278.328,85.792 277.908,84.123 279.582,79.11 "/>
</svg>
