<?xml version="1.0" encoding="UTF-8" standalone="no"?>
<!-- Created with Inkscape (http://www.inkscape.org/) -->

<svg
   xmlns:dc="http://purl.org/dc/elements/1.1/"
   xmlns:cc="http://creativecommons.org/ns#"
   xmlns:rdf="http://www.w3.org/1999/02/22-rdf-syntax-ns#"
   xmlns:svg="http://www.w3.org/2000/svg"
   xmlns="http://www.w3.org/2000/svg"
   xmlns:xlink="http://www.w3.org/1999/xlink"
   xmlns:sodipodi="http://sodipodi.sourceforge.net/DTD/sodipodi-0.dtd"
   xmlns:inkscape="http://www.inkscape.org/namespaces/inkscape"
   version="1.0"
   x="0.0000000"
   y="0.0000000"
   width="825"
   height="803"
   id="svg1"
   sodipodi:version="0.32"
   inkscape:version="0.48.2 r9819"
   sodipodi:docname="Hecataeus_world_map-grc.svg">
  <sodipodi:namedview
     inkscape:window-height="690"
     inkscape:window-width="667"
     inkscape:pageshadow="2"
     inkscape:pageopacity="0.0"
     guidetolerance="10.0"
     gridtolerance="10.0"
     objecttolerance="10.0"
     borderopacity="1.0"
     bordercolor="#666666"
     pagecolor="#ffffff"
     id="base"
     width="825px"
     height="803px"
     inkscape:zoom="1.428093"
     inkscape:cx="585.81904"
     inkscape:cy="463.74109"
     inkscape:window-x="683"
     inkscape:window-y="0"
     inkscape:current-layer="svg1"
     borderlayer="false"
     inkscape:showpageshadow="true"
     showgrid="true"
     inkscape:window-maximized="0" />
  <defs
     id="defs3">
    <linearGradient
       id="linearGradient2776">
      <stop
         id="stop2778"
         offset="0"
         style="stop-color:#69c;stop-opacity:1;" />
      <stop
         style="stop-color:#69c;stop-opacity:1;"
         offset="0.5"
         id="stop3699" />
      <stop
         id="stop4589"
         offset="0.75"
         style="stop-color:#69c;stop-opacity:1;" />
      <stop
         style="stop-color:#69c;stop-opacity:1;"
         offset="0.875"
         id="stop4591" />
      <stop
         id="stop5540"
         offset="0.9375"
         style="stop-color:#69c;stop-opacity:1;" />
      <stop
         style="stop-color:#7ca5ce;stop-opacity:0.90588236;"
         offset="0.96875"
         id="stop6427" />
      <stop
         id="stop2780"
         offset="1"
         style="stop-color:#92b1d0;stop-opacity:0.68627453;" />
    </linearGradient>
    <radialGradient
       spreadMethod="pad"
       gradientUnits="userSpaceOnUse"
       gradientTransform="matrix(1,0,0,0.944618,0,35.19316)"
       r="514.64319"
       fy="635.46252"
       fx="753.26636"
       cy="635.46252"
       cx="753.26636"
       id="radialGradient2782"
       xlink:href="#linearGradient2776"
       inkscape:collect="always" />
  </defs>
  <metadata
     id="metadata4">
    <RDF
       id="RDF5">
      <Work
         about=""
         id="Work6">
        <format
           id="format7">image/svg+xml</format>
        <type
           id="type9"
           resource="http://purl.org/dc/dcmitype/StillImage" />
      </Work>
    </RDF>
    <rdf:RDF>
      <cc:Work
         rdf:about="">
        <dc:format>image/svg+xml</dc:format>
        <dc:type
           rdf:resource="http://purl.org/dc/dcmitype/StillImage" />
        <dc:title />
      </cc:Work>
    </rdf:RDF>
  </metadata>
  <g
     id="g1998"
     transform="matrix(0.795689,0,0,0.784778,-7.46704,-10.92251)">
    <path
       transform="matrix(0.944512,0,0,1,-184.1828,-109.9362)"
       d="m 1266.3018,635.46252 c 0,267.60047 -229.6938,484.53348 -513.03544,484.53348 -283.34166,0 -513.03546,-216.93301 -513.03546,-484.53348 0,-267.60046 229.6938,-484.5335 513.03546,-484.5335 283.34164,0 513.03544,216.93304 513.03544,484.5335 z"
       sodipodi:ry="484.53351"
       sodipodi:rx="513.03546"
       sodipodi:cy="635.46252"
       sodipodi:cx="753.26636"
       id="path909"
       style="fill:url(#radialGradient2782);fill-opacity:1;fill-rule:evenodd;stroke:black;stroke-width:3.21548343;stroke-linecap:butt;stroke-linejoin:miter;stroke-miterlimit:4;stroke-dasharray:none;stroke-opacity:1"
       sodipodi:type="arc" />
  </g>
  <text
     x="-414.19626"
     y="83.663971"
     style="font-size:40px;font-style:normal;font-variant:normal;font-weight:normal;font-stretch:normal;text-align:center;line-height:125%;writing-mode:lr-tb;text-anchor:middle;fill:#000000;fill-opacity:1;stroke:none;font-family:Bitstream Vera Sans"
     id="text3999"
     xml:space="preserve"
     sodipodi:linespacing="125%"
     transform="matrix(0,-1,1,0,0,0)"><tspan
       sodipodi:role="line"
       id="tspan4003"
       x="-414.19626"
       y="83.663971">ΩΚΕΑΝΟΣ</tspan></text>
  <text
     x="411.55212"
     y="-736.89917"
     style="font-size:40px;font-style:normal;font-variant:normal;font-weight:normal;font-stretch:normal;text-align:center;line-height:125%;writing-mode:lr-tb;text-anchor:middle;fill:#000000;fill-opacity:1;stroke:none;font-family:Bitstream Vera Sans"
     id="text4005"
     xml:space="preserve"
     sodipodi:linespacing="125%"
     transform="matrix(0,1,-1,0,0,0)"><tspan
       sodipodi:role="line"
       id="tspan4007"
       x="411.55212"
       y="-736.89917">ΩΚΕΑΝΟΣ</tspan></text>
  <path
     d="M 409.2218,107.96876 C 252.80659,107.96876 172.1178,188.58278 116.81555,326.59375 C 96.452722,391.39651 106.31833,389.69456 102.1593,406.25 C 108.77583,432.78258 92.333782,440.81687 106.76189,440.81686 C 111.74177,442.59823 115.0325,449.5799 117.32949,448.99104 L 124.27624,442.85166 L 126.13336,441.03848 L 130.28082,441.00667 L 133.66483,443.51968 L 136.79435,443.74235 L 139.6694,441.16572 L 142.28996,438.84357 L 149.42493,437.28089 L 154.01507,434.19132 L 160.38658,419.65007 L 166.50362,409.43501 L 167.27653,405.32751 L 183.06388,393.58556 L 202.92293,381.08016 L 205.78703,378.08553 L 209.41458,377.12675 L 213.5511,374.13211 L 215.65176,370.62851 L 217.24346,368.6518 L 227.23305,368.96543 L 230.8606,370.29699 L 234.3042,372.46748 L 237.49332,374.12901 L 243.99072,381.38913 L 245.14399,384.57755 L 250.11448,385.98459 L 252.54016,388.15508 L 257.51066,392.10694 L 259.17289,395.54984 L 261.84495,396.09337 L 265.02597,397.65482 L 268.71596,399.72524 L 274.95077,405.86737 L 276.85938,406.15642 L 276.98662,408.7358 L 278.38627,410.29726 L 278.40218,414.34148 L 272.81948,422.45741 L 270.54505,423.95681 L 270.81544,426.72862 L 272.61272,429.24595 L 275.17344,429.21846 L 279.77002,425.37375 L 282.15777,424.73411 L 285.56346,421.80413 L 285.91536,418.1107 L 283.97692,416.9621 L 285.09227,412.75971 L 290.27933,410.3387 L 294.70294,409.95354 L 297.7689,412.00487 L 300.3259,412.52931 L 300.33807,408.72756 L 297.80543,406.70718 L 297.81761,405.19576 L 294.776,402.9209 L 294.78818,401.66397 L 289.95454,396.35359 L 288.17469,395.87837 L 285.88588,394.13074 L 285.8874,392.38312 L 282.58066,389.1086 L 280.54633,389.14234 L 274.44028,376.19751 L 268.81006,372.03459 L 267.25155,368.88959 L 267.47441,362.69081 L 262.86212,360.56375 L 260.79464,357.92772 L 260.50854,354.52824 L 265.0576,349.85635 L 265.21269,345.93229 L 263.8409,342.77168 L 263.74152,340.12003 L 265.16903,336.95941 L 268.88687,335.58017 L 272.35023,336.23678 L 274.28671,340.20166 L 276.59643,341.81063 L 278.90615,341.12926 L 281.21588,338.921 L 285.51269,338.64497 L 285.99226,340.65927 L 288.50769,341.65565 L 290.0052,343.66995 L 286.66755,347.9746 L 284.60231,348.97097 L 285.08188,351.23976 L 287.11406,354.51352 L 290.92762,357.27832 L 291.68739,360.04311 L 293.46509,361.5355 L 296.5152,360.99204 L 300.07427,357.1403 L 303.12439,356.85131 L 305.95504,361.205 L 306.49535,365.55869 L 309.326,365.84067 L 311.90217,368.92195 L 313.7149,368.94945 L 313.74625,371.0128 L 312.25071,372.05822 L 312.41368,385.70825 L 309.26838,391.9783 L 309.68584,395.19458 L 311.63018,395.35706 L 311.53867,398.82782 L 315.0099,404.07994 L 324.5887,407.55069 L 331.0233,407.78217 L 336.94894,411.19468 L 344.27423,415.24339 L 349.47743,418.00513 L 353.15375,418.09481 L 355.43041,419.20242 L 358.73185,420.45605 L 360.50638,421.20072 L 360.51464,422.53141 L 354.79705,422.58968 L 353.91463,421.75728 L 351.63255,421.81556 L 350.62288,422.76452 L 350.88562,426.89451 L 354.32939,426.82555 L 354.33764,430.8283 L 353.38579,431.42176 L 353.5791,436.85038 L 356.31722,436.93489 L 357.52846,435.61974 L 357.97625,433.79563 L 359.56922,433.88013 L 359.88977,437.14566 L 361.43624,437.18549 L 362.72825,435.9529 L 363.00231,433.95687 L 364.5488,433.9967 L 364.56838,437.85375 L 365.73314,438.65702 L 367.66135,438.82409 L 368.58151,437.61581 L 368.48375,434.62614 L 367.4953,434.05407 L 367.27029,429.53751 L 364.11874,426.92957 L 364.02098,423.81268 L 366.72251,423.74956 L 367.97625,424.51704 L 370.24792,424.52106 L 369.97477,422.48923 L 370.71954,420.96637 L 370.70087,416.89869 L 368.90083,413.59445 L 367.35527,410.03573 L 365.67901,402.17901 L 361.9669,396.35814 L 358.76376,394.3545 L 357.08751,392.35086 L 358.46503,390.34722 L 361.87842,384.27186 L 368.0911,384.0496 L 368.4231,385.32525 L 367.2282,386.09192 L 367.81468,391.43927 L 371.20045,391.18802 L 372.55038,388.90092 L 373.64581,388.90415 L 373.97781,391.96116 L 375.10687,392.24151 L 376.23593,390.486 L 377.36499,388.98496 L 378.49405,389.26531 L 379.36863,393.1084 L 380.75218,393.8977 L 382.3902,392.14219 L 382.51583,390.05874 L 381.11457,385.68494 L 379.7133,385.38286 L 379.83893,382.79045 L 384.29075,383.25181 L 385.17982,384.98559 L 390.64957,385.44695 L 394.19941,387.10202 L 398.5127,391.55639 L 402.31702,397.53764 L 404.08549,402.24649 L 403.8181,405.42845 L 395.66177,411.66419 L 395.64887,413.31926 L 397.58147,414.34466 L 400.02304,414.09766 L 402.97357,412.83273 L 410.75926,405.20575 L 413.20083,401.396 L 416.91481,400.13106 L 423.42809,400.13854 L 427.43725,401.97973 L 431.70089,401.53058 L 432.91074,400.57247 L 433.86612,398.59642 L 429.22289,396.62038 L 427.88793,392.60849 L 427.82538,388.34211 L 429.6153,385.51235 L 434.71348,377.33848 L 439.81166,371.96392 L 441.85607,370.91554 L 444.9184,370.63061 L 446.45384,369.58223 L 448.75272,367.26144 L 448.82109,362.69164 L 450.92532,359.13976 L 453.28404,358.13271 L 457.6786,358.14359 L 458.51042,359.93583 L 463.15947,361.72808 L 468.57197,362.5024 L 472.42723,361.06251 L 474.75561,361.1495 L 474.53917,363.78132 L 478.64891,364.1228 L 479.70488,365.22772 L 478.72499,368.87747 L 478.50855,371.2548 L 490.26454,371.18733 L 490.82332,371.8833 L 494.18141,371.30687 L 497.79398,367.93113 L 499.11622,366.59125 L 498.65708,357.61691 L 494.88967,355.76807 L 493.76137,351.15658 L 493.651,344.76372 L 495.322,342.18809 L 498.01093,340.63039 L 498.15504,337.5458 L 499.82604,334.4612 L 499.71567,323.48767 L 502.64991,321.71429 L 503.80279,319.17746 L 504.19222,317.65856 L 507.88991,317.92103 L 510.06071,319.20143 L 512.99496,322.77217 L 513.89336,325.83395 L 514.97293,328.69717 L 516.30699,329.27006 L 518.15001,334.16915 L 518.72062,342.12201 L 519.54572,343.20387 L 519.35288,347.59399 L 517.37868,354.78341 L 515.83602,358.34861 L 511.23957,359.11452 L 509.44243,360.64387 L 506.37287,360.64633 L 503.30332,364.21153 L 501.76066,364.97744 L 501.99937,367.01575 L 503.14561,368.30784 L 507.34563,370.10888 L 508.23739,371.65545 L 511.67397,376.00132 L 512.56572,380.34718 L 512.18507,394.10888 L 511.29546,397.6913 L 506.21439,402.68385 L 504.44159,405.13158 L 492.744,406.56138 L 484.86364,406.71878 L 453.06197,403.82239 L 446.45402,402.45289 L 445.19018,400.82891 L 436.09742,401.07013 L 435.40256,402.83825 L 429.1091,407.66014 L 422.0522,408.15585 L 420.59389,409.92396 L 409.21079,410.16519 L 404.95319,415.75053 L 404.48395,424.55132 L 403.25127,425.97214 L 405.83582,428.15641 L 406.38451,432.37653 L 409.47803,434.05183 L 409.51775,437.50851 L 410.82989,439.43829 L 413.18358,440.62558 L 415.53727,441.55839 L 412.80132,443.25465 L 411.33777,444.69642 L 412.16457,448.68301 L 414.51826,449.10685 L 415.09057,449.78518 L 417.37873,452.92146 L 425.77447,452.74946 L 426.79022,450.28714 L 429.32636,449.34469 L 438.73351,449.42017 L 446.61376,446.18738 L 455.76643,443.46356 L 467.97288,441.2487 L 474.07176,440.81522 L 475.58997,442.41759 L 474.50259,446.58417 L 467.8166,457.36728 L 467.23818,462.55179 L 464.62391,464.68251 L 462.5186,470.37598 L 453.79676,486.75769 L 448.63767,491.43324 L 443.75583,491.93771 L 439.89193,495.49598 L 434.75561,497.78183 L 421.33584,497.25492 L 417.58638,494.69217 L 403.65765,494.67422 L 399.85701,497.14728 L 398.60119,498.8569 L 394.29159,498.53065 L 383.66972,494.93535 L 376.61059,493.12142 L 375.15007,488.50819 L 370.07141,484.56072 L 365.50172,483.92153 L 351.5162,485.0637 L 343.92567,489.88689 L 339.13445,496.49145 L 332.05289,496.47947 L 321.15409,491.37787 L 316.10839,485.76729 L 308.77234,481.17465 L 304.99904,480.39923 L 289.31813,469.61523 L 275.41858,469.51946 L 270.68039,468.15128 L 262.63393,468.31 L 257.13229,470.50457 L 249.59479,470.66328 L 248.41934,469.54959 L 248.43157,467.00207 L 245.6445,466.99938 L 239.29469,470.55943 L 233.19935,470.81122 L 219.97853,473.35334 L 213.11975,473.09617 L 195.06377,474.1114 L 189.30854,476.38019 L 177.95471,476.35864 L 173.98085,472.77434 L 169.75251,471.48038 L 153.818,468.15056 L 148.82622,463.54833 L 145.10685,461.74541 L 134.43799,460.04612 L 127.33189,454.52959 L 125.31542,452.8303 L 120.91004,451.04893 C 115.8694,452.24505 114.80794,454.28808 111.44055,459.09375 C 100.51399,471.73773 101.43183,475.60228 105.1593,490.59375 C 120.01393,517.34247 122.59878,535.22994 150.69055,566.96875 C 203.57129,649.31075 295.23026,702.37501 409.5968,702.375 C 455.13006,699.49587 460.83257,701.30276 511.46663,681.3688 L 511.4477,673.85915 L 506.03039,667.78906 L 501.00386,660.18304 L 499.51448,650.07058 L 494.9969,640.40157 L 487.96008,631.99219 L 487.58125,626.10205 L 479.6447,617.33278 L 475.84692,614.68166 L 471.32934,607.5319 L 466.45187,589.94528 L 461.2145,586.03454 L 460.47578,576.54549 L 458.29751,570.65535 L 448.92139,558.46711 L 448.51014,553.061 L 442.14676,544.45337 L 436.67406,524.26682 L 436.54549,518.96746 L 438.10402,511.13183 L 439.90122,509.88608 L 442.46186,509.78549 L 444.6566,511.11121 L 446.21513,513.32762 L 446.88298,519.36125 L 448.05979,528.95763 L 450.38177,534.35506 L 451.04962,540.77041 L 453.74951,548.6727 L 457.0856,552.50328 L 459.65825,558.24247 L 461.97642,559.40099 L 463.78562,564.2495 L 466.23103,571.38834 L 470.33057,576.87305 L 472.01253,585.02982 L 474.39826,592.38937 L 476.52951,594.78651 L 479.55145,595.40228 L 483.20959,596.90874 L 485.08636,605.15896 L 487.47209,605.90197 L 489.73058,611.09842 L 498.47836,617.82175 L 500.86409,629.253 L 505.54016,635.21289 L 507.0352,643.84484 L 513.49265,653.49472 L 517.27803,663.7808 L 523.73547,676.48446 L 528.2843,680.28125 C 555.67263,667.97097 580.4788,650.16719 605.00305,625.875 C 604.92697,609.11818 605.96572,596.50891 608.2843,581.1875 C 620.93604,530.34914 621.6991,542.14273 692.75305,506.0625 C 721.70919,471.66192 715.82978,474.65954 719.75305,443.65625 C 723.62815,413.03342 714.87105,397.90318 714.2218,383.28125 C 711.45608,326.32973 693.4397,267.02361 660.62805,233.15625 C 653.07002,232.25369 651.88324,235.45775 650.19055,240.8125 C 624.23217,248.28501 608.67984,253.18964 602.19055,241.75 C 599.66001,227.43124 605.04924,214.36987 616.9718,202.21875 C 629.1538,205.66532 630.15027,203.05096 627.25305,197.84375 C 546.98387,119.65285 497.16652,107.96876 409.2218,107.96876 z "
     style="fill:white;fill-opacity:1;fill-rule:evenodd;stroke:black;stroke-width:1pt;stroke-linecap:butt;stroke-linejoin:miter;stroke-opacity:1"
     id="path3416" />
  <path
     d="M 521.47985,415.28973 C 534.57124,414.0156 535.96919,416.2314 547.92082,412.35668 C 552.30034,410.93684 555.80393,402.13326 564.74026,403.6815 C 579.57409,406.2515 582.52997,410.73039 599.36319,416.43598 C 600.17969,416.71273 602.98439,418.40007 606.69609,420.80897 C 610.40778,423.21787 617.54532,430.10904 626.84874,430.05117 C 645.97938,429.93215 652.76689,419.72709 656.93284,423.29344 C 663.01069,428.49652 648.2112,434.55297 635.3977,443.36751 C 627.35929,448.89721 637.61103,462.54225 619.6154,460.78544 C 593.21066,458.2077 597.31164,451.31092 590.55282,447.01874 C 581.12986,441.03469 565.31835,435.3845 564.79313,435.45979 C 563.12974,435.69823 562.14123,438.47338 560.81738,439.47442 C 559.33168,440.59785 528.29339,444.65915 517.71077,437.83163 C 511.0508,433.53486 507.89577,429.28499 504.2637,428.87282 C 496.46325,427.98763 498.14917,424.60467 465.43078,431.43356 C 452.9309,435.85862 453.51738,441.50673 439.56486,443.6043 C 431.74389,444.78007 423.45116,439.74458 423.92737,435.14739 C 424.28726,427.47306 436.61831,426.3673 456.61388,423.84807 C 490.28537,425.64754 496.41919,421.62217 521.47985,415.28973 z "
     style="fill:#b6975a;fill-opacity:1.0000000;fill-rule:evenodd;stroke:none;stroke-width:1pt;stroke-linecap:butt;stroke-linejoin:miter;stroke-opacity:1;"
     id="path10274" />
  <path
     d="M 572.96659,234.67162 C 605.3375,199.3568 603.36918,195.41437 609.02636,198.46039 C 614.19612,201.24397 610.0828,203.64367 602.35621,221.58386 C 601.01522,224.69747 594.77595,239.57615 596.44132,254.85729 C 596.91914,259.24177 601.18164,263.05491 605.85495,266.42371 C 607.22292,267.40982 614.70611,272.22111 633.54567,270.5294 C 651.43465,268.92305 649.72181,263.84827 655.26784,257.52715 C 657.45966,255.02902 670.14741,255.77068 664.45854,265.43904 C 653.10208,284.73961 644.98574,280.8149 636.51769,293.77497 C 628.04965,306.73503 636.0257,319.27512 620.20863,318.57304 C 597.06757,317.54586 602.18239,303.57207 600.81531,302.01392 C 599.51251,300.52902 597.1579,302.81184 594.23473,303.41405 C 590.81229,304.11912 585.61235,296.10328 584.87958,295.8706 C 551.78281,285.36154 540.04013,288.83401 511.03758,284.37528 C 502.13662,284.84153 495.8393,276.27172 490.34423,272.61102 C 483.76219,268.22619 457.05364,280.90469 461.0926,260.52962 C 465.0589,240.44742 482.98416,244.49835 523.54601,246.34148 C 545.83944,242.02589 539.14686,239.62314 572.96659,234.67162 z "
     style="fill:#b6975a;fill-opacity:1.0000000;fill-rule:evenodd;stroke:none;stroke-width:1pt;stroke-linecap:butt;stroke-linejoin:miter;stroke-opacity:1;"
     id="path9031" />
  <path
     d="M 258.1253,321.10856 C 227.71577,340.48469 226.22454,336.51211 220.21537,340.26997 C 215.93188,342.94867 214.64067,351.83705 214.67244,359.38573 C 206.13136,367.22976 182.80088,391.22043 169.9122,380.55375 C 164.12884,375.76745 169.09389,344.12384 178.20751,327.65022 C 206.63895,304.86044 215.91092,295.29723 219.71138,295.83707 C 232.89782,302.36011 218.65209,311.33349 222.13665,314.54051 C 225.52265,317.65681 234.86069,318.94551 240.50539,317.57296 C 256.08511,313.78464 256.83091,305.35048 284.9825,307.05804 C 308.22215,308.45674 314.3118,317.6933 324.08034,322.90741 C 331.96673,327.11689 347.0439,328.91031 356.67066,332.81407 C 369.42818,337.98739 365.44097,342.09716 381.0058,350.59049 C 387.50708,354.13807 391.22636,350.61334 394.84734,352.62978 C 423.80939,368.75814 430.89836,365.7663 432.87655,368.214 C 438.01044,374.56639 423.62652,382.77756 417.03036,383.49617 C 405.09864,384.79606 377.30922,366.75821 365.33679,371.67322 C 357.29332,374.97528 359.85344,386.98919 348.14829,384.84737 C 335.54781,382.54172 342.58826,371.07031 338.95959,365.23477 C 332.44379,354.75624 325.62102,350.74639 318.00123,338.66375 C 310.78805,327.22587 286.6437,314.3065 258.1253,321.10856 z "
     style="fill:#b6975a;fill-opacity:1.0000000;fill-rule:evenodd;stroke:none;stroke-width:1pt;stroke-linecap:butt;stroke-linejoin:miter;stroke-opacity:1;"
     id="path5924" />
  <path
     d="M 149.06267,487.67527 C 147.08459,489.59665 147.46769,489.46774 147.68175,501.97815 C 147.81118,509.54273 149.30488,512.28561 143.39844,513.17629 C 138.09639,513.46259 133.15929,512.71135 130.48862,496.19579 C 129.74374,491.58943 119.23344,490.89651 119.16982,481.08089 C 119.16982,471.24721 127.18217,466.54254 133.14198,466.54254 C 141.98092,466.00271 147.57492,479.61205 149.06267,487.67527 z "
     style="fill:#b6975a;fill-opacity:1.0000000;fill-rule:evenodd;stroke:none;stroke-width:1pt;stroke-linecap:butt;stroke-linejoin:miter;stroke-opacity:1;"
     id="path4680" />
  <path
     d="M 581.8479,389.66794 C 579.50993,393.20883 575.75429,395.95905 563.73202,393.35401 C 556.33792,391.75182 558.33727,389.62569 553.51049,387.45729 C 544.60953,387.92354 546.45563,386.73371 540.96056,383.07301 C 534.37852,378.68818 512.25065,378.13362 512.72686,373.53643 C 512.36697,366.94177 539.45358,369.97477 549.73208,371.05445 C 565.40898,377.17262 581.61977,385.20363 581.8479,389.66794 z "
     style="fill:#b6975a;fill-opacity:1.0000000;fill-rule:evenodd;stroke:none;stroke-width:1pt;stroke-linecap:butt;stroke-linejoin:miter;stroke-opacity:1;"
     id="path8409" />
  <path
     d="M 212.58169,433.02054 L 213.85409,434.32474 L 224.50178,434.1975 L 225.55748,432.84705 L 225.72126,429.19503 L 224.8671,428.59678 L 224.94017,422.69238 L 223.9953,422.00486 L 223.94113,417.24563 L 225.76027,414.62277 L 225.79805,412.2544 L 224.18169,411.28568 L 221.03844,410.06248 L 219.67657,408.20307 L 216.66056,408.12504 L 216.19931,410.42731 L 212.68428,414.25647 L 212.60475,416.17701 L 213.6704,416.18894 L 213.71811,419.12742 L 214.65651,419.26659 L 214.70423,421.0599 L 213.47377,421.0599 L 213.51572,424.74988 L 212.66698,425.38609 L 212.58169,433.02054 z "
     style="fill:white;fill-opacity:1;fill-rule:evenodd;stroke:black;stroke-width:1;stroke-linecap:butt;stroke-linejoin:miter;stroke-miterlimit:4;stroke-opacity:1"
     id="rect11517" />
  <path
     d="M 219.55677,387.46438 L 217.52092,392.71304 L 214.74329,397.32553 L 214.76496,400.28388 L 216.69524,401.33362 L 216.92333,404.42716 L 219.569,404.21244 L 222.34191,402.08911 L 223.57591,396.08692 L 221.75613,395.04712 L 221.71772,392.35319 L 222.69724,392.33132 L 222.57,387.33714 L 219.55677,387.46438 z "
     style="fill:white;fill-opacity:1;fill-rule:evenodd;stroke:black;stroke-width:1;stroke-linecap:butt;stroke-linejoin:miter;stroke-miterlimit:4;stroke-opacity:1"
     id="path12140" />
  <path
     d="M 238.51567,390.26368 L 237.3705,393.222 L 242.80131,393.222 L 241.65614,390.26368 L 238.51567,390.26368 z "
     style="fill:white;fill-opacity:1;fill-rule:evenodd;stroke:black;stroke-width:1;stroke-linecap:butt;stroke-linejoin:miter;stroke-miterlimit:4;stroke-opacity:1"
     id="path12141" />
  <path
     d="M 365.24764,450.19416 L 363.46627,451.49835 L 363.80744,455.95179 L 377.6767,456.42896 L 379.53528,457.20682 L 388.77382,457.09399 L 390.25068,458.25358 L 394.78131,458.26799 L 394.83562,454.25394 L 393.79908,452.20616 L 386.78221,452.19423 L 386.51842,453.26981 L 382.18292,453.07298 L 381.5995,452.13458 L 377.70782,451.95963 L 377.37888,452.92984 L 373.99616,452.75488 L 373.41274,451.18028 L 368.37589,450.36911 L 365.24764,450.19416 z "
     style="fill:white;fill-opacity:1;fill-rule:evenodd;stroke:black;stroke-width:1;stroke-linecap:butt;stroke-linejoin:miter;stroke-miterlimit:4;stroke-opacity:1"
     id="path12143" />
  <path
     d="M 408.63681,454.13863 L 407.74612,457.22419 L 407.83142,459.26005 L 408.95561,459.26005 L 409.57084,460.27798 L 411.96744,459.89625 L 412.58267,458.24212 L 412.66797,456.20627 L 411.39556,454.26587 L 408.63681,454.13863 z "
     style="fill:white;fill-opacity:1;fill-rule:evenodd;stroke:black;stroke-width:1;stroke-linecap:butt;stroke-linejoin:miter;stroke-miterlimit:4;stroke-opacity:1"
     id="path12144" />
  <path
     d="M 443.7553,460.37344 L 441.59221,462.1866 L 441.55166,465.11314 L 442.6332,467.26829 L 449.69508,467.26034 L 450.90387,465.21654 L 453.03515,464.44912 L 456.94781,460.62792 L 457.93646,458.25806 L 459.8158,457.41509 L 460.29549,455.04522 L 454.79485,455.22018 L 450.35156,459.22827 L 445.78102,459.29189 L 443.7553,460.37344 z "
     style="fill:white;fill-opacity:1;fill-rule:evenodd;stroke:black;stroke-width:1;stroke-linecap:butt;stroke-linejoin:miter;stroke-miterlimit:4;stroke-opacity:1"
     id="path12145" />
  <path
     d="M 372.62762,415.58463 L 373.39106,420.06985 L 375.00464,425.79569 L 377.93118,425.00046 L 377.59141,421.15142 L 376.01139,414.46331 L 374.94032,408.41142 L 372.85133,406.68572 L 371.27131,408.14103 L 371.18602,412.56266 L 372.62762,415.58463 z "
     style="fill:white;fill-opacity:1;fill-rule:evenodd;stroke:black;stroke-width:1;stroke-linecap:butt;stroke-linejoin:miter;stroke-miterlimit:4;stroke-opacity:1"
     id="path12147" />
  <path
     d="M 390.01469,391.2802 C 390.01534,390.70841 389.39077,390.24463 388.62011,390.24463 C 387.84944,390.24463 387.22487,390.70841 387.22553,391.2802 C 387.22487,391.85198 387.84944,392.31576 388.62011,392.31576 C 389.39077,392.31576 390.01534,391.85198 390.01469,391.2802 L 390.01469,391.2802 z "
     style="fill:white;fill-opacity:1;fill-rule:evenodd;stroke:black;stroke-width:1pt;stroke-linecap:butt;stroke-linejoin:miter;stroke-opacity:1"
     id="path17737" />
  <path
     d="M 510.94097,399.81351 C 511.51729,399.81351 514.23116,400.68237 515.16705,400.68237 C 516.00491,400.68237 516.9665,400.63454 516.9665,401.40215 C 516.9665,401.98198 518.67406,401.89832 519.24406,401.89832 C 519.24406,402.29104 519.91722,403.5615 520.38548,403.5615 C 520.83338,404.0094 522.45224,403.74144 523.08466,403.74144 C 523.59507,403.74144 525.24401,403.76962 525.24401,403.38155 C 526.32799,403.38155 526.72266,403.5615 527.40336,403.5615 C 527.40336,403.98961 527.97712,405.36096 528.66299,405.36096 C 529.63881,405.36096 530.3372,405.9008 531.18223,405.9008 C 532.05408,405.9008 532.85686,406.62058 533.52152,406.62058 C 533.91483,407.01389 535.46025,407.70025 536.04077,407.70025 C 536.5349,408.19439 537.84022,408.17497 537.84022,408.77993 C 538.3673,408.77993 539.94899,409.35064 540.65761,409.35064 C 540.65761,409.92197 541.78357,410.57939 542.15892,410.57939 C 543.07885,410.57939 543.70295,411.11923 544.49822,411.11923 C 545.21807,411.11923 545.73128,411.83901 546.29768,411.83901 C 547.21016,411.83901 547.781,412.55879 548.81692,412.55879 C 549.84193,412.55879 550.43042,412.73874 551.33616,412.73874 C 551.75735,412.73874 553.80322,413.38114 554.57519,413.63847 C 555.77966,413.63847 556.48449,413.63847 557.45432,413.63847 C 558.55812,413.63847 559.44557,413.45852 560.5134,413.45852 C 561.25961,413.45852 561.28466,414.1783 562.31286,414.1783 C 563.23704,414.1783 563.78287,414.35825 564.8321,414.35825 C 565.18208,414.35825 567.1714,413.89016 567.1714,414.35825 C 567.77132,414.35825 568.13809,415.25798 569.1508,415.25798 C 569.62269,415.25798 571.84999,415.509 571.84999,415.79782 C 571.96636,415.79782 573.8294,416.88519 573.8294,416.15771 C 573.88938,416.15771 574.4892,416.15771 574.00934,416.15771"
     style="fill:none;fill-opacity:0.75;fill-rule:evenodd;stroke:#69c;stroke-width:1.875;stroke-linecap:butt;stroke-linejoin:miter;stroke-miterlimit:4;stroke-opacity:1"
     id="path18995" />
  <path
     d="M 613.95732,446.02872 C 614.6379,446.02872 615.90015,445.8122 616.65651,446.56856 C 616.65651,447.20895 617.94055,447.1084 618.63592,447.1084 C 619.20945,447.1084 620.79527,446.97395 620.79527,447.1084 C 621.55088,447.1084 621.4231,448.36802 622.41478,448.36802 C 622.41478,448.69527 624.34927,448.54796 624.75408,448.54796 C 625.4384,448.54796 625.88918,449.0878 626.91343,449.0878 C 627.99752,449.0878 628.37974,449.80759 629.07278,449.80759 C 629.07278,450.37357 630.68466,450.52737 631.23213,450.52737 C 631.85285,450.52737 632.14323,451.96694 633.03158,451.96694 C 633.03158,452.75312 634.50545,452.68672 635.19094,452.68672 C 636.19668,452.68672 636.40983,453.4065 637.17034,453.4065 C 638.07129,453.4065 638.16419,453.94634 639.14974,453.94634 C 640.04901,453.94634 640.98007,454.30623 642.02888,454.30623 C 642.65358,454.30623 644.00828,453.67847 644.00828,453.22656 C 644.94951,453.22656 645.61182,453.22656 646.52752,453.22656 C 646.99032,453.22656 648.03409,454.19329 648.50693,454.66612 C 649.40299,454.66612 649.59383,455.38591 650.48633,455.38591 C 651.05515,455.95472 652.27326,455.73327 652.82563,456.28564 C 653.51979,456.28564 653.58308,457.36531 654.44514,457.36531 C 655.24679,457.36531 655.53,458.26504 656.42455,458.26504 C 656.95023,458.79073 658.082,458.26504 658.76384,458.26504 C 659.59062,458.26504 660.21692,458.80488 660.92319,458.80488 C 662.05083,458.80488 662.69986,459.34472 663.44244,459.34472 C 664.08303,459.34472 664.80769,460.0645 665.60179,460.0645 C 666.7152,460.0645 667.14411,459.16477 667.58119,459.16477 C 668.1413,459.16477 669.27584,458.98482 670.10043,458.98482 C 670.46773,459.35212 672.97957,459.15574 672.97957,459.70461 C 673.77372,459.70461 674.44269,460.08806 674.95897,460.60434 C 675.4894,460.60434 676.57043,460.96423 677.29827,460.96423 C 678.1948,460.96423 679.18716,461.14417 680.1774,461.14417 C 681.13711,461.14417 682.09682,461.14417 683.05653,461.14417 C 683.88777,461.14417 684.47282,461.66073 685.03594,462.22385 C 685.58138,462.22385 687.37523,462.30618 687.37523,461.68401 C 687.86771,461.68401 688.73002,461.14417 689.71453,461.14417 C 690.91888,461.14417 692.22434,461.32412 693.31345,461.32412 C 694.12592,461.32412 694.64993,461.86396 695.65274,461.86396 C 696.97568,461.86396 698.14003,462.76369 699.61155,462.76369 C 700.51128,462.76369 701.41101,462.76369 702.31074,462.76369 C 702.98787,462.76369 705.00993,462.13534 705.00993,462.94363 C 705.53858,463.47229 706.50028,464.20325 707.16928,464.20325 C 708.0061,464.20325 709.43059,465.06399 710.22836,465.46288 C 710.22836,465.52543 712.0145,466.3626 712.38771,466.3626 C 713.30451,466.3626 714.14377,467.08239 715.0869,467.08239 C 715.9672,467.08239 716.83083,467.26233 717.78609,467.26233 C 718.26179,467.26233 719.43825,466.90244 719.94544,466.90244 C 720.22735,466.90244 720.12538,466.57854 720.12538,466.90244"
     style="fill:none;fill-opacity:0.75;fill-rule:evenodd;stroke:#69c;stroke-width:1.875;stroke-linecap:butt;stroke-linejoin:miter;stroke-miterlimit:4;stroke-opacity:1"
     id="path19617" />
  <path
     d="M 207.27968,348.13817 C 207.27968,347.74646 209.43903,348.37744 209.43903,347.23844 C 209.92431,346.75317 211.02261,346.87855 211.77832,346.87855 C 212.55524,346.87855 213.58226,347.0585 214.47751,347.0585 C 214.47751,346.20759 215.8549,346.33871 216.63686,346.33871 C 216.63686,346.004 219.90516,346.15877 220.59567,346.15877 C 220.59567,345.69984 222.07606,345.03827 222.39513,344.7192 C 223.59477,344.7192 224.79441,344.7192 225.99405,344.7192 C 226.88621,344.7192 227.9158,344.89915 228.69323,344.89915 C 228.83207,344.89915 230.85258,345.5193 230.85258,345.61893 C 231.4902,345.61893 232.11221,346.42088 232.11221,347.0585 C 233.06252,347.0585 233.52257,347.80748 234.27156,347.0585 C 234.75615,346.5739 235.37626,346.15877 236.25096,346.15877 C 236.25096,345.67548 238.03997,345.07909 238.59026,345.07909 C 239.55388,345.07909 239.58437,346.15877 240.56966,346.15877 C 241.31934,346.15877 242.57205,346.31573 243.0889,345.79888 C 243.73123,345.79888 244.54138,344.89915 245.24825,344.89915 C 246.37868,344.89915 246.83478,345.43899 247.7675,345.43899 C 247.79276,345.43899 249.7469,346.27364 249.7469,345.61893 C 249.7469,344.60113 252.72215,345.70276 253.34582,345.07909 C 254.31635,345.07909 255.32568,345.48265 256.11954,345.48265 C 256.79557,345.48265 257.14815,343.81947 257.84446,343.81947 C 258.13928,343.52466 261.36885,345.11979 261.36885,345.30271 C 261.77945,345.30271 262.59388,345.25904 263.60273,345.25904 C 263.88183,345.25904 268.45597,344.67373 267.18356,344.82461"
     style="fill:none;fill-opacity:0.75;fill-rule:evenodd;stroke:#69c;stroke-width:1.875;stroke-linecap:butt;stroke-linejoin:miter;stroke-miterlimit:4;stroke-opacity:1"
     id="path19618" />
  <path
     d="M 219.53649,315.71638 C 220.03723,315.71638 222.3358,315.50457 222.3358,314.18949 C 222.3358,313.6662 224.23121,312.6626 224.62613,312.6626 C 224.62613,312.21807 226.31308,310.88123 227.17095,310.88123 C 227.17095,310.38222 229.25189,309.60882 229.97025,309.60882 C 229.97025,309.15704 231.61566,308.08193 232.26059,308.08193 C 232.8289,308.08193 234.09875,308.33641 235.31437,308.33641 C 236.09591,308.33641 237.5296,308.33641 238.62264,308.33641 C 239.97499,308.33641 240.09321,307.57296 241.67642,307.57296 C 242.78832,307.57296 243.84064,305.79159 244.7302,305.79159 C 245.55906,305.79159 245.9104,305.12035 246.76605,304.2647 C 247.34235,303.6884 249.81984,303.41895 249.81984,302.73781 C 250.29754,302.73781 252.11018,301.75488 252.11018,301.21092 C 253.14611,301.21092 253.50539,299.93851 254.90948,299.93851 C 254.90948,300.30799 257.64817,300.70195 257.96326,300.70195 C 257.96326,301.5251 260.34033,301.71988 261.27152,301.71988 C 262.51932,301.71988 263.45361,302.48333 264.83427,302.48333 C 266.26139,302.48333 266.5598,303.24677 267.63357,303.24677 C 269.24529,303.24677 270.85701,303.24677 272.46873,303.24677 C 273.04923,302.66626 274.47986,302.22884 275.26803,302.22884 C 276.07711,302.22884 276.67364,301.4654 277.81285,301.4654 C 278.01522,301.4654 280.10318,298.98523 280.10318,298.92058 C 281.29378,298.92058 283.91125,297.64817 284.68386,297.64817 C 285.91675,297.64817 286.64782,296.37576 287.73764,296.37576 C 289.37932,296.37576 290.62623,296.37576 292.31831,296.37576 C 293.59072,296.37576 294.86313,296.37576 296.13554,296.37576 C 297.58101,296.37576 297.86919,295.10335 298.93484,295.10335 C 300.16039,293.8778 302.25614,294.58787 303.77,293.83094 C 305.61507,292.9084 307.01051,293.57646 308.85963,293.57646 C 311.12395,293.57646 313.85514,293.32198 315.73064,293.32198 C 317.01137,293.32198 316.84156,294.33991 318.52995,294.33991 C 320.94109,294.33991 326.1644,294.82594 326.1644,297.13921 C 326.95438,297.13921 328.63817,297.90265 329.47267,297.90265 C 330.4261,298.85609 331.98628,298.6349 332.78093,299.42954 C 333.69205,299.42954 334.46304,300.70195 335.58023,300.70195 C 336.84402,300.70195 338.03272,300.19299 338.63401,300.19299 C 339.78573,300.19299 339.9659,299.17506 341.17883,299.17506 C 342.26339,299.17506 343.80041,299.42954 344.4871,299.42954 C 344.4871,300.21931 346.29143,299.4525 347.03192,300.19299 C 347.79534,300.19299 349.7385,301.37268 350.34018,301.97436 C 351.17563,302.80981 353.64844,302.06526 353.64844,303.24677 C 355.02756,303.24677 356.98092,303.61639 358.22912,302.99229 C 359.52829,302.99229 360.38422,303.87498 361.2829,304.77366 C 361.90532,305.39608 363.52226,306.30055 364.33668,306.30055 C 364.33668,306.78686 365.68158,308.08193 366.37254,308.08193 C 367.24125,308.08193 368.66288,309.69499 368.66288,310.11778 C 370.12301,310.11778 371.11819,310.88123 372.73459,310.88123 C 374.15098,310.88123 375.98788,310.37227 377.31526,310.37227 C 378.48133,310.37227 378.04602,311.11937 379.6056,311.89915 C 380.51526,312.80882 382.7896,311.77489 383.67731,312.6626 C 385.25142,312.6626 385.7346,312.15363 387.24005,312.15363 C 387.94019,312.85377 388.92596,314.69846 389.78487,314.69846 C 390.7824,314.69846 390.81104,316.73431 391.56624,316.73431 C 391.56624,316.40707 394.63926,316.98879 395.12899,316.98879 C 396.01663,317.87643 397.34379,317.16774 398.43726,318.2612 C 399.68722,318.2612 400.93987,318.51568 402.25448,318.51568 C 403.70079,318.51568 404.57421,318.51568 405.81723,318.51568 C 406.72898,318.51568 407.48481,319.27913 409.12549,319.27913 C 410.00296,319.27913 411.41583,319.96198 411.41583,320.55154 C 412.03216,320.55154 414.21513,321.71825 414.21513,322.33291 C 415.48675,322.33291 416.65945,322.58739 418.03236,322.58739 C 419.56247,322.58739 419.64506,323.09636 421.08614,323.09636 C 422.2162,323.09636 422.70985,324.36877 423.88544,324.36877 C 425.4712,324.36877 426.26508,323.44013 427.19371,324.36876 C 428.60427,324.36876 428.96987,327.16807 429.99301,327.16807 C 429.99301,327.69131 432.79231,327.58889 432.79231,328.44048 C 434.38284,328.44048 433.32257,330.47633 434.82816,330.47633 C 435.23358,330.88175 436.41812,332.51219 436.86402,332.51219 C 436.86402,332.61808 438.27953,334.54804 438.89987,334.54804 C 438.89987,334.63584 441.10241,336.83838 441.19021,336.83838 C 441.19021,337.28384 442.09531,340.34472 442.7171,340.65561 C 443.28574,341.22425 443.51933,342.69146 445.00744,342.69146 C 445.00744,343.34324 446.27948,345.74524 447.04329,345.74524 C 447.04329,346.49012 447.95275,348.79903 448.82467,348.79903 C 449.15104,349.1254 450.35156,349.843 450.35156,350.83488 C 451.0774,350.83488 452.13293,352.55452 452.13293,353.3797 C 452.47466,353.72143 454.16879,355.45372 454.16879,355.67004 C 454.16879,356.10207 454.98025,358.9783 455.18671,358.9783 C 455.18671,360.26565 455.4412,361.34122 455.4412,362.54105 C 455.4412,362.88036 455.52602,362.79553 455.18671,362.79553"
     style="fill:none;fill-opacity:0.75;fill-rule:evenodd;stroke:#69c;stroke-width:1.875;stroke-linecap:butt;stroke-linejoin:miter;stroke-miterlimit:4;stroke-opacity:1"
     id="path19619" />
  <path
     d="M 519.06167,265.58345 C 519.06167,266.93512 518.04374,267.90437 518.04374,269.40068 C 518.04374,270.76259 517.02581,271.74771 517.02581,272.96343 C 517.02581,273.95307 516.26236,274.52354 516.26236,276.01721 C 516.26236,277.21686 514.98995,277.65999 514.98995,279.071 C 514.98995,280.36802 514.98996,280.68473 514.98996,282.37926 C 514.37426,282.99496 514.73547,285.0605 514.73547,285.942 C 514.27267,285.942 514.48099,288.67779 514.48099,289.25027 C 514.48099,290.53468 514.73547,291.51069 514.73547,292.81301 C 514.73547,294.1528 514.98996,294.99944 514.98996,296.12128 C 514.98996,297.00278 515.35117,299.06833 514.73547,299.68402 C 514.73547,300.34835 513.46306,301.01269 513.46306,302.48333 C 513.46306,302.9698 513.26756,305.53711 512.9541,305.53711 C 512.9541,306.43792 511.42721,307.07075 511.42721,308.08193 C 510.72346,308.78567 510.1548,309.89169 510.1548,310.88123 C 510.1548,312.08802 509.90032,312.98756 509.90032,313.93501 C 509.90032,314.84307 508.62791,315.51912 508.62791,316.47983 C 507.9615,316.47983 507.82998,318.80464 507.3555,319.27913 C 507.3555,320.61891 507.10102,321.46556 507.10102,322.58739 C 506.34313,322.58739 507.85891,323.35084 507.10102,323.35084"
     style="fill:none;fill-opacity:0.75;fill-rule:evenodd;stroke:#69c;stroke-width:1.875;stroke-linecap:butt;stroke-linejoin:miter;stroke-miterlimit:4;stroke-opacity:1"
     id="path19620" />
  <path
     d="M 489.79625,259.73037 C 489.79625,260.13061 490.47662,262.86722 489.54177,263.80208 C 489.54177,265.18364 489.28729,265.86326 489.28729,267.11034 C 489.28729,268.34902 488.26936,268.80639 488.26936,270.16413 C 488.26936,271.3107 486.99695,272.2498 486.99695,273.21791 C 486.99695,274.11629 486.2335,274.80442 486.2335,276.01721 C 485.70259,276.01721 485.21558,277.84828 485.21558,278.56203 C 486.09961,279.44607 486.2335,279.76807 486.2335,281.36133 C 486.2335,282.48142 486.54578,283.45498 487.25143,284.16063 C 487.25143,285.46376 487.50591,286.47363 487.50591,287.72338 C 487.50591,289.02021 487.25143,290.31286 487.25143,291.28612 C 487.25143,292.4737 487.25143,293.66129 487.25143,294.84887 C 487.25143,296.3084 486.74247,296.78071 486.74247,297.90265 C 485.97992,298.6652 486.61245,300.70195 485.47006,300.70195 C 485.47006,301.81789 484.56399,303.3894 483.94317,304.01022 C 483.94317,304.08428 482.6891,306.30055 482.41627,306.30055 C 482.41627,307.19728 481.90731,308.74661 481.90731,309.8633 C 481.90731,311.32072 481.65283,312.07437 481.65283,313.42605 C 481.65283,314.18317 482.67076,315.21384 482.67076,316.47983 C 482.67076,314.03157 483.17972,324.71697 483.17972,325.89566 C 483.17972,327.16781 482.67076,328.34426 482.67076,329.71289 C 482.67076,330.90047 482.67076,332.08805 482.67076,333.27563 C 482.67076,334.54804 482.41628,336.32941 482.41628,337.60182 C 482.41628,339.18708 482.53945,339.39133 481.90731,340.65561 C 481.29161,341.27131 481.65283,343.33685 481.65283,344.21835 C 481.65283,344.95168 480.72464,347.7811 480.38042,347.7811 C 480.38042,348.56833 479.36249,349.46112 479.36249,350.5804 C 479.36249,351.26868 479.58171,353.88866 478.85353,353.88866 C 478.85353,354.70896 478.59905,356.02328 478.59905,357.19693 C 478.59905,358.28149 478.34456,359.81851 478.34456,360.50519 C 478.34456,361.34408 478.85353,362.54017 478.85353,363.55898 C 478.44312,363.55898 478.02521,365.59483 476.81767,365.59483 C 476.29696,365.59483 475.12875,366.10379 474.78182,366.10379"
     style="fill:none;fill-opacity:0.75;fill-rule:evenodd;stroke:#69c;stroke-width:1.875;stroke-linecap:butt;stroke-linejoin:miter;stroke-miterlimit:4;stroke-opacity:1"
     id="path19621" />
  <path
     d="M 555.45257,426.67048 C 556.91664,426.67048 556.72498,429.60571 556.72498,430.48771 C 555.82209,431.3906 555.45257,432.14329 555.45257,433.54149 C 555.45257,434.93124 555.70706,436.00232 555.70706,437.35872 C 556.5562,438.20787 556.4705,438.91179 556.4705,440.4125 C 556.4705,440.63779 557.79807,442.70284 557.99739,442.70284 C 557.99739,444.08552 559.43025,444.48421 560.79669,444.48421 C 561.4455,445.13302 562.16948,446.0111 563.08703,446.0111 C 563.08703,446.90631 563.85048,448.09861 563.85048,449.31937 C 564.28073,449.31937 564.10496,451.62532 564.10496,452.37315 C 564.10496,453.53185 564.61392,454.26457 564.61392,455.68142 C 564.61392,456.95383 564.61392,458.22623 564.61392,459.49864 C 564.61392,460.68623 564.61392,461.87381 564.61392,463.06139 C 564.61392,464.01398 564.22805,466.11517 565.37737,466.11517 C 566.71797,466.11517 566.64978,467.0942 566.64978,468.40551 C 566.64978,469.51813 568.01423,470.18688 568.68563,470.18688 C 568.68563,471.23228 568.92087,472.7317 569.95804,472.7317 C 570.78144,472.7317 570.15864,475.27652 571.23045,475.27652 C 571.23045,476.47491 572.50286,476.75182 572.50286,477.82134 C 572.50286,478.75299 571.73941,480.15568 571.73941,480.87512 C 570.54862,480.87512 571.9939,482.83802 571.9939,483.41994 C 571.9939,484.66343 571.48493,485.31658 571.48493,486.72821 C 571.48493,488.22865 570.21252,488.63556 570.21252,489.27302 C 569.13158,489.27302 570.9312,491.56336 570.467,491.56336 C 570.467,492.224 569.70923,494.10818 569.1946,494.10818 C 568.70992,494.10818 566.90426,495.57894 566.90426,495.88955 C 566.13604,495.88955 565.63185,497.9508 565.63185,498.68885 C 565.63185,500.14998 564.61392,500.79061 564.61392,501.99712 C 564.61392,502.67408 563.57743,505.0509 563.08703,505.0509 C 562.87341,505.26452 561.15559,508.10468 562.32358,508.10468 C 562.32358,508.40398 563.59599,509.77935 563.59599,510.90398 C 563.59599,512.21174 563.87065,513.68311 565.12289,512.43087 C 566.06891,512.43087 567.15874,513.46646 567.15874,514.21225 C 568.19558,515.24908 567.0066,516.50258 568.94011,516.50258 C 570.83691,516.50258 569.83152,518.53844 570.467,518.53844 C 570.467,519.55193 571.99588,520.3218 572.75734,521.08326 C 572.75734,522.03166 573.08135,523.62808 574.02975,523.62808 C 574.02975,524.73905 575.93853,526.68186 577.08354,526.68186 C 578.48734,526.68186 577.74729,526.58218 578.61042,527.44531 C 579.84552,528.06286 581.04676,529.22668 582.42765,529.22668 C 582.42765,530.5318 584.80763,530.75357 585.22695,530.75357 C 585.98891,531.51553 587.32888,532.28046 588.53522,532.28046 C 589.85008,532.28046 591.40582,533.04391 592.09796,533.04391 C 592.09796,533.63203 594.89726,534.11454 594.89726,534.5708 C 595.71701,534.5708 596.06537,536.60665 597.44208,536.60665 C 598.40986,537.57443 600.2595,537.13373 601.25931,538.13354 C 603.0206,538.13354 604.15707,539.40596 606.34895,539.40596 C 607.53653,539.40596 610.251,539.66044 611.43859,539.66044 C 611.99539,540.21723 613.72892,540.88639 613.72892,541.69629 C 613.95164,541.69629 615.25582,543.58668 615.25582,543.73215 C 616.25774,543.73215 618.81856,545.54971 618.81856,546.27696 C 620.01667,546.27696 620.37426,547.80386 621.61786,547.80386 C 621.61786,548.21859 623.92281,549.33075 624.41716,549.33075 C 624.91753,549.33075 625.94488,549.58523 625.68957,549.58523"
     style="fill:none;fill-opacity:0.75;fill-rule:evenodd;stroke:#69c;stroke-width:1.875;stroke-linecap:butt;stroke-linejoin:miter;stroke-miterlimit:4;stroke-opacity:1"
     id="path19623" />
  <path
     d="M 533.82161,432.26908 C 532.95548,432.26908 530.92338,431.30062 529.49542,432.0146 C 528.47749,432.0146 528.73155,433.54149 527.20509,433.54149 C 526.36489,434.38169 525.17438,434.30494 523.89682,434.30494 C 523.45985,434.30494 520.58856,434.98807 520.58856,435.32287 C 519.31389,435.32287 519.15671,436.84976 518.04374,436.84976 C 517.38608,437.50741 516.26236,438.00672 516.26236,439.14009 C 516.26236,440.32768 516.26236,441.51526 516.26236,442.70284 C 516.26236,443.96591 516.81631,444.99318 517.78926,444.99318 C 517.78926,445.94158 518.11327,447.538 519.06167,447.538 C 519.82044,447.538 520.36334,449.57385 521.352,449.57385 C 521.352,449.99086 523.40082,451.10074 523.64234,451.10074 C 524.29256,451.75096 525.42371,452.16353 525.42371,453.1366 C 525.80126,453.51414 526.44631,455.68142 526.69612,455.68142 C 526.69612,456.54616 528.47749,457.45899 528.47749,458.22623 C 528.47749,459.23143 529.49542,460.08757 529.49542,461.5345 C 529.65597,461.5345 531.53128,463.75206 531.53128,463.82484 C 531.53128,463.76816 533.05817,465.16313 533.05817,465.60621 C 533.87477,465.60621 533.82161,467.48889 533.82161,468.40551 C 534.44338,469.02728 535.09402,471.08927 535.09402,471.96826 C 535.09402,473.34215 536.11195,473.9342 536.11195,475.02204 C 536.11195,476.20962 536.11195,477.3972 536.11195,478.58478 C 536.11195,479.46763 534.83954,480.42523 534.83954,481.1296 C 533.25375,481.1296 536.04229,483.60476 536.11195,483.67442 C 536.11195,484.20319 537.3089,485.4558 537.89332,485.4558 C 537.89332,486.3451 539.6747,487.00948 539.6747,488.2551 C 540.38932,488.2551 540.94711,490.15999 540.94711,490.79992 C 540.94711,491.34911 541.45607,493.65822 541.45607,493.59922 C 541.45607,495.11729 542.72848,495.65917 542.72848,496.653 C 543.55762,497.48214 543.54623,499.4523 544.76433,499.4523 C 546.07296,499.4523 546.76029,501.48815 547.05467,501.48815 C 547.05467,501.85195 548.94385,503.26953 549.34501,503.26953 C 550.15495,504.07947 550.76021,504.68472 551.63535,505.55986 C 552.45682,505.55986 552.39879,507.39872 552.39879,508.35916 C 552.39879,509.23983 552.90775,510.26889 552.90775,511.41295 C 552.90775,512.60053 552.90775,513.78811 552.90775,514.97569 C 552.90775,515.4349 551.38086,514.68561 551.38086,516.50258 C 551.38086,517.81327 552.05645,518.79292 553.41672,518.79292 C 553.41672,519.49317 555.03929,519.0474 555.70706,519.0474 C 555.70706,519.86987 558.25187,520.10836 558.25187,521.08326 C 558.94107,521.08326 559.8128,522.89867 560.28773,523.3736 C 561.13795,524.22381 561.70408,525.15497 563.08703,525.15497 C 563.08703,525.90184 566.04676,526.07884 566.64978,526.68186 C 567.69901,526.68186 567.45754,528.46323 568.68563,528.46323 C 569.206,528.9836 571.94397,529.48116 572.24838,529.48116 C 572.24838,529.87241 574.28423,530.74405 574.28423,531.51702 C 574.28423,532.81968 575.05789,533.29839 576.32009,533.29839 C 577.38574,533.29839 578.56212,534.82528 579.37387,534.82528 C 579.37387,536.25196 581.40973,535.74757 581.40973,537.11562 C 581.40973,537.94301 583.27862,539.15147 583.95454,539.15147 C 584.8355,539.15147 585.34762,540.67836 586.24488,540.67836 C 586.24488,541.85601 587.51729,542.26045 587.51729,543.22318 C 588.57664,543.22318 588.94685,544.75007 589.80763,544.75007 C 590.75382,544.75007 591.2034,545.89136 591.84348,546.53145 C 591.84348,547.07506 593.00334,548.31282 593.62486,548.31282 C 593.62486,549.06958 594.64757,550.60316 595.15175,550.60316 C 595.15175,550.78435 596.85488,552.38453 596.93312,552.38453 C 597.83987,552.38453 598.47232,553.14798 599.73242,553.14798 C 599.73242,553.7091 601.51379,555.05939 601.51379,555.69279 C 602.36899,555.69279 603.04068,557.26156 603.04068,557.98313 C 603.70548,557.98313 604.82958,559.51002 605.5855,559.51002 C 606.06501,559.51002 607.36688,561.15056 607.36688,561.54588 C 608.69068,561.54588 609.6719,563.58173 611.1841,563.58173 C 611.97276,563.58173 614.23789,563.74366 614.23789,564.34518 C 614.84258,564.34518 617.29167,565.11011 617.29167,565.36311"
     style="fill:none;fill-opacity:0.75;fill-rule:evenodd;stroke:#69c;stroke-width:1.875;stroke-linecap:butt;stroke-linejoin:miter;stroke-miterlimit:4;stroke-opacity:1"
     id="path19624" />
  <path
     d="M 417.09655,513.32847 C 418.1241,513.32847 418.71606,512.98106 418.71606,511.52902 C 418.71606,510.4926 419.79574,510.59012 419.79574,509.9095 C 419.79574,509.24604 420.23003,508.11004 420.69547,508.11004 C 421.10296,508.11004 421.71943,506.85042 422.13503,506.85042 C 422.55596,506.4295 423.39466,505.4624 423.39466,505.05096 C 424.27295,505.05096 424.31139,503.79134 425.19411,503.79134 C 425.19411,503.3598 425.84408,502.24165 426.27379,501.81194 C 426.27379,501.44231 427.34263,499.84337 427.71336,499.47264 C 428.12192,499.47264 428.97298,497.39247 428.97298,497.67318 M 417.09655,512.2488 C 416.68319,512.2488 415.22923,512.06885 414.21742,512.06885 C 413.10983,512.06885 412.41796,511.42591 412.41796,510.26939 C 412.17194,509.77736 410.79845,507.91156 410.79845,507.75015 C 410.79845,507.18127 410.07866,505.9975 410.07866,505.41086 C 410.07866,504.54329 409.30797,503.74043 408.81904,503.25151 C 408.15525,503.25151 407.68979,502.12226 407.19953,501.63199 C 407.19953,501.03197 407.12582,499.11275 406.47974,499.11275 C 406.47974,498.21208 404.93145,495.76499 404.32039,495.15394 C 403.94921,494.78275 404.15175,494.44546 403.78056,494.07427 M 415.11715,494.79405 C 416.83477,494.79405 415.75509,499.83253 414.03747,499.83253 C 414.03747,501.39643 414.39736,502.90098 414.39736,504.51113 C 414.39736,506.11769 414.74165,507.75015 416.19682,507.75015 C 418.00132,507.75015 417.2765,510.16007 417.2765,511.70896 C 417.2765,512.51857 417.5711,516.38755 416.9166,516.38755 C 416.9166,518.06705 416.9166,519.74654 416.9166,521.42604 C 416.9166,522.60557 416.47725,525.74474 417.63639,525.74474 C 417.63639,527.03225 417.63639,528.75291 417.63639,530.42333 C 417.63639,531.57583 416.55671,532.42301 416.55671,534.38214 C 416.5777,536.69346 418.71606,538.01579 418.71606,538.34095 C 418.71606,539.33018 419.38194,541.52607 420.15563,542.29976 C 420.15563,542.81312 422.69976,545.53878 421.5952,545.53878 C 421.5952,546.4311 421.86302,549.49759 419.45768,549.87931 C 419.45768,551.79243 418.35617,552.65908 418.35617,554.17619 C 418.35617,556.56211 417.26806,556.34397 415.83693,557.7751 C 415.83693,559.15168 416.19682,560.66397 416.19682,562.45369 C 416.82928,565.12271 416.26232,565.91464 415.11715,566.4125 C 414.07034,568.95732 414.62023,571.41107 415.11715,571.41107 C 415.11715,571.93164 416.6403,572.53056 417.2765,573.61034 C 418.03995,574.54712 418.27259,576.26133 418.27259,577.88537 C 418.24198,579.66675 417.86904,580.22737 417.7418,581.44437 C 417.7418,582.41549 417.63639,583.95297 417.63639,585.48677 C 417.63639,587.61529 416.19682,587.74411 416.19682,589.08568 C 416.19682,590.76518 416.19682,592.44467 416.19682,594.12417 C 416.19682,595.64588 416.55671,597.43691 416.55671,599.16265 C 416.55671,601.31204 417.63639,601.84428 417.63639,603.12146 C 417.63639,605.04004 417.63639,606.19397 417.63639,608.15994 C 417.63639,608.58379 416.39746,611.19833 415.83693,611.75886 C 415.83693,613.24567 415.83693,614.59075 415.83693,616.07756 C 413.80479,616.07756 416.19682,618.00248 416.19682,618.5968 C 417.1406,618.5968 415.83693,621.88368 415.83693,622.55561 C 415.83693,623.71712 414.75725,625.22569 414.75725,626.51442 C 414.75725,628.59552 414.39736,629.4043 414.39736,630.83312 C 415.57278,630.83312 414.39736,634.05998 414.39736,634.79193 C 414.39736,636.16851 414.75725,637.6808 414.75725,639.47052 C 415.60794,639.47052 417.2765,642.14549 417.2765,642.70955 C 418.69712,644.13017 415.55057,645.66222 416.9166,647.02825 C 416.9166,648.18832 417.2765,650.04705 417.2765,651.70684 C 417.2765,652.28729 417.58269,655.66565 418.35617,655.66565 C 419.51852,656.828 418.71606,658.04354 418.71606,659.98435 C 418.71606,661.85938 417.99628,663.23596 417.99628,664.30305 C 417.99628,666.11117 418.71606,667.56649 418.71606,668.62175 C 418.71606,669.59288 419.07596,671.76655 419.07596,673.30035 C 419.07596,675.22562 419.79574,675.16548 419.79574,676.89926 C 419.47869,676.89926 419.07596,680.79396 419.07596,681.21796 C 419.07596,682.4546 418.58692,684.81688 417.63639,684.81688 C 417.63639,684.99934 415.74672,688.05591 415.47704,688.05591 C 415.47704,689.18892 414.39736,690.57534 414.39736,692.37461 C 414.39736,693.32602 413.67758,695.67893 413.67758,696.69331 C 413.67758,698.50146 414.39736,699.8308 414.39736,701.01201 C 414.39736,702.6915 414.39736,704.371 414.39736,706.05049 C 414.39736,706.41038 414.39736,706.77028 414.39736,707.13017 M 417.09655,516.02766 C 416.31123,516.02766 415.14595,515.77215 414.21742,515.30788 C 413.70957,514.80003 412.62998,514.40815 411.87812,514.40815 C 411.35241,514.40815 410.07866,513.69181 410.07866,513.14853 C 409.24032,513.14853 408.2792,513.08846 408.2792,512.2488 C 407.81888,512.2488 407.86432,510.26939 407.19953,510.26939 C 406.57878,509.64865 406.65969,509.22507 406.65969,508.11004 C 406.65969,506.9241 405.29715,507.28734 404.68029,506.67048 C 403.85863,506.67048 403.24072,506.4297 403.24072,505.5908 C 403.24072,505.00088 402.76444,503.97129 401.9811,503.97129 C 401.5774,503.56759 399.6418,502.78995 399.6418,502.35178 C 399.12347,501.83344 398.46076,500.41166 397.6624,500.01248 C 397.35006,499.3878 397.44165,499.2519 396.94261,498.75286"
     style="fill:none;fill-opacity:0.75;fill-rule:evenodd;stroke:#69c;stroke-width:1.875;stroke-linecap:butt;stroke-linejoin:miter;stroke-miterlimit:4;stroke-opacity:1"
     id="path19630" />
  <path
     d="M 250.98528,436.19766 L 238.64291,436.20561 L 238.64291,438.37665 L 243.98703,443.09251 L 253.5301,445.64528 L 255.39816,448.69906 L 255.68445,450.31343 L 265.7683,450.14644 L 266.86973,448.29647 L 266.82599,446.44651 L 266.0188,445.86896 L 265.84782,444.40072 L 268.3489,443.3142 L 269.83205,439.42838 L 269.53383,434.01567 L 263.53164,432.89983 L 260.32875,431.27502 L 256.03436,431.23526 L 250.98528,436.19766 z "
     style="fill:white;fill-opacity:1;fill-rule:evenodd;stroke:black;stroke-width:1;stroke-linecap:butt;stroke-linejoin:miter;stroke-miterlimit:4;stroke-opacity:1"
     id="path12142" />
  <path
     d="M 251.15551,476.25974 C 251.15724,474.5691 249.70658,473.19769 247.91648,473.19769 C 246.12639,473.19769 244.67573,474.5691 244.67746,476.25974 C 244.67573,477.95038 246.12639,479.32178 247.91648,479.32178 C 249.70658,479.32178 251.15724,477.95038 251.15551,476.25974 z "
     style="fill:black;fill-opacity:1;fill-rule:evenodd;stroke:none;stroke-width:1pt;stroke-linecap:butt;stroke-linejoin:miter;stroke-opacity:1"
     id="path19647" />
  <path
     d="M 266.12196,444.76911 C 266.12369,443.07847 264.67303,441.70706 262.88293,441.70706 C 261.09284,441.70706 259.64218,443.07847 259.64391,444.76911 C 259.64218,446.45975 261.09284,447.83115 262.88293,447.83115 C 264.67303,447.83115 266.12369,446.45975 266.12196,444.76911 z "
     style="fill:black;fill-opacity:1;fill-rule:evenodd;stroke:none;stroke-width:1pt;stroke-linecap:butt;stroke-linejoin:miter;stroke-opacity:1"
     id="path20269" />
  <path
     d="M 262.88294,354.79616 C 262.88467,353.10552 261.43401,351.73411 259.64391,351.73411 C 257.85382,351.73411 256.40316,353.10552 256.40489,354.79616 C 256.40316,356.4868 257.85382,357.8582 259.64391,357.8582 C 261.43401,357.8582 262.88467,356.4868 262.88294,354.79616 z "
     style="fill:black;fill-opacity:1;fill-rule:evenodd;stroke:none;stroke-width:1pt;stroke-linecap:butt;stroke-linejoin:miter;stroke-opacity:1"
     id="path20270" />
  <path
     d="M 370.27974,422.60486 C 370.28147,420.91422 368.83081,419.54281 367.04071,419.54281 C 365.25062,419.54281 363.79996,420.91422 363.80169,422.60486 C 363.79996,424.2955 365.25062,425.6669 367.04071,425.6669 C 368.83081,425.6669 370.28147,424.2955 370.27974,422.60486 z "
     style="fill:black;fill-opacity:1;fill-rule:evenodd;stroke:none;stroke-width:1pt;stroke-linecap:butt;stroke-linejoin:miter;stroke-opacity:1"
     id="path20271" />
  <path
     d="M 422.67489,445.48889 C 422.67662,443.79825 421.22596,442.42684 419.43586,442.42684 C 417.64577,442.42684 416.19511,443.79825 416.19684,445.48889 C 416.19511,447.17953 417.64577,448.55093 419.43586,448.55093 C 421.22596,448.55093 422.67662,447.17953 422.67489,445.48889 z "
     style="fill:black;fill-opacity:1;fill-rule:evenodd;stroke:none;stroke-width:1pt;stroke-linecap:butt;stroke-linejoin:miter;stroke-opacity:1"
     id="path20272" />
  <path
     d="M 415.98599,519.26669 C 415.98772,517.57605 414.53706,516.20464 412.74696,516.20464 C 410.95687,516.20464 409.50621,517.57605 409.50794,519.26669 C 409.50621,520.95733 410.95687,522.32873 412.74696,522.32873 C 414.53706,522.32873 415.98772,520.95733 415.98599,519.26669 z "
     style="fill:black;fill-opacity:1;fill-rule:evenodd;stroke:none;stroke-width:1pt;stroke-linecap:butt;stroke-linejoin:miter;stroke-opacity:1"
     id="path20273" />
  <path
     d="M 424.83419,604.20114 C 424.83592,602.5105 423.38526,601.13909 421.59516,601.13909 C 419.80507,601.13909 418.35441,602.5105 418.35614,604.20114 C 418.35441,605.89178 419.80507,607.26318 421.59516,607.26318 C 423.38526,607.26318 424.83592,605.89178 424.83419,604.20114 z "
     style="fill:black;fill-opacity:1;fill-rule:evenodd;stroke:none;stroke-width:1pt;stroke-linecap:butt;stroke-linejoin:miter;stroke-opacity:1"
     id="path20274" />
  <path
     d="M 561.38229,521.63685 C 561.38402,519.94621 559.93336,518.5748 558.14326,518.5748 C 556.35317,518.5748 554.90251,519.94621 554.90424,521.63685 C 554.90251,523.32749 556.35317,524.69889 558.14326,524.69889 C 559.93336,524.69889 561.38402,523.32749 561.38229,521.63685 z "
     style="fill:black;fill-opacity:1;fill-rule:evenodd;stroke:none;stroke-width:1pt;stroke-linecap:butt;stroke-linejoin:miter;stroke-opacity:1"
     id="path20275" />
  <path
     d="M 605.85979,527.18431 C 605.86152,525.49367 604.41086,524.12226 602.62076,524.12226 C 600.83067,524.12226 599.38001,525.49367 599.38174,527.18431 C 599.38001,528.87495 600.83067,530.24635 602.62076,530.24635 C 604.41086,530.24635 605.86152,528.87495 605.85979,527.18431 z "
     style="fill:black;fill-opacity:1;fill-rule:evenodd;stroke:none;stroke-width:1pt;stroke-linecap:butt;stroke-linejoin:miter;stroke-opacity:1"
     id="path20276" />
  <text
     x="223.86269"
     y="490.03647"
     style="font-size:11px;font-style:normal;font-variant:normal;font-weight:normal;font-stretch:normal;writing-mode:lr-tb;text-anchor:start;fill:#000000;fill-opacity:1;stroke:none;font-family:Bitstream Vera Sans"
     id="text20277"
     xml:space="preserve"><tspan
       id="tspan20278">Καρχηδών </tspan></text>
  <text
     x="271.70529"
     y="448.30142"
     style="font-size:11px;font-style:normal;font-variant:normal;font-weight:normal;font-stretch:normal;writing-mode:lr-tb;text-anchor:start;fill:#000000;fill-opacity:1;stroke:none;font-family:Bitstream Vera Sans"
     id="text25869"
     xml:space="preserve"><tspan
       id="tspan25870">Συρακοῦσαι</tspan></text>
  <text
     x="223.89851"
     y="358.21481"
     style="font-size:11px;font-style:normal;font-variant:normal;font-weight:normal;font-stretch:normal;writing-mode:lr-tb;text-anchor:start;fill:#000000;fill-opacity:1;stroke:none;font-family:Bitstream Vera Sans"
     id="text25872"
     xml:space="preserve"><tspan
       id="tspan25873">Ἀδρία</tspan></text>
  <text
     x="369.72018"
     y="522.61011"
     style="font-size:11px;font-style:normal;font-variant:normal;font-weight:normal;font-stretch:normal;writing-mode:lr-tb;text-anchor:start;fill:#000000;fill-opacity:1;stroke:none;font-family:Bitstream Vera Sans"
     id="text25875"
     xml:space="preserve"><tspan
       id="tspan25876">Μέμφις</tspan></text>
  <text
     x="383.53391"
     y="607.60712"
     style="font-size:11px;font-style:normal;font-variant:normal;font-weight:normal;font-stretch:normal;writing-mode:lr-tb;text-anchor:start;fill:#000000;fill-opacity:1;stroke:none;font-family:Bitstream Vera Sans"
     id="text25878"
     xml:space="preserve"><tspan
       id="tspan25879">Θῆβαι</tspan></text>
  <text
     x="346.01401"
     y="416.23672"
     style="font-size:11px;font-style:normal;font-variant:normal;font-weight:normal;font-stretch:normal;writing-mode:lr-tb;text-anchor:start;fill:#000000;fill-opacity:1;stroke:none;font-family:Bitstream Vera Sans"
     id="text25881"
     xml:space="preserve"><tspan
       id="tspan25882">Ἀθῆναι</tspan></text>
  <text
     x="415.23309"
     y="440.15799"
     style="font-size:11px;font-style:normal;font-variant:normal;font-weight:normal;font-stretch:normal;writing-mode:lr-tb;text-anchor:start;fill:#000000;fill-opacity:1;stroke:none;font-family:Bitstream Vera Sans"
     id="text25884"
     xml:space="preserve"><tspan
       id="tspan25885">Μίλητος</tspan></text>
  <text
     x="520.26483"
     y="535.13403"
     style="font-size:11px;font-style:normal;font-variant:normal;font-weight:normal;font-stretch:normal;writing-mode:lr-tb;text-anchor:start;fill:#000000;fill-opacity:1;stroke:none;font-family:Bitstream Vera Sans"
     id="text25887"
     xml:space="preserve"><tspan
       id="tspan25888">Βαβυλώνα</tspan></text>
  <text
     x="586.2807"
     y="521.59216"
     style="font-size:11px;font-style:normal;font-variant:normal;font-weight:normal;font-stretch:normal;writing-mode:lr-tb;text-anchor:start;fill:#000000;fill-opacity:1;stroke:none;font-family:Bitstream Vera Sans"
     id="text25890"
     xml:space="preserve"><tspan
       id="tspan25891">Σοῦσα</tspan></text>
  <text
     x="303.1875"
     y="229.39844"
     style="font-size:28px;font-style:normal;font-variant:normal;font-weight:normal;font-stretch:normal;writing-mode:lr-tb;text-anchor:start;fill:#000000;fill-opacity:1;stroke:none;font-family:Bitstream Vera Sans"
     id="text30861"
     xml:space="preserve"><tspan
       id="tspan30862"
       style="font-size:28px;font-weight:normal">ΕΥΡΩΠΗ</tspan></text>
  <text
     x="252.7186"
     y="582.60358"
     style="font-size:28px;font-style:normal;font-variant:normal;font-weight:normal;font-stretch:normal;writing-mode:lr-tb;text-anchor:start;fill:#000000;fill-opacity:1;stroke:none;font-family:Bitstream Vera Sans"
     id="text31485"
     xml:space="preserve"><tspan
       id="tspan31486"
       style="font-size:28px;font-weight:normal">ΛΙΒΥΗ</tspan></text>
  <text
     x="596.30493"
     y="482.48111"
     style="font-size:28px;font-style:normal;font-variant:normal;font-weight:normal;font-stretch:normal;writing-mode:lr-tb;text-anchor:start;fill:#000000;fill-opacity:1;stroke:none;font-family:Bitstream Vera Sans"
     id="text31488"
     xml:space="preserve"><tspan
       id="tspan31489"
       style="font-size:28px;font-weight:normal">ΑΣΙΑ</tspan></text>
  <text
     x="372.48013"
     y="552.13007"
     style="font-size:14px;font-style:oblique;font-variant:normal;font-weight:normal;font-stretch:normal;writing-mode:lr-tb;text-anchor:start;fill:#000000;fill-opacity:1;stroke:none;font-family:Bitstream Vera Sans"
     id="text31491"
     xml:space="preserve"><tspan
       id="tspan31492">Αἴγυπτος</tspan></text>
  <text
     x="519.11493"
     y="642.16174"
     style="font-size:14px;font-style:oblique;font-variant:normal;font-weight:normal;font-stretch:normal;writing-mode:lr-tb;text-anchor:start;fill:#000000;fill-opacity:1;stroke:none;font-family:Bitstream Vera Sans"
     id="text32115"
     xml:space="preserve"><tspan
       id="tspan32116">Ἀραβία</tspan></text>
  <text
     x="518.60596"
     y="491.50833"
     style="font-size:14px;font-style:oblique;font-variant:normal;font-weight:normal;font-stretch:normal;writing-mode:lr-tb;text-anchor:start;fill:#000000;fill-opacity:1;stroke:none;font-family:Bitstream Vera Sans"
     id="text32118"
     xml:space="preserve"><tspan
       id="tspan32119">Ἀσσυρία</tspan></text>
  <text
     x="622.94354"
     y="513.3938"
     style="font-size:14px;font-style:oblique;font-variant:normal;font-weight:normal;font-stretch:normal;writing-mode:lr-tb;text-anchor:start;fill:#000000;fill-opacity:1;stroke:none;font-family:Bitstream Vera Sans"
     id="text32121"
     xml:space="preserve"><tspan
       id="tspan32122">Περσία</tspan></text>
  <text
     x="596.98639"
     y="381.0632"
     style="font-size:14px;font-style:oblique;font-variant:normal;font-weight:normal;font-stretch:normal;writing-mode:lr-tb;text-anchor:start;fill:#000000;fill-opacity:1;stroke:none;font-family:Bitstream Vera Sans"
     id="text32124"
     xml:space="preserve"><tspan
       id="tspan32125">Μηδία</tspan></text>
  <text
     x="665.69647"
     y="452.31815"
     style="font-size:14px;font-style:oblique;font-variant:normal;font-weight:normal;font-stretch:normal;writing-mode:lr-tb;text-anchor:start;fill:#000000;fill-opacity:1;stroke:none;font-family:Bitstream Vera Sans"
     id="text32127"
     xml:space="preserve"><tspan
       id="tspan32128">Ἰνδία</tspan></text>
  <text
     x="429.53738"
     y="306.75455"
     style="font-size:14px;font-style:oblique;font-variant:normal;font-weight:normal;font-stretch:normal;writing-mode:lr-tb;text-anchor:start;fill:#000000;fill-opacity:1;stroke:none;font-family:Bitstream Vera Sans"
     id="text32130"
     xml:space="preserve"><tspan
       id="tspan32131">Σκυθία</tspan></text>
  <text
     x="380.67685"
     y="380.04532"
     style="font-size:14px;font-style:oblique;font-variant:normal;font-weight:normal;font-stretch:normal;writing-mode:lr-tb;text-anchor:start;fill:#000000;fill-opacity:1;stroke:none;font-family:Bitstream Vera Sans"
     id="text32133"
     xml:space="preserve"><tspan
       id="tspan32134">Θρᾴκη</tspan></text>
  <text
     x="105.58192"
     y="437.81265"
     style="font-size:14px;font-style:oblique;font-variant:normal;font-weight:normal;font-stretch:normal;writing-mode:lr-tb;text-anchor:start;fill:#000000;fill-opacity:1;stroke:none;font-family:Bitstream Vera Sans"
     id="text32136"
     xml:space="preserve"><tspan
       id="tspan32137">Τάρτησσος</tspan></text>
  <text
     x="142.37949"
     y="357.31662"
     style="font-size:14px;font-style:oblique;font-variant:normal;font-weight:normal;font-stretch:normal;writing-mode:lr-tb;text-anchor:start;fill:#000000;fill-opacity:1;stroke:none;font-family:Bitstream Vera Sans"
     id="text32139"
     xml:space="preserve"><tspan
       id="tspan32140">Κέλτες</tspan></text>
  <text
     x="593.42365"
     y="332.7117"
     style="font-size:14px;font-style:oblique;font-variant:normal;font-weight:normal;font-stretch:normal;writing-mode:lr-tb;text-anchor:start;fill:#000000;fill-opacity:1;stroke:none;font-family:Bitstream Vera Sans"
     id="text32142"
     xml:space="preserve"><tspan
       id="tspan32143">Ἰσσηδόνες</tspan></text>
  <text
     x="628.61261"
     y="222.42235"
     style="font-size:11px;font-style:normal;font-variant:normal;font-weight:normal;font-stretch:normal;writing-mode:lr-tb;text-anchor:middle;fill:#000000;fill-opacity:1;stroke:none;font-family:Bitstream Vera Sans"
     id="text32145"
     xml:space="preserve"><tspan
       id="tspan32146">Κασπία</tspan><tspan
       x="628.61261"
       y="233.42235"
       id="tspan34644">Θάλασσα</tspan></text>
</svg>
