<?xml version="1.0" encoding="UTF-8" standalone="no"?>
<!-- Created with Inkscape (http://www.inkscape.org/) -->

<svg
   xmlns:dc="http://purl.org/dc/elements/1.1/"
   xmlns:cc="http://creativecommons.org/ns#"
   xmlns:rdf="http://www.w3.org/1999/02/22-rdf-syntax-ns#"
   xmlns:svg="http://www.w3.org/2000/svg"
   xmlns="http://www.w3.org/2000/svg"
   xmlns:sodipodi="http://sodipodi.sourceforge.net/DTD/sodipodi-0.dtd"
   xmlns:inkscape="http://www.inkscape.org/namespaces/inkscape"
   id="svg2985"
   version="1.1"
   inkscape:version="0.48.3.1 r9886"
   width="487"
   height="685"
   sodipodi:docname="FH_AH_Hitlers_Diaries_01.gif">
  <metadata
     id="metadata2991">
    <rdf:RDF>
      <cc:Work
         rdf:about="">
        <dc:format>image/svg+xml</dc:format>
        <dc:type
           rdf:resource="http://purl.org/dc/dcmitype/StillImage" />
        <dc:title></dc:title>
      </cc:Work>
    </rdf:RDF>
  </metadata>
  <defs
     id="defs2989" />
  <sodipodi:namedview
     pagecolor="#ffffff"
     bordercolor="#666666"
     borderopacity="1"
     objecttolerance="10"
     gridtolerance="10"
     guidetolerance="10"
     inkscape:pageopacity="0"
     inkscape:pageshadow="2"
     inkscape:window-width="1280"
     inkscape:window-height="992"
     id="namedview2987"
     showgrid="false"
     inkscape:zoom="1.1357664"
     inkscape:cx="243.5"
     inkscape:cy="342.5"
     inkscape:window-x="-4"
     inkscape:window-y="-4"
     inkscape:window-maximized="1"
     inkscape:current-layer="svg2985" />
  <path
     inkscape:connector-curvature="0"
     id="path2997"
     d="m 410.19531,665.96771 c -0.3835,-0.6205 0.44889,-2.49032 1.84974,-4.15514 2.68341,-3.18905 5.59633,-11.4818 5.59633,-15.93211 0,-4.42514 -2.8443,-12.54557 -7.53577,-21.51446 -6.70063,-12.80992 -6.28253,-17.5903 2.58462,-29.55143 l 4.95115,-6.67874 0,-17.67871 0,-17.67871 -3.74792,-1.56599 c -4.18597,-1.749 -14.33811,-1.42665 -18.07629,0.57396 -2.05469,1.09964 -2.17579,1.85417 -2.17579,13.55668 0,12.19646 0.0416,12.42498 2.63486,14.46482 3.28862,2.58683 4.57744,2.60046 6.86514,0.0726 1.93591,-2.13916 5.5,-2.72164 5.5,-0.89887 0,0.60563 -2.92384,4.25915 -6.49742,8.11895 -3.57358,3.8598 -9.53608,11.57679 -13.25,17.14887 -3.71392,5.57208 -7.13307,10.40918 -7.59812,10.74911 -0.46504,0.33994 -3.84004,-1.09614 -7.5,-3.19127 -10.49675,-6.00885 -18.06966,-8.15467 -30.67348,-8.69147 -12.79527,-0.54496 -19.8367,0.86105 -31.20891,6.23168 -3.97535,1.8774 -7.47071,3.0206 -7.76746,2.54045 -1.10101,-1.78147 10.16869,-16.55711 17.03473,-22.33413 7.35163,-6.18558 21.61654,-13.6671 29.70083,-15.5772 8.97861,-2.12139 18.84326,-2.37686 26.75983,-0.69301 4.125,0.87739 8.29209,1.59562 9.26019,1.59607 1.65812,7.7e-4 1.7451,-2.61823 1.5,-45.16602 -0.17817,-30.92956 -0.59694,-45.27904 -1.32851,-45.52278 -0.58758,-0.19576 -2.61258,0.68338 -4.5,1.95365 l -3.43168,2.30959 -0.60125,20.46319 c -0.76729,26.11389 -2.76342,32.619 -13.08807,42.65217 -7.99006,7.76449 -21.28891,14.35346 -19.29747,9.56102 3.87738,-9.33098 3.86862,-9.19591 4.49104,-69.25 0.41419,-39.96298 0.97043,-59.55654 1.75539,-61.83427 5.49403,-15.94191 27.09052,-35.02302 48.24036,-42.62169 18.74223,-6.73368 36.33201,-3.80635 50.42612,8.39202 2.98237,2.58122 5.15018,3.72599 6.42466,3.39271 2.13869,-0.55928 3.38687,0.68965 2.33324,2.33464 -0.37621,0.58736 -2.54835,2.01294 -4.82697,3.16797 -5.24296,2.65763 -18.78098,12.87072 -23.30322,17.57995 -3.5039,3.64879 -7.05383,4.74167 -7.05383,2.17158 0,-2.94151 -4.00105,-10.57865 -7.68003,-14.6595 -9.14483,-10.14378 -25.61489,-12.04542 -32.93145,-3.80229 -4.38637,4.94187 -4.7194,7.72845 -5.15445,43.12888 -0.4646,37.80534 -0.91995,35.67104 6.77305,31.74637 l 3.92745,-2.00364 0.28271,-11.24636 c 0.23139,-9.20447 0.55506,-11.24639 1.78272,-11.24639 1.2045,0 1.55664,1.82223 1.78753,9.25 0.21621,6.95582 0.62228,9.25 1.63725,9.25 1.69951,0 22.13156,-13.60507 28.73476,-19.13358 l 4.94918,-4.14368 5.05155,5.66772 c 6.70925,7.52761 9.71073,9.01341 18.33973,9.07857 6.86901,0.0519 6.99379,0.0994 6.66809,2.54192 -0.4475,3.35583 -4.38619,9.97827 -7.57261,12.73244 l -2.59548,2.24338 0.0119,49.25662 c 0.009,38.96749 0.30367,50.35272 1.40879,54.50396 0.78982,2.96689 1.0078,5.48785 0.50156,5.80072 -0.49244,0.30435 -2.5889,0.083 -4.65878,-0.49178 -5.61189,-1.55847 -16.2694,-1.2736 -21.7103,0.5803 -2.70057,0.92018 -6.71829,3.47163 -9.17814,5.82859 -3.64836,3.49574 -4.375,4.81675 -4.375,7.95362 0,3.38035 0.91384,4.70792 9.01585,13.09761 10.26586,10.63038 12.9304,15.47845 12.96219,23.58437 0.0373,9.52086 -3.18962,15.96376 -9.87836,19.72304 -4.59944,2.58503 -11.56979,3.84258 -12.54575,2.26343 z m 6.94607,-132.98179 0,-14.2725 -11.5,-0.1314 -11.5,-0.13139 -0.28041,13.41446 c -0.15423,7.37796 -0.0989,13.88717 0.12298,14.46492 0.2511,0.65385 4.69877,1.02741 11.78042,0.98943 l 11.37701,-0.061 0,-14.27251 z m -1.55355,-19.0768 c 1.9907,-1.06539 2.1011,-1.80214 1.83581,-12.25143 l -0.28226,-11.11788 -5.12313,-2.64516 c -2.81772,-1.45484 -7.00781,-4.13786 -9.31131,-5.96226 -3.64888,-2.88997 -4.50219,-3.17402 -6.62686,-2.20595 -2.43667,1.11022 -2.4387,1.12441 -2.4387,17.07356 0,11.45347 0.3435,16.17472 1.21603,16.71398 3.85495,2.38249 16.56437,2.62474 20.73042,0.39514 z m -304.44645,96.82994 c -10.45502,-5.5899 -18.627213,-7.3586 -33.999996,-7.3586 -13.47316,0 -18.564525,1.04341 -27.846905,5.70685 -2.115798,1.06297 -4.131841,1.64774 -4.480096,1.29948 -0.348255,-0.34825 1.060037,-3.92242 3.129537,-7.94259 7.104874,-13.80178 19.910012,-23.39544 36.20061,-27.12163 3.84827,-0.88022 7.590877,-1.90229 8.316905,-2.27126 1.50178,-0.7632 37.175275,-93.57342 37.178105,-96.72468 10e-4,-1.12961 -1.46066,-3.4693 -3.24816,-5.19932 -8.69549,-8.41586 -23.31287,-8.44869 -31.690374,-0.0712 -2.10338,2.10338 -4.1587,3.82433 -4.567377,3.82433 -0.408676,0 -0.539314,-3.7125 -0.290306,-8.25 0.538655,-9.81551 2.553211,-14.33913 9.385553,-21.07496 9.715774,-9.57854 23.906664,-11.38703 36.222724,-4.61624 3.85947,2.12175 6.47436,3.01975 7.0209,2.41109 1.52648,-1.7 6.16888,-14.39903 6.16888,-16.87466 0,-3.4187 -4.91514,-8.20104 -11.66769,-11.35243 -10.65082,-4.97069 -27.02941,-3.41034 -35.98888,3.42858 -5.323795,4.06374 -6.568534,4.18828 -5.783317,0.57862 1.59519,-7.33312 7.522087,-17.08501 14.203337,-23.36961 7.83687,-7.37162 15.43351,-11.39426 25.56827,-13.53912 12.10584,-2.56201 21.09391,-0.29284 29.58054,7.46802 3.83876,3.51047 5.603,7.69518 36.12662,85.69071 17.64993,45.1 33.25487,83.99661 34.67764,86.4369 6.74794,11.57389 14.73292,16.68813 24.7576,15.8568 3.03924,-0.25203 5.52588,-0.0957 5.52588,0.34743 0,0.44312 -3.7979,5.82214 -8.43978,11.95339 -4.64188,6.13125 -10.06642,14.24322 -12.05453,18.0266 -4.26519,8.11667 -5.20536,8.36845 -14.29257,3.82751 -7.38808,-3.69187 -14.59067,-11.26048 -20.78349,-21.83967 -5.39091,-9.2093 -8.86023,-17.37241 -16.83379,-39.60896 l -6.09584,-17 -36.11732,-0.26233 c -28.14529,-0.20443 -36.33574,0.0163 -37.10686,1 -1.34922,1.72117 -14.275816,34.67004 -14.275816,36.38793 0,0.9681 1.404246,1.38473 4.749996,1.40931 7.485,0.055 19.28598,2.48797 26.31062,5.42444 9.37267,3.91799 9.87765,4.00735 11.3405,2.00678 0.8313,-1.13687 1.94337,-1.54789 3.04464,-1.1253 1.48876,0.57129 1.11904,1.39164 -2.6054,5.78091 -8.83141,10.40787 -15.13006,18.53014 -18.6867,24.09697 -2.00951,3.14528 -4.10366,5.86806 -4.65366,6.05062 -0.55,0.18256 -4.15,-1.35226 -8,-3.41071 z m 67.0354,-105.1086 c 0.6143,-1.6247 -25.68974,-67.97492 -27.138,-68.45381 -1.03249,-0.34141 -24.82432,60.71556 -26.08962,66.95381 l -0.55778,2.75 26.65638,0 c 20.40638,0 26.7672,-0.29308 27.12902,-1.25 z m 117.4646,86.37595 c 0,-0.48072 1.10963,-2.85939 2.46585,-5.28593 5.39,-9.64375 5.99075,-14.57299 6.01335,-49.34002 l 0.0208,-32 -6.5,0.0308 c -7.68124,0.0364 -13.53462,2.48387 -15.90379,6.64978 -0.87791,1.54371 -2.12381,2.8096 -2.76866,2.81308 -1.94856,0.0105 -3.77135,-7.07719 -3.67716,-14.29819 0.0707,-5.4208 0.67704,-7.95482 2.98172,-12.46126 3.90323,-7.63214 8.82351,-10.99733 18.44177,-12.61309 l 7.42612,-1.24751 0.50761,-9.05258 c 0.92271,-16.45561 7.60015,-25.57349 26.43693,-36.09901 7.74783,-4.32929 10.42644,-4.718 8.56677,-1.24317 -0.54676,1.02163 -1.75124,4.48182 -2.67662,7.68932 -1.44892,5.02218 -1.76696,13.5369 -2.29086,61.33181 l -0.60836,55.5 -2.60669,6.78601 c -4.69927,12.23363 -11.53463,19.7378 -26.19868,28.76214 -8.16384,5.02407 -9.6301,5.64495 -9.6301,4.0778 z m -22,-177.29717 c 0,-2.81119 6.85756,-15.46828 10.76141,-19.86248 7.9144,-8.90851 20.08768,-12.98729 32.73234,-10.9673 3.65159,0.58335 9.44575,1.7115 12.87591,2.50701 12.12197,2.81127 19.80481,3.4956 26.43486,2.35464 3.46748,-0.59672 6.55966,-0.82981 6.87149,-0.51797 0.97955,0.97955 -4.83484,9.93381 -10.00152,15.40252 -10.07359,10.66244 -20.1802,13.02897 -39.69404,9.29462 -6.31425,-1.20835 -14.42081,-2.44376 -18.01459,-2.74535 -6.46309,-0.54239 -8.47828,-0.0201 -20.71586,5.36904 -0.6875,0.30276 -1.25,-0.0729 -1.25,-0.83473 z M 402.19531,312.96771 c -0.3835,-0.6205 0.44889,-2.49032 1.84974,-4.15514 2.68341,-3.18905 5.59633,-11.4818 5.59633,-15.93211 0,-4.42514 -2.8443,-12.54557 -7.53577,-21.51446 -6.70063,-12.80992 -6.28253,-17.5903 2.58462,-29.55143 l 4.95115,-6.67874 0,-17.67871 0,-17.67871 -3.74792,-1.56599 c -4.18597,-1.749 -14.33811,-1.42665 -18.07629,0.57396 -2.05469,1.09964 -2.17579,1.85417 -2.17579,13.55668 0,12.19646 0.0416,12.42498 2.63486,14.46482 3.28862,2.58683 4.57744,2.60046 6.86514,0.0726 1.93591,-2.13916 5.5,-2.72164 5.5,-0.89887 0,0.60563 -2.92384,4.25915 -6.49742,8.11895 -3.57358,3.8598 -9.53608,11.57679 -13.25,17.14887 -3.71392,5.57208 -7.13307,10.40918 -7.59812,10.74911 -0.46504,0.33994 -3.84004,-1.09614 -7.5,-3.19127 -10.49675,-6.00885 -18.06966,-8.15467 -30.67348,-8.69147 -12.79527,-0.54496 -19.8367,0.86105 -31.20891,6.23168 -3.97535,1.8774 -7.47071,3.0206 -7.76746,2.54045 -1.10101,-1.78147 10.16869,-16.55711 17.03473,-22.33413 7.35163,-6.18558 21.61654,-13.6671 29.70083,-15.5772 8.97861,-2.12139 18.84326,-2.37686 26.75983,-0.69301 4.125,0.87739 8.29209,1.59562 9.26019,1.59607 1.65812,7.7e-4 1.7451,-2.61823 1.5,-45.16602 -0.17817,-30.92956 -0.59694,-45.27904 -1.32851,-45.52278 -0.58758,-0.19576 -2.61258,0.68338 -4.5,1.95365 l -3.43168,2.30959 -0.60125,20.46319 c -0.76729,26.11389 -2.76342,32.619 -13.08807,42.65217 -7.99006,7.76449 -21.28891,14.35346 -19.29747,9.56102 3.87738,-9.33098 3.86862,-9.19591 4.49104,-69.25 0.41419,-39.962978 0.97043,-59.556534 1.75539,-61.834265 5.49403,-15.941936 27.09052,-35.023044 48.24036,-42.621717 18.74223,-6.733672 36.33201,-3.806344 50.42612,8.392019 2.98237,2.581227 5.15018,3.725999 6.42466,3.392716 2.13869,-0.55928 3.38687,0.689653 2.33324,2.33464 -0.37621,0.587356 -2.54835,2.012941 -4.82697,3.167965 -5.24296,2.657637 -18.78098,12.870727 -23.30322,17.579956 -3.5039,3.648793 -7.05383,4.741664 -7.05383,2.171573 0,-2.941505 -4.00105,-10.578643 -7.68003,-14.659494 -9.14483,-10.14378 -25.61489,-12.045425 -32.93145,-3.80229 -4.38637,4.94187 -4.7194,7.728452 -5.15445,43.128879 -0.4646,37.805338 -0.91995,35.671038 6.77305,31.746368 l 3.92745,-2.00364 0.28271,-11.24636 c 0.23139,-9.20445 0.55506,-11.24637 1.78272,-11.24637 1.2045,0 1.55664,1.82223 1.78753,9.25 0.21621,6.95582 0.62228,9.25 1.63725,9.25 1.69951,0 22.13156,-13.60507 28.73476,-19.13358 l 4.94918,-4.143677 5.05155,5.667717 c 6.70925,7.52761 9.71073,9.01341 18.33973,9.07857 6.86901,0.0519 6.99379,0.0994 6.66809,2.54192 -0.4475,3.35583 -4.38619,9.97827 -7.57261,12.73244 l -2.59548,2.24338 0.0119,49.25662 c 0.009,38.96749 0.30367,50.35272 1.40879,54.50396 0.78982,2.96689 1.0078,5.48785 0.50156,5.80072 -0.49244,0.30435 -2.5889,0.0831 -4.65878,-0.49178 -5.61189,-1.55847 -16.2694,-1.2736 -21.7103,0.5803 -2.70057,0.92018 -6.71829,3.47163 -9.17814,5.82859 -3.64836,3.49574 -4.375,4.81675 -4.375,7.95362 0,3.38035 0.91384,4.70792 9.01585,13.09761 10.26586,10.63038 12.9304,15.47845 12.96219,23.58437 0.0373,9.52086 -3.18962,15.96376 -9.87836,19.72304 -4.59944,2.58503 -11.56979,3.84258 -12.54575,2.26343 z m 6.94607,-132.98179 0,-14.2725 -11.5,-0.1314 -11.5,-0.13139 -0.28041,13.41446 c -0.15423,7.37796 -0.0989,13.88717 0.12298,14.46492 0.2511,0.65385 4.69877,1.02741 11.78042,0.98943 l 11.37701,-0.061 0,-14.27251 z m -1.55355,-19.0768 c 1.9907,-1.06539 2.1011,-1.80214 1.83581,-12.25143 l -0.28226,-11.11788 -5.12313,-2.64516 c -2.81772,-1.45484 -7.00781,-4.13786 -9.31131,-5.96226 -3.64888,-2.88997 -4.50219,-3.17402 -6.62686,-2.20595 -2.43667,1.11022 -2.4387,1.12441 -2.4387,17.07356 0,11.45347 0.3435,16.17472 1.21603,16.71398 3.85495,2.38249 16.56437,2.62474 20.73042,0.39514 z M 93.932596,261.7798 c -6.550295,-0.98025 -11.521711,-2.46412 -27.791212,-8.29515 -11.657513,-4.17808 -18.767188,-4.63443 -26.489273,-1.70026 -6.693714,2.54341 -6.620877,1.23881 0.53094,-9.50971 6.261496,-9.41044 11.49266,-14.14714 19.849007,-17.9728 4.914574,-2.24997 6.795024,-2.57649 12.930134,-2.24521 8.714001,0.47052 14.05968,2.78029 29.679188,12.82379 16.40142,10.54628 21.02453,12.5 29.57887,12.5 6.12521,0 7.73447,-0.40536 11.94524,-3.00892 6.04733,-3.73913 9.30661,-9.66559 10.52801,-19.14344 0.48534,-3.7662 0.89717,-38.69959 0.91516,-77.62976 0.0347,-75.075506 0.0143,-74.725048 4.65596,-79.854062 0.85084,-0.940159 8.30389,-5.906628 16.56233,-11.036598 11.94142,-7.417748 30.3678,-20.33303 38.43487,-26.939485 0.74426,-0.609507 2.92374,0.77545 6.49152,4.125057 9.0763,8.521273 15.06675,10.438214 23.37456,7.479842 2.19259,-0.78077 4.33613,-1.069979 4.76343,-0.642687 1.3845,1.384501 -5.5138,13.520976 -10.38877,18.277417 -2.60847,2.54505 -7.80684,6.178609 -11.55193,8.074577 l -6.80925,3.447215 -0.5,79.925424 c -0.43888,70.15593 -0.68335,79.92542 -2,79.92542 -1.29825,0 -1.56725,-5.11111 -2,-38 l -0.5,-38 -15,0 -15,0 -0.5,33 c -0.57496,37.94748 -0.4854,37.54656 -10.2161,45.73252 -23.4403,19.71917 -58.61063,32.0911 -81.492684,28.66682 z M 216.14138,97.445808 l 0,-26.934654 -4.5,-1.153634 c -6.3766,-1.634726 -10.50361,-3.980666 -15.11466,-8.591723 -2.20457,-2.204566 -4.71567,-3.868134 -5.58022,-3.696819 -0.86454,0.171316 -2.41188,1.879463 -3.43851,3.795882 -1.70162,3.176418 -1.86661,6.1006 -1.86661,33.083334 0,16.279416 0.31153,29.910466 0.6923,30.291236 0.38076,0.38076 7.24326,0.56826 15.25,0.41666 l 14.5577,-0.27563 0,-26.934652 z m 71.5,141.560602 c 0,-0.48072 1.10963,-2.85939 2.46585,-5.28593 5.39,-9.64375 5.99075,-14.57299 6.01335,-49.34002 l 0.0208,-32 -6.5,0.0308 c -7.68124,0.0364 -13.53462,2.48387 -15.90379,6.64978 -0.87791,1.54371 -2.12381,2.8096 -2.76866,2.81308 -1.94856,0.0105 -3.77135,-7.07719 -3.67716,-14.29819 0.0707,-5.4208 0.67704,-7.95482 2.98172,-12.46126 3.90323,-7.63214 8.82351,-10.99733 18.44177,-12.61309 l 7.42612,-1.24751 0.50761,-9.05258 c 0.92271,-16.455609 7.60015,-25.573492 26.43693,-36.099008 7.74783,-4.329293 10.42644,-4.718 8.56677,-1.243165 -0.54676,1.021624 -1.75124,4.481814 -2.67662,7.689311 -1.44892,5.022181 -1.76696,13.536901 -2.29086,61.331812 l -0.60836,55.5 -2.60669,6.78601 c -4.69927,12.23363 -11.53463,19.7378 -26.19868,28.76214 -8.16384,5.02407 -9.6301,5.64495 -9.6301,4.0778 z M 101.99837,215.63046 c 3.3136,-7.90984 3.67476,-11.75539 3.41088,-36.31738 l -0.26787,-24.93262 -9.056395,0.008 c -10.259903,0.009 -13.191612,1.25558 -16.619531,7.06547 -1.111892,1.88465 -2.409828,3.42653 -2.884302,3.42653 -1.748329,0 -3.14555,-8.70997 -2.727078,-17 0.83562,-16.55384 7.341048,-23.13228 24.559083,-24.83474 l 6.728223,-0.66526 0.75805,-10 c 0.96409,-12.718126 3.93213,-19.273869 11.17729,-24.688171 6.08734,-4.549073 22.67653,-13.860722 23.63655,-13.267397 0.38715,0.239275 -0.48259,3.252163 -1.93277,6.695308 l -2.63668,6.260262 -0.57969,48.999998 c -0.39609,33.4812 -0.95366,50.14437 -1.76048,52.61331 -2.76646,8.46555 -9.44926,15.48124 -22.28486,23.39491 -7.29029,4.49477 -10.50371,5.58896 -9.52042,3.24178 z M 106.64138,65.276255 C 103.61638,64.466333 96.989768,62.476158 91.915572,60.853644 78.69585,56.626535 73.044346,56.1336 67.553718,58.728755 c -2.426784,1.147024 -5.424834,2.830282 -6.662334,3.740574 -2.183495,1.606157 -2.25,1.576839 -2.25,-0.991877 0,-8.094821 8.242137,-21.915431 16.428601,-27.547866 10.184892,-7.00739 19.509388,-7.152764 40.317965,-0.628581 5.95624,1.867477 13.62204,3.944806 17.03511,4.616288 8.16635,1.606631 20.17133,0.774288 28.08504,-1.947221 3.5017,-1.204227 6.59305,-1.963177 6.86967,-1.686555 0.9264,0.926403 -6.79264,10.471535 -13.19353,16.314717 -15.79484,14.418644 -30.99008,19.109907 -47.54286,14.678021 z m 159,-3.567016 c 0,-2.811183 6.85756,-15.468276 10.76141,-19.862479 7.9144,-8.908511 20.08768,-12.987291 32.73234,-10.967296 3.65159,0.583343 9.44575,1.711495 12.87591,2.507003 12.12197,2.811272 19.80481,3.495608 26.43486,2.354642 3.46748,-0.59672 6.55966,-0.829805 6.87149,-0.517968 0.97955,0.979551 -4.83484,9.933811 -10.00152,15.402521 -10.07359,10.662444 -20.1802,13.028972 -39.69404,9.294618 -6.31425,-1.208353 -14.42081,-2.443762 -18.01459,-2.745352 -6.46309,-0.542384 -8.47828,-0.02009 -20.71586,5.369042 -0.6875,0.302758 -1.25,-0.07287 -1.25,-0.834731 z"
     style="fill:#0c0c0c" />
</svg>
